<svg width="107" height="34" viewBox="0 0 107 34" xmlns="http://www.w3.org/2000/svg" role="img" aria-label="About Me"><g fill="#f2b8d4"><g transform="translate(2.00 25.00) scale(0.02200 -0.02200)"><path d="M200 287 209 305H468L475 287ZM694 12Q698 12 698.0 6.0Q698 0 694 0Q666 0 636.5 2.0Q607 4 580 4Q549 4 526.5 2.0Q504 0 477 0Q473 0 473.0 6.0Q473 12 477 12Q533 12 547.5 27.0Q562 42 543 84L317 570L336 587L143 123Q118 62 139.0 37.0Q160 12 228 12Q233 12 233.0 6.0Q233 0 228 0Q198 0 173.0 2.0Q148 4 110 4Q75 4 53.5 2.0Q32 0 2 0Q-2 0 -2.0 6.0Q-2 12 2 12Q29 12 49.0 22.0Q69 32 86.5 58.0Q104 84 124 132L333 635Q335 638 339.5 638.0Q344 638 345 635L577 137Q600 87 618.0 59.5Q636 32 654.0 22.0Q672 12 694 12Z"/></g><g transform="translate(18.56 25.00) scale(0.02200 -0.02200)"><path d="M249 -13Q211 -13 174.0 -1.0Q137 11 101 41L144 123Q144 80 167.5 54.0Q191 28 223.5 17.0Q256 6 282 6Q344 6 379.0 51.0Q414 96 414 182Q414 275 376.0 323.0Q338 371 281 371Q237 371 200.5 342.5Q164 314 132 278L124 285Q145 309 172.0 335.5Q199 362 233.5 380.5Q268 399 311 399Q353 399 389.0 378.5Q425 358 447.5 317.0Q470 276 470 214Q470 138 437.5 87.5Q405 37 354.0 12.0Q303 -13 249 -13ZM42 -4Q38 -5 36.0 -1.0Q34 3 37 6Q67 27 82.0 45.0Q97 63 97 103V599Q97 635 90.0 651.5Q83 668 64 668Q47 668 16 654Q12 652 10.0 658.0Q8 664 12 665L132 724Q135 725 137 725Q139 725 141.5 723.0Q144 721 144 718V44Z"/></g><g transform="translate(30.93 25.00) scale(0.02200 -0.02200)"><path d="M230 -13Q171 -13 127.5 16.0Q84 45 60.5 93.5Q37 142 37 198Q37 250 56.0 288.0Q75 326 106.5 350.5Q138 375 175.0 387.0Q212 399 248 399Q308 399 351.0 369.0Q394 339 417.0 292.0Q440 245 440 193Q440 129 411.0 83.0Q382 37 334.5 12.0Q287 -13 230 -13ZM258 5Q314 5 348.0 42.5Q382 80 382 167Q382 228 361.0 276.0Q340 324 302.5 352.0Q265 380 215 380Q158 380 126.0 340.5Q94 301 94 227Q94 168 114.5 117.0Q135 66 172.0 35.5Q209 5 258 5Z"/></g><g transform="translate(42.63 25.00) scale(0.02200 -0.02200)"><path d="M180 -7Q132 -7 104.0 23.5Q76 54 76 115V270Q76 311 70.0 328.5Q64 346 47 346Q32 346 11 336Q7 334 4.5 340.0Q2 346 6 347L111 394Q113 395 115 395Q117 395 120.0 393.0Q123 391 123 388V145Q123 84 144.0 55.5Q165 27 207 27Q248 27 289.0 51.5Q330 76 361 119L366 108Q317 46 272.0 19.5Q227 -7 180 -7ZM389 388V105Q389 71 397.5 55.5Q406 40 426 40Q437 40 450.0 44.0Q463 48 482 55Q487 57 489.0 51.5Q491 46 487 44L375 -8Q373 -9 371 -9Q364 -9 353.5 11.5Q343 32 343 71V270Q343 311 336.5 328.5Q330 346 313 346Q298 346 277 336Q273 334 271.0 340.0Q269 346 273 347L378 394Q380 395 381 395Q383 395 386.0 393.0Q389 391 389 388Z"/></g><g transform="translate(54.61 25.00) scale(0.02200 -0.02200)"><path d="M189 -12Q165 -12 143.5 -4.5Q122 3 109.0 20.5Q96 38 96 68V306Q96 331 93.0 342.5Q90 354 79.0 357.5Q68 361 44 361Q41 361 41.0 367.0Q41 373 44 373Q82 373 105.5 394.0Q129 415 129 447Q129 450 136.5 450.0Q144 450 144 447V102Q144 60 164.5 39.5Q185 19 225 19Q252 19 272.5 27.5Q293 36 306 46Q310 48 313.0 43.5Q316 39 312 36Q275 10 247.0 -1.0Q219 -12 189 -12ZM282 338Q243 348 207.5 350.5Q172 353 132 353V374Q171 374 207.5 377.0Q244 380 285 384Q288 384 290.0 377.5Q292 371 292 361Q292 354 289.0 345.5Q286 337 282 338Z"/></g><g transform="translate(69.61 25.00) scale(0.02200 -0.02200)"><path d="M120 104 130 602 152 600 143 104Q142 53 159.5 32.5Q177 12 227 12Q229 12 229.0 6.0Q229 0 227 0Q205 0 181.5 1.0Q158 2 130 2Q106 2 84.0 1.0Q62 0 42 0Q40 0 40.0 6.0Q40 12 42 12Q84 12 101.5 32.5Q119 53 120 104ZM807 12Q810 12 810.0 6.0Q810 0 807 0Q783 0 753.5 1.0Q724 2 691 2Q660 2 634.0 1.0Q608 0 587 0Q585 0 585.0 6.0Q585 12 587 12Q637 12 651.5 25.0Q666 38 664 81L646 574L675 611L413 7Q412 3 405.0 3.0Q398 3 396 7L152 542Q120 613 49 613Q47 613 47.0 619.0Q47 625 49 625Q64 625 81.0 624.0Q98 623 109 623Q123 623 135.0 624.0Q147 625 153 625Q167 625 175.0 616.0Q183 607 199 573L428 78L402 36L648 600Q653 611 661.5 618.0Q670 625 678 625Q683 625 693.0 624.0Q703 623 716 623Q742 623 758.0 624.0Q774 625 792 625Q794 625 794.0 619.0Q794 613 792 613Q743 613 720.0 600.5Q697 588 698 546L717 81Q718 52 724.5 37.0Q731 22 750.0 17.0Q769 12 807 12Z"/></g><g transform="translate(89.07 25.00) scale(0.02200 -0.02200)"><path d="M215 -12Q156 -12 116.5 15.5Q77 43 57.0 87.0Q37 131 37 180Q37 241 65.0 289.5Q93 338 140.5 366.5Q188 395 244 395Q301 395 329.0 364.0Q357 333 357 281Q357 268 354.5 262.0Q352 256 345 256H298Q303 318 278.5 346.5Q254 375 212 375Q156 375 125.0 332.5Q94 290 94 216Q94 160 112.0 115.5Q130 71 165.0 45.5Q200 20 250 20Q285 20 307.5 30.5Q330 41 351 54Q353 56 356.5 51.5Q360 47 358 44Q323 14 287.5 1.0Q252 -12 215 -12ZM81 255 80 267 308 271V256Z"/></g></g></svg>