<svg width="368" height="52" viewBox="0 0 368 52" xmlns="http://www.w3.org/2000/svg" role="img" aria-label="Activity"><rect width="368" height="52" fill="#0d1117"/><g fill="#f2b8d4"><g transform="translate(4.00 36.00) scale(0.03000 -0.03000)"><path d="M200 287 209 305H468L475 287ZM694 12Q698 12 698.0 6.0Q698 0 694 0Q666 0 636.5 2.0Q607 4 580 4Q549 4 526.5 2.0Q504 0 477 0Q473 0 473.0 6.0Q473 12 477 12Q533 12 547.5 27.0Q562 42 543 84L317 570L336 587L143 123Q118 62 139.0 37.0Q160 12 228 12Q233 12 233.0 6.0Q233 0 228 0Q198 0 173.0 2.0Q148 4 110 4Q75 4 53.5 2.0Q32 0 2 0Q-2 0 -2.0 6.0Q-2 12 2 12Q29 12 49.0 22.0Q69 32 86.5 58.0Q104 84 124 132L333 635Q335 638 339.5 638.0Q344 638 345 635L577 137Q600 87 618.0 59.5Q636 32 654.0 22.0Q672 12 694 12Z"/></g><g transform="translate(26.54 36.00) scale(0.03000 -0.03000)"><path d="M230 -12Q162 -12 119.5 17.5Q77 47 57.0 92.5Q37 138 37 185Q37 235 56.0 274.0Q75 313 106.5 340.0Q138 367 176.0 381.0Q214 395 251 395Q279 395 305.0 387.5Q331 380 348.0 367.0Q365 354 365 338Q365 326 357.5 317.5Q350 309 336 309Q322 309 312.0 318.0Q302 327 296 337Q284 354 267.5 364.5Q251 375 219 375Q158 375 126.0 330.5Q94 286 94 214Q94 163 112.0 118.5Q130 74 167.5 46.5Q205 19 265 19Q291 19 318.5 26.5Q346 34 368 54Q371 56 374.5 52.0Q378 48 375 46Q341 15 306.0 1.5Q271 -12 230 -12Z"/></g><g transform="translate(40.35 36.00) scale(0.03000 -0.03000)"><path d="M189 -12Q165 -12 143.5 -4.5Q122 3 109.0 20.5Q96 38 96 68V306Q96 331 93.0 342.5Q90 354 79.0 357.5Q68 361 44 361Q41 361 41.0 367.0Q41 373 44 373Q82 373 105.5 394.0Q129 415 129 447Q129 450 136.5 450.0Q144 450 144 447V102Q144 60 164.5 39.5Q185 19 225 19Q252 19 272.5 27.5Q293 36 306 46Q310 48 313.0 43.5Q316 39 312 36Q275 10 247.0 -1.0Q219 -12 189 -12ZM282 338Q243 348 207.5 350.5Q172 353 132 353V374Q171 374 207.5 377.0Q244 380 285 384Q288 384 290.0 377.5Q292 371 292 361Q292 354 289.0 345.5Q286 337 282 338Z"/></g><g transform="translate(52.12 36.00) scale(0.03000 -0.03000)"><path d="M57 0Q55 0 55.0 6.0Q55 12 57 12Q98 12 110.5 25.0Q123 38 123 81V270Q123 306 116.0 322.5Q109 339 90 339Q81 339 69.5 335.5Q58 332 42 324Q38 323 35.5 328.5Q33 334 37 336L161 394Q164 395 165 395Q167 395 169.5 393.0Q172 391 172 388Q172 381 171.0 349.5Q170 318 170 271V81Q170 38 181.5 25.0Q193 12 235 12Q238 12 238.0 6.0Q238 0 235 0Q218 0 195.0 1.0Q172 2 146 2Q121 2 98.0 1.0Q75 0 57 0ZM138 516Q119 516 108.5 526.0Q98 536 98 554Q98 572 108.5 582.0Q119 592 138 592Q156 592 166.0 582.0Q176 572 176 554Q176 516 138 516Z"/></g><g transform="translate(61.97 36.00) scale(0.03000 -0.03000)"><path d="M425 386Q427 386 427.0 380.0Q427 374 425 374Q401 374 385.0 360.0Q369 346 352 305L227 1Q226 -3 216.5 -3.0Q207 -3 205 1L68 303Q48 348 35.0 361.0Q22 374 4 374Q1 374 1.0 380.0Q1 386 4 386Q18 386 34.5 385.0Q51 384 65 384Q98 384 122.0 385.0Q146 386 166 386Q169 386 169.0 380.0Q169 374 166 374Q135 374 116.5 366.5Q98 359 109 335L239 51L216 22L335 311Q349 346 331.5 360.0Q314 374 258 374Q256 374 256.0 380.0Q256 386 258 386Q282 386 303.5 385.0Q325 384 359 384Q380 384 393.0 385.0Q406 386 425 386Z"/></g><g transform="translate(76.56 36.00) scale(0.03000 -0.03000)"><path d="M57 0Q55 0 55.0 6.0Q55 12 57 12Q98 12 110.5 25.0Q123 38 123 81V270Q123 306 116.0 322.5Q109 339 90 339Q81 339 69.5 335.5Q58 332 42 324Q38 323 35.5 328.5Q33 334 37 336L161 394Q164 395 165 395Q167 395 169.5 393.0Q172 391 172 388Q172 381 171.0 349.5Q170 318 170 271V81Q170 38 181.5 25.0Q193 12 235 12Q238 12 238.0 6.0Q238 0 235 0Q218 0 195.0 1.0Q172 2 146 2Q121 2 98.0 1.0Q75 0 57 0ZM138 516Q119 516 108.5 526.0Q98 536 98 554Q98 572 108.5 582.0Q119 592 138 592Q156 592 166.0 582.0Q176 572 176 554Q176 516 138 516Z"/></g><g transform="translate(86.41 36.00) scale(0.03000 -0.03000)"><path d="M189 -12Q165 -12 143.5 -4.5Q122 3 109.0 20.5Q96 38 96 68V306Q96 331 93.0 342.5Q90 354 79.0 357.5Q68 361 44 361Q41 361 41.0 367.0Q41 373 44 373Q82 373 105.5 394.0Q129 415 129 447Q129 450 136.5 450.0Q144 450 144 447V102Q144 60 164.5 39.5Q185 19 225 19Q252 19 272.5 27.5Q293 36 306 46Q310 48 313.0 43.5Q316 39 312 36Q275 10 247.0 -1.0Q219 -12 189 -12ZM282 338Q243 348 207.5 350.5Q172 353 132 353V374Q171 374 207.5 377.0Q244 380 285 384Q288 384 290.0 377.5Q292 371 292 361Q292 354 289.0 345.5Q286 337 282 338Z"/></g><g transform="translate(98.18 36.00) scale(0.03000 -0.03000)"><path d="M429 386Q432 386 432.0 380.0Q432 374 429 374Q406 374 389.0 360.0Q372 346 357 305L232 -28Q196 -124 163.0 -179.5Q130 -235 94.5 -258.0Q59 -281 14 -281Q-5 -281 -19.5 -272.0Q-34 -263 -34 -244Q-34 -232 -25.5 -225.5Q-17 -219 -7 -219Q13 -219 23.5 -224.5Q34 -230 43.5 -236.0Q53 -242 69 -242Q94 -242 117.0 -219.0Q140 -196 166.5 -141.0Q193 -86 229 9V-13L74 303Q52 347 39.5 360.5Q27 374 8 374Q6 374 6.0 380.0Q6 386 8 386Q23 386 39.0 385.0Q55 384 70 384Q102 384 126.5 385.0Q151 386 171 386Q173 386 173.0 380.0Q173 374 171 374Q140 374 121.5 366.0Q103 358 115 335L255 48L235 11L336 301Q351 345 335.0 359.5Q319 374 263 374Q261 374 261.0 380.0Q261 386 263 386Q287 386 308.5 385.0Q330 384 364 384Q385 384 398.0 385.0Q411 386 429 386Z"/></g></g><line x1="131" y1="29" x2="364" y2="29" stroke="#d16ba5" stroke-width="0.75" opacity="0.35"/></svg>