<svg width="490" height="52" viewBox="0 0 490 52" xmlns="http://www.w3.org/2000/svg" role="img" aria-label="Featured Projects"><rect width="490" height="52" fill="#0d1117"/><g fill="#f2b8d4"><g transform="translate(4.00 36.00) scale(0.03000 -0.03000)"><path d="M44 0Q42 0 42.0 6.0Q42 12 44 12Q82 12 101.0 17.0Q120 22 126.5 37.0Q133 52 133 81V544Q133 573 126.5 587.5Q120 602 101.0 607.5Q82 613 44 613Q42 613 42.0 619.0Q42 625 44 625H440Q449 625 449 616L451 495Q451 492 445.5 492.0Q440 492 440 495Q440 547 413.0 576.5Q386 606 342 606H273Q219 606 202.5 594.0Q186 582 186 543V85Q186 55 194.5 39.5Q203 24 230.0 18.0Q257 12 311 12Q314 12 314.0 6.0Q314 0 311 0Q279 0 241.5 1.0Q204 2 160 2Q128 2 98.0 1.0Q68 0 44 0ZM389 223Q389 268 367.5 286.0Q346 304 291 304H161V323H295Q347 323 367.5 339.0Q388 355 388 392Q388 394 394.0 394.0Q400 394 400 392Q400 363 399.5 347.0Q399 331 399 313Q399 291 400.0 269.5Q401 248 401 223Q401 221 395.0 221.0Q389 221 389 223Z"/></g><g transform="translate(20.78 36.00) scale(0.03000 -0.03000)"><path d="M215 -12Q156 -12 116.5 15.5Q77 43 57.0 87.0Q37 131 37 180Q37 241 65.0 289.5Q93 338 140.5 366.5Q188 395 244 395Q301 395 329.0 364.0Q357 333 357 281Q357 268 354.5 262.0Q352 256 345 256H298Q303 318 278.5 346.5Q254 375 212 375Q156 375 125.0 332.5Q94 290 94 216Q94 160 112.0 115.5Q130 71 165.0 45.5Q200 20 250 20Q285 20 307.5 30.5Q330 41 351 54Q353 56 356.5 51.5Q360 47 358 44Q323 14 287.5 1.0Q252 -12 215 -12ZM81 255 80 267 308 271V256Z"/></g><g transform="translate(34.53 36.00) scale(0.03000 -0.03000)"><path d="M313 -6Q309 -8 305 -8Q293 -8 283.0 13.0Q273 34 273 74V267Q273 329 253.5 353.0Q234 377 205 377Q180 377 163.5 365.5Q147 354 138.5 337.0Q130 320 126 305Q124 295 119.0 281.5Q114 268 94 268Q79 268 71.5 277.0Q64 286 64 296Q64 313 82.0 330.5Q100 348 127.5 363.0Q155 378 185.0 387.0Q215 396 240 396Q281 396 300.0 369.5Q319 343 319 297V108Q319 72 327.5 55.5Q336 39 357 39Q376 39 412 54Q417 56 419.0 50.5Q421 45 416 43ZM136 -7Q99 -7 79.5 13.5Q60 34 60 61Q60 78 68.5 94.0Q77 110 98.5 125.0Q120 140 158 154L283 201L285 188L167 143Q146 135 135.0 125.5Q124 116 120.0 105.5Q116 95 116 84Q116 62 130.5 44.0Q145 26 173 26Q184 26 196.0 29.5Q208 33 225 43L292 82L294 70L219 23Q194 7 175.0 0.0Q156 -7 136 -7Z"/></g><g transform="translate(48.70 36.00) scale(0.03000 -0.03000)"><path d="M189 -12Q165 -12 143.5 -4.5Q122 3 109.0 20.5Q96 38 96 68V306Q96 331 93.0 342.5Q90 354 79.0 357.5Q68 361 44 361Q41 361 41.0 367.0Q41 373 44 373Q82 373 105.5 394.0Q129 415 129 447Q129 450 136.5 450.0Q144 450 144 447V102Q144 60 164.5 39.5Q185 19 225 19Q252 19 272.5 27.5Q293 36 306 46Q310 48 313.0 43.5Q316 39 312 36Q275 10 247.0 -1.0Q219 -12 189 -12ZM282 338Q243 348 207.5 350.5Q172 353 132 353V374Q171 374 207.5 377.0Q244 380 285 384Q288 384 290.0 377.5Q292 371 292 361Q292 354 289.0 345.5Q286 337 282 338Z"/></g><g transform="translate(60.47 36.00) scale(0.03000 -0.03000)"><path d="M180 -7Q132 -7 104.0 23.5Q76 54 76 115V270Q76 311 70.0 328.5Q64 346 47 346Q32 346 11 336Q7 334 4.5 340.0Q2 346 6 347L111 394Q113 395 115 395Q117 395 120.0 393.0Q123 391 123 388V145Q123 84 144.0 55.5Q165 27 207 27Q248 27 289.0 51.5Q330 76 361 119L366 108Q317 46 272.0 19.5Q227 -7 180 -7ZM389 388V105Q389 71 397.5 55.5Q406 40 426 40Q437 40 450.0 44.0Q463 48 482 55Q487 57 489.0 51.5Q491 46 487 44L375 -8Q373 -9 371 -9Q364 -9 353.5 11.5Q343 32 343 71V270Q343 311 336.5 328.5Q330 346 313 346Q298 346 277 336Q273 334 271.0 340.0Q269 346 273 347L378 394Q380 395 381 395Q383 395 386.0 393.0Q389 391 389 388Z"/></g><g transform="translate(76.77 36.00) scale(0.03000 -0.03000)"><path d="M139 271 135 281Q172 327 195.5 351.5Q219 376 236.0 385.5Q253 395 269 395Q290 395 310.0 384.0Q330 373 330 357Q330 347 322.5 339.0Q315 331 301 331Q289 331 280.5 338.0Q272 345 262.0 351.5Q252 358 235 358Q226 358 215.5 352.5Q205 347 187.5 328.5Q170 310 139 271ZM46 0Q43 0 43.0 6.0Q43 12 46 12Q87 12 99.0 25.0Q111 38 111 81V281Q111 315 103.0 330.5Q95 346 75 346Q65 346 51.0 342.0Q37 338 19 331Q15 330 12.5 335.0Q10 340 14 342L125 394Q127 395 130 395Q137 395 147.5 374.5Q158 354 158 315V81Q158 52 165.0 37.0Q172 22 193.5 17.0Q215 12 258 12Q261 12 261.0 6.0Q261 0 258 0Q234 0 202.0 1.0Q170 2 135 2Q110 2 86.5 1.0Q63 0 46 0Z"/></g><g transform="translate(89.17 36.00) scale(0.03000 -0.03000)"><path d="M215 -12Q156 -12 116.5 15.5Q77 43 57.0 87.0Q37 131 37 180Q37 241 65.0 289.5Q93 338 140.5 366.5Q188 395 244 395Q301 395 329.0 364.0Q357 333 357 281Q357 268 354.5 262.0Q352 256 345 256H298Q303 318 278.5 346.5Q254 375 212 375Q156 375 125.0 332.5Q94 290 94 216Q94 160 112.0 115.5Q130 71 165.0 45.5Q200 20 250 20Q285 20 307.5 30.5Q330 41 351 54Q353 56 356.5 51.5Q360 47 358 44Q323 14 287.5 1.0Q252 -12 215 -12ZM81 255 80 267 308 271V256Z"/></g><g transform="translate(102.92 36.00) scale(0.03000 -0.03000)"><path d="M193 -13Q152 -13 116.0 11.0Q80 35 58.5 77.5Q37 120 37 177Q37 233 58.5 274.5Q80 316 114.0 343.5Q148 371 188.0 385.0Q228 399 265 399Q300 399 330.5 386.5Q361 374 387 351L378 287Q353 325 320.5 352.5Q288 380 235 380Q171 380 131.5 334.5Q92 289 92 206Q92 150 110.0 108.0Q128 66 159.0 43.0Q190 20 228 20Q274 20 310.0 46.0Q346 72 378 108L386 101Q365 77 337.0 50.5Q309 24 273.5 5.5Q238 -13 193 -13ZM412 718V108Q412 72 420.5 55.5Q429 39 450 39Q460 39 474.5 41.5Q489 44 505 54Q510 56 512.5 50.5Q515 45 510 43L407 -6Q403 -8 399 -8Q386 -8 375.5 14.5Q365 37 365 81V599Q365 635 358.0 651.5Q351 668 331 668Q322 668 311.0 664.0Q300 660 283 653Q279 651 276.5 657.0Q274 663 278 664L400 724Q402 725 405 725Q407 725 409.5 723.0Q412 721 412 718Z"/></g><g transform="translate(128.53 36.00) scale(0.03000 -0.03000)"><path d="M186 85Q186 55 194.5 39.5Q203 24 230.0 18.0Q257 12 311 12Q314 12 314.0 6.0Q314 0 311 0Q279 0 241.5 1.0Q204 2 160 2Q128 2 98.0 1.0Q68 0 44 0Q42 0 42.0 6.0Q42 12 44 12Q82 12 101.0 17.0Q120 22 126.5 37.0Q133 52 133 81V544Q133 573 126.5 587.5Q120 602 101.0 607.5Q82 613 44 613Q42 613 42.0 619.0Q42 625 44 625Q68 625 97.5 623.5Q127 622 159 622Q185 622 222.0 625.0Q259 628 299 628Q354 628 399.0 611.0Q444 594 470.5 558.0Q497 522 497 464Q497 411 477.0 373.0Q457 335 424.5 310.5Q392 286 353.0 274.0Q314 262 276 262Q263 262 250.5 263.0Q238 264 227 267Q223 268 224.5 274.5Q226 281 229 280Q238 278 247.5 277.0Q257 276 265 276Q309 276 348.0 294.0Q387 312 411.0 349.5Q435 387 435 444Q435 499 413.5 537.0Q392 575 356.0 595.0Q320 615 276 615Q240 615 220.5 611.5Q201 608 193.5 593.0Q186 578 186 542Z"/></g><g transform="translate(146.33 36.00) scale(0.03000 -0.03000)"><path d="M139 271 135 281Q172 327 195.5 351.5Q219 376 236.0 385.5Q253 395 269 395Q290 395 310.0 384.0Q330 373 330 357Q330 347 322.5 339.0Q315 331 301 331Q289 331 280.5 338.0Q272 345 262.0 351.5Q252 358 235 358Q226 358 215.5 352.5Q205 347 187.5 328.5Q170 310 139 271ZM46 0Q43 0 43.0 6.0Q43 12 46 12Q87 12 99.0 25.0Q111 38 111 81V281Q111 315 103.0 330.5Q95 346 75 346Q65 346 51.0 342.0Q37 338 19 331Q15 330 12.5 335.0Q10 340 14 342L125 394Q127 395 130 395Q137 395 147.5 374.5Q158 354 158 315V81Q158 52 165.0 37.0Q172 22 193.5 17.0Q215 12 258 12Q261 12 261.0 6.0Q261 0 258 0Q234 0 202.0 1.0Q170 2 135 2Q110 2 86.5 1.0Q63 0 46 0Z"/></g><g transform="translate(158.73 36.00) scale(0.03000 -0.03000)"><path d="M230 -13Q171 -13 127.5 16.0Q84 45 60.5 93.5Q37 142 37 198Q37 250 56.0 288.0Q75 326 106.5 350.5Q138 375 175.0 387.0Q212 399 248 399Q308 399 351.0 369.0Q394 339 417.0 292.0Q440 245 440 193Q440 129 411.0 83.0Q382 37 334.5 12.0Q287 -13 230 -13ZM258 5Q314 5 348.0 42.5Q382 80 382 167Q382 228 361.0 276.0Q340 324 302.5 352.0Q265 380 215 380Q158 380 126.0 340.5Q94 301 94 227Q94 168 114.5 117.0Q135 66 172.0 35.5Q209 5 258 5Z"/></g><g transform="translate(174.64 36.00) scale(0.03000 -0.03000)"><path d="M161 388Q161 381 160.0 349.5Q159 318 159 271V-48Q159 -114 147.0 -158.5Q135 -203 106.5 -232.0Q78 -261 28 -282Q26 -283 23.5 -277.5Q21 -272 23 -271Q73 -250 92.5 -203.0Q112 -156 112 -71V270Q112 306 105.0 322.5Q98 339 80 339Q71 339 59.5 335.5Q48 332 32 324Q28 323 25.5 328.5Q23 334 27 336L151 394Q153 395 154 395Q157 395 159.0 393.0Q161 391 161 388ZM127 516Q108 516 97.5 526.0Q87 536 87 554Q87 572 97.5 582.0Q108 592 127 592Q145 592 155.0 582.0Q165 572 165 554Q165 516 127 516Z"/></g><g transform="translate(183.89 36.00) scale(0.03000 -0.03000)"><path d="M215 -12Q156 -12 116.5 15.5Q77 43 57.0 87.0Q37 131 37 180Q37 241 65.0 289.5Q93 338 140.5 366.5Q188 395 244 395Q301 395 329.0 364.0Q357 333 357 281Q357 268 354.5 262.0Q352 256 345 256H298Q303 318 278.5 346.5Q254 375 212 375Q156 375 125.0 332.5Q94 290 94 216Q94 160 112.0 115.5Q130 71 165.0 45.5Q200 20 250 20Q285 20 307.5 30.5Q330 41 351 54Q353 56 356.5 51.5Q360 47 358 44Q323 14 287.5 1.0Q252 -12 215 -12ZM81 255 80 267 308 271V256Z"/></g><g transform="translate(197.64 36.00) scale(0.03000 -0.03000)"><path d="M230 -12Q162 -12 119.5 17.5Q77 47 57.0 92.5Q37 138 37 185Q37 235 56.0 274.0Q75 313 106.5 340.0Q138 367 176.0 381.0Q214 395 251 395Q279 395 305.0 387.5Q331 380 348.0 367.0Q365 354 365 338Q365 326 357.5 317.5Q350 309 336 309Q322 309 312.0 318.0Q302 327 296 337Q284 354 267.5 364.5Q251 375 219 375Q158 375 126.0 330.5Q94 286 94 214Q94 163 112.0 118.5Q130 74 167.5 46.5Q205 19 265 19Q291 19 318.5 26.5Q346 34 368 54Q371 56 374.5 52.0Q378 48 375 46Q341 15 306.0 1.5Q271 -12 230 -12Z"/></g><g transform="translate(211.45 36.00) scale(0.03000 -0.03000)"><path d="M189 -12Q165 -12 143.5 -4.5Q122 3 109.0 20.5Q96 38 96 68V306Q96 331 93.0 342.5Q90 354 79.0 357.5Q68 361 44 361Q41 361 41.0 367.0Q41 373 44 373Q82 373 105.5 394.0Q129 415 129 447Q129 450 136.5 450.0Q144 450 144 447V102Q144 60 164.5 39.5Q185 19 225 19Q252 19 272.5 27.5Q293 36 306 46Q310 48 313.0 43.5Q316 39 312 36Q275 10 247.0 -1.0Q219 -12 189 -12ZM282 338Q243 348 207.5 350.5Q172 353 132 353V374Q171 374 207.5 377.0Q244 380 285 384Q288 384 290.0 377.5Q292 371 292 361Q292 354 289.0 345.5Q286 337 282 338Z"/></g><g transform="translate(223.22 36.00) scale(0.03000 -0.03000)"><path d="M96 322Q96 295 109.5 276.5Q123 258 144.5 245.5Q166 233 189 221Q215 209 238.0 194.5Q261 180 276.0 160.0Q291 140 291 108Q291 76 275.0 49.0Q259 22 227.5 5.5Q196 -11 151 -11Q127 -11 104.0 -4.5Q81 2 57 20Q55 22 53.0 25.0Q51 28 51 32L49 104Q49 107 54.5 107.5Q60 108 61 105Q74 71 91.5 49.5Q109 28 131.0 18.0Q153 8 180 8Q215 8 233.5 24.5Q252 41 250 74Q249 103 235.0 121.0Q221 139 200.0 151.0Q179 163 156 174Q131 186 108.5 199.5Q86 213 71.5 234.0Q57 255 57 288Q57 326 77.0 350.5Q97 375 127.5 387.0Q158 399 191 399Q209 399 227.0 395.5Q245 392 262 384Q271 380 271 373Q271 358 270.0 341.0Q269 324 269 304Q269 302 263.0 302.0Q257 302 257 304Q257 327 240.5 344.0Q224 361 200.5 370.0Q177 379 154 379Q127 379 111.5 365.0Q96 351 96 322Z"/></g></g><line x1="253" y1="29" x2="486" y2="29" stroke="#d16ba5" stroke-width="0.75" opacity="0.35"/></svg>