<svg width="436" height="52" viewBox="0 0 436 52" xmlns="http://www.w3.org/2000/svg" role="img" aria-label="GitHub Stats"><rect width="436" height="52" fill="#0d1117"/><g fill="#f2b8d4"><g transform="translate(4.00 36.00) scale(0.03000 -0.03000)"><path d="M405 -12Q321 -12 254.5 14.0Q188 40 142.5 86.0Q97 132 73.0 191.5Q49 251 49 318Q49 393 77.5 451.5Q106 510 156.5 551.5Q207 593 274.5 614.5Q342 636 420 636Q476 636 522.0 625.0Q568 614 599 594Q606 590 607.0 587.0Q608 584 609 572L621 460Q621 457 616.0 456.0Q611 455 609 458Q598 499 581.5 529.5Q565 560 540.5 580.0Q516 600 483.0 610.5Q450 621 406 621Q324 621 258.0 586.0Q192 551 153.5 486.0Q115 421 115 331Q115 273 133.5 214.5Q152 156 190.5 108.0Q229 60 289.0 31.0Q349 2 432 2Q482 2 511.5 15.0Q541 28 554.0 55.0Q567 82 567 125Q567 173 560.5 195.5Q554 218 529.5 225.0Q505 232 450 232Q444 232 444.0 240.0Q444 248 449 248Q511 244 562.0 243.5Q613 243 669 246Q674 246 674.0 239.0Q674 232 669 232Q644 233 632.5 225.5Q621 218 618.0 193.0Q615 168 615 115Q615 82 617.0 66.0Q619 50 620.5 42.5Q622 35 622 27Q622 21 620.0 19.0Q618 17 611 15Q561 4 506.5 -4.0Q452 -12 405 -12Z"/></g><g transform="translate(26.87 36.00) scale(0.03000 -0.03000)"><path d="M57 0Q55 0 55.0 6.0Q55 12 57 12Q98 12 110.5 25.0Q123 38 123 81V270Q123 306 116.0 322.5Q109 339 90 339Q81 339 69.5 335.5Q58 332 42 324Q38 323 35.5 328.5Q33 334 37 336L161 394Q164 395 165 395Q167 395 169.5 393.0Q172 391 172 388Q172 381 171.0 349.5Q170 318 170 271V81Q170 38 181.5 25.0Q193 12 235 12Q238 12 238.0 6.0Q238 0 235 0Q218 0 195.0 1.0Q172 2 146 2Q121 2 98.0 1.0Q75 0 57 0ZM138 516Q119 516 108.5 526.0Q98 536 98 554Q98 572 108.5 582.0Q119 592 138 592Q156 592 166.0 582.0Q176 572 176 554Q176 516 138 516Z"/></g><g transform="translate(36.72 36.00) scale(0.03000 -0.03000)"><path d="M189 -12Q165 -12 143.5 -4.5Q122 3 109.0 20.5Q96 38 96 68V306Q96 331 93.0 342.5Q90 354 79.0 357.5Q68 361 44 361Q41 361 41.0 367.0Q41 373 44 373Q82 373 105.5 394.0Q129 415 129 447Q129 450 136.5 450.0Q144 450 144 447V102Q144 60 164.5 39.5Q185 19 225 19Q252 19 272.5 27.5Q293 36 306 46Q310 48 313.0 43.5Q316 39 312 36Q275 10 247.0 -1.0Q219 -12 189 -12ZM282 338Q243 348 207.5 350.5Q172 353 132 353V374Q171 374 207.5 377.0Q244 380 285 384Q288 384 290.0 377.5Q292 371 292 361Q292 354 289.0 345.5Q286 337 282 338Z"/></g><g transform="translate(48.49 36.00) scale(0.03000 -0.03000)"><path d="M578 542Q578 571 572.0 586.0Q566 601 547.0 607.0Q528 613 489 613Q486 613 486.0 619.0Q486 625 489 625Q512 625 541.5 623.5Q571 622 605 622Q637 622 667.0 623.5Q697 625 720 625Q723 625 723.0 619.0Q723 613 720 613Q682 613 662.5 607.5Q643 602 636.5 587.5Q630 573 630 544V81Q630 52 636.5 37.0Q643 22 662.5 17.0Q682 12 720 12Q723 12 723.0 6.0Q723 0 720 0Q697 0 667.0 1.0Q637 2 605 2Q571 2 541.5 1.0Q512 0 489 0Q486 0 486.0 6.0Q486 12 489 12Q528 12 547.0 17.0Q566 22 572.0 37.0Q578 52 578 81ZM150 316V335H600V316ZM126 81V544Q126 573 119.5 587.5Q113 602 94.0 607.5Q75 613 37 613Q35 613 35.0 619.0Q35 625 37 625Q61 625 90.5 623.5Q120 622 152 622Q187 622 216.0 623.5Q245 625 268 625Q270 625 270.0 619.0Q270 613 268 613Q230 613 211.0 607.0Q192 601 185.5 586.0Q179 571 179 542V81Q179 52 185.0 37.0Q191 22 210.5 17.0Q230 12 268 12Q270 12 270.0 6.0Q270 0 268 0Q244 0 215.5 1.0Q187 2 152 2Q120 2 90.0 1.0Q60 0 36 0Q34 0 34.0 6.0Q34 12 36 12Q74 12 93.5 17.0Q113 22 119.5 37.0Q126 52 126 81Z"/></g><g transform="translate(72.83 36.00) scale(0.03000 -0.03000)"><path d="M180 -7Q132 -7 104.0 23.5Q76 54 76 115V270Q76 311 70.0 328.5Q64 346 47 346Q32 346 11 336Q7 334 4.5 340.0Q2 346 6 347L111 394Q113 395 115 395Q117 395 120.0 393.0Q123 391 123 388V145Q123 84 144.0 55.5Q165 27 207 27Q248 27 289.0 51.5Q330 76 361 119L366 108Q317 46 272.0 19.5Q227 -7 180 -7ZM389 388V105Q389 71 397.5 55.5Q406 40 426 40Q437 40 450.0 44.0Q463 48 482 55Q487 57 489.0 51.5Q491 46 487 44L375 -8Q373 -9 371 -9Q364 -9 353.5 11.5Q343 32 343 71V270Q343 311 336.5 328.5Q330 346 313 346Q298 346 277 336Q273 334 271.0 340.0Q269 346 273 347L378 394Q380 395 381 395Q383 395 386.0 393.0Q389 391 389 388Z"/></g><g transform="translate(89.13 36.00) scale(0.03000 -0.03000)"><path d="M249 -13Q211 -13 174.0 -1.0Q137 11 101 41L144 123Q144 80 167.5 54.0Q191 28 223.5 17.0Q256 6 282 6Q344 6 379.0 51.0Q414 96 414 182Q414 275 376.0 323.0Q338 371 281 371Q237 371 200.5 342.5Q164 314 132 278L124 285Q145 309 172.0 335.5Q199 362 233.5 380.5Q268 399 311 399Q353 399 389.0 378.5Q425 358 447.5 317.0Q470 276 470 214Q470 138 437.5 87.5Q405 37 354.0 12.0Q303 -13 249 -13ZM42 -4Q38 -5 36.0 -1.0Q34 3 37 6Q67 27 82.0 45.0Q97 63 97 103V599Q97 635 90.0 651.5Q83 668 64 668Q47 668 16 654Q12 652 10.0 658.0Q8 664 12 665L132 724Q135 725 137 725Q139 725 141.5 723.0Q144 721 144 718V44Z"/></g><g transform="translate(114.59 36.00) scale(0.03000 -0.03000)"><path d="M138 504Q138 462 158.5 432.5Q179 403 211.5 381.0Q244 359 280 338Q317 317 351.0 293.5Q385 270 407.5 237.5Q430 205 430 157Q430 111 407.5 72.5Q385 34 340.0 11.0Q295 -12 227 -12Q205 -12 183.5 -9.0Q162 -6 139.5 1.5Q117 9 91 22Q86 25 84.5 29.5Q83 34 82 41L67 171Q66 176 71.5 176.5Q77 177 78 173Q82 143 94.0 113.0Q106 83 126.5 58.0Q147 33 177.5 17.5Q208 2 249 2Q280 2 309.0 13.5Q338 25 356.5 51.0Q375 77 375 122Q375 171 353.5 203.5Q332 236 299.0 259.5Q266 283 229 304Q194 325 161.0 348.0Q128 371 107.5 402.5Q87 434 87 481Q87 533 113.0 567.5Q139 602 180.5 619.0Q222 636 267 636Q293 636 321.5 630.5Q350 625 381 612Q389 609 392.5 604.5Q396 600 396 595L405 489Q405 485 399.5 485.0Q394 485 393 489Q391 511 382.5 534.5Q374 558 357.5 578.0Q341 598 315.5 610.5Q290 623 254 623Q211 623 185.5 605.0Q160 587 149.0 560.0Q138 533 138 504Z"/></g><g transform="translate(130.74 36.00) scale(0.03000 -0.03000)"><path d="M189 -12Q165 -12 143.5 -4.5Q122 3 109.0 20.5Q96 38 96 68V306Q96 331 93.0 342.5Q90 354 79.0 357.5Q68 361 44 361Q41 361 41.0 367.0Q41 373 44 373Q82 373 105.5 394.0Q129 415 129 447Q129 450 136.5 450.0Q144 450 144 447V102Q144 60 164.5 39.5Q185 19 225 19Q252 19 272.5 27.5Q293 36 306 46Q310 48 313.0 43.5Q316 39 312 36Q275 10 247.0 -1.0Q219 -12 189 -12ZM282 338Q243 348 207.5 350.5Q172 353 132 353V374Q171 374 207.5 377.0Q244 380 285 384Q288 384 290.0 377.5Q292 371 292 361Q292 354 289.0 345.5Q286 337 282 338Z"/></g><g transform="translate(142.51 36.00) scale(0.03000 -0.03000)"><path d="M313 -6Q309 -8 305 -8Q293 -8 283.0 13.0Q273 34 273 74V267Q273 329 253.5 353.0Q234 377 205 377Q180 377 163.5 365.5Q147 354 138.5 337.0Q130 320 126 305Q124 295 119.0 281.5Q114 268 94 268Q79 268 71.5 277.0Q64 286 64 296Q64 313 82.0 330.5Q100 348 127.5 363.0Q155 378 185.0 387.0Q215 396 240 396Q281 396 300.0 369.5Q319 343 319 297V108Q319 72 327.5 55.5Q336 39 357 39Q376 39 412 54Q417 56 419.0 50.5Q421 45 416 43ZM136 -7Q99 -7 79.5 13.5Q60 34 60 61Q60 78 68.5 94.0Q77 110 98.5 125.0Q120 140 158 154L283 201L285 188L167 143Q146 135 135.0 125.5Q124 116 120.0 105.5Q116 95 116 84Q116 62 130.5 44.0Q145 26 173 26Q184 26 196.0 29.5Q208 33 225 43L292 82L294 70L219 23Q194 7 175.0 0.0Q156 -7 136 -7Z"/></g><g transform="translate(156.68 36.00) scale(0.03000 -0.03000)"><path d="M189 -12Q165 -12 143.5 -4.5Q122 3 109.0 20.5Q96 38 96 68V306Q96 331 93.0 342.5Q90 354 79.0 357.5Q68 361 44 361Q41 361 41.0 367.0Q41 373 44 373Q82 373 105.5 394.0Q129 415 129 447Q129 450 136.5 450.0Q144 450 144 447V102Q144 60 164.5 39.5Q185 19 225 19Q252 19 272.5 27.5Q293 36 306 46Q310 48 313.0 43.5Q316 39 312 36Q275 10 247.0 -1.0Q219 -12 189 -12ZM282 338Q243 348 207.5 350.5Q172 353 132 353V374Q171 374 207.5 377.0Q244 380 285 384Q288 384 290.0 377.5Q292 371 292 361Q292 354 289.0 345.5Q286 337 282 338Z"/></g><g transform="translate(168.45 36.00) scale(0.03000 -0.03000)"><path d="M96 322Q96 295 109.5 276.5Q123 258 144.5 245.5Q166 233 189 221Q215 209 238.0 194.5Q261 180 276.0 160.0Q291 140 291 108Q291 76 275.0 49.0Q259 22 227.5 5.5Q196 -11 151 -11Q127 -11 104.0 -4.5Q81 2 57 20Q55 22 53.0 25.0Q51 28 51 32L49 104Q49 107 54.5 107.5Q60 108 61 105Q74 71 91.5 49.5Q109 28 131.0 18.0Q153 8 180 8Q215 8 233.5 24.5Q252 41 250 74Q249 103 235.0 121.0Q221 139 200.0 151.0Q179 163 156 174Q131 186 108.5 199.5Q86 213 71.5 234.0Q57 255 57 288Q57 326 77.0 350.5Q97 375 127.5 387.0Q158 399 191 399Q209 399 227.0 395.5Q245 392 262 384Q271 380 271 373Q271 358 270.0 341.0Q269 324 269 304Q269 302 263.0 302.0Q257 302 257 304Q257 327 240.5 344.0Q224 361 200.5 370.0Q177 379 154 379Q127 379 111.5 365.0Q96 351 96 322Z"/></g></g><line x1="198" y1="29" x2="432" y2="29" stroke="#d16ba5" stroke-width="0.75" opacity="0.35"/></svg>