<svg width="405" height="52" viewBox="0 0 405 52" xmlns="http://www.w3.org/2000/svg" role="img" aria-label="Tech Stack"><rect width="405" height="52" fill="#0d1117"/><g fill="#f2b8d4"><g transform="translate(4.00 36.00) scale(0.03000 -0.03000)"><path d="M180 608Q117 608 88.5 578.0Q60 548 49 471Q49 469 43.0 469.0Q37 469 37 471Q39 483 41.5 506.0Q44 529 46.0 555.5Q48 582 49.5 606.5Q51 631 51 647Q51 652 57.0 652.0Q63 652 63 647Q63 637 72.5 632.5Q82 628 94.5 626.5Q107 625 116 625Q202 622 317 622Q388 622 429.5 623.5Q471 625 510 625Q543 625 561.5 629.5Q580 634 585 650Q586 654 591.0 654.0Q596 654 596 650Q595 635 593.0 610.0Q591 585 590.0 557.5Q589 530 588.0 506.5Q587 483 587 471Q587 469 581.0 469.0Q575 469 575 471Q575 548 549.0 578.0Q523 608 454 608Q407 608 383.5 604.5Q360 601 352.5 587.5Q345 574 345 542V81Q345 52 352.0 37.0Q359 22 380.5 17.0Q402 12 446 12Q448 12 448.0 6.0Q448 0 446 0Q420 0 387.5 1.0Q355 2 317 2Q281 2 248.5 1.0Q216 0 189 0Q187 0 187.0 6.0Q187 12 189 12Q232 12 254.0 17.0Q276 22 283.5 37.0Q291 52 291 81V544Q291 576 283.0 589.5Q275 603 251.0 605.5Q227 608 180 608Z"/></g><g transform="translate(24.56 36.00) scale(0.03000 -0.03000)"><path d="M215 -12Q156 -12 116.5 15.5Q77 43 57.0 87.0Q37 131 37 180Q37 241 65.0 289.5Q93 338 140.5 366.5Q188 395 244 395Q301 395 329.0 364.0Q357 333 357 281Q357 268 354.5 262.0Q352 256 345 256H298Q303 318 278.5 346.5Q254 375 212 375Q156 375 125.0 332.5Q94 290 94 216Q94 160 112.0 115.5Q130 71 165.0 45.5Q200 20 250 20Q285 20 307.5 30.5Q330 41 351 54Q353 56 356.5 51.5Q360 47 358 44Q323 14 287.5 1.0Q252 -12 215 -12ZM81 255 80 267 308 271V256Z"/></g><g transform="translate(38.31 36.00) scale(0.03000 -0.03000)"><path d="M230 -12Q162 -12 119.5 17.5Q77 47 57.0 92.5Q37 138 37 185Q37 235 56.0 274.0Q75 313 106.5 340.0Q138 367 176.0 381.0Q214 395 251 395Q279 395 305.0 387.5Q331 380 348.0 367.0Q365 354 365 338Q365 326 357.5 317.5Q350 309 336 309Q322 309 312.0 318.0Q302 327 296 337Q284 354 267.5 364.5Q251 375 219 375Q158 375 126.0 330.5Q94 286 94 214Q94 163 112.0 118.5Q130 74 167.5 46.5Q205 19 265 19Q291 19 318.5 26.5Q346 34 368 54Q371 56 374.5 52.0Q378 48 375 46Q341 15 306.0 1.5Q271 -12 230 -12Z"/></g><g transform="translate(52.12 36.00) scale(0.03000 -0.03000)"><path d="M27 0Q24 0 24.0 6.0Q24 12 27 12Q68 12 80.0 25.0Q92 38 92 81V600Q92 636 85.0 652.5Q78 669 60 669Q44 669 12 654Q8 652 5.5 657.5Q3 663 7 665L130 725Q131 725 131.0 725.0Q131 725 132 725Q135 725 137.0 723.0Q139 721 139 718V81Q139 38 151.0 25.0Q163 12 205 12Q207 12 207.0 6.0Q207 0 205 0Q187 0 164.5 1.0Q142 2 116 2Q91 2 67.5 1.0Q44 0 27 0ZM296 0Q293 0 293.0 6.0Q293 12 296 12Q337 12 349.0 25.0Q361 38 361 81V244Q361 363 267 363Q228 363 188.5 337.5Q149 312 120 269L116 281Q163 343 206.0 369.5Q249 396 294 396Q348 396 378.0 366.5Q408 337 408 275V81Q408 38 420.0 25.0Q432 12 474 12Q476 12 476.0 6.0Q476 0 474 0Q456 0 433.5 1.0Q411 2 385 2Q360 2 336.5 1.0Q313 0 296 0Z"/></g><g transform="translate(77.22 36.00) scale(0.03000 -0.03000)"><path d="M138 504Q138 462 158.5 432.5Q179 403 211.5 381.0Q244 359 280 338Q317 317 351.0 293.5Q385 270 407.5 237.5Q430 205 430 157Q430 111 407.5 72.5Q385 34 340.0 11.0Q295 -12 227 -12Q205 -12 183.5 -9.0Q162 -6 139.5 1.5Q117 9 91 22Q86 25 84.5 29.5Q83 34 82 41L67 171Q66 176 71.5 176.5Q77 177 78 173Q82 143 94.0 113.0Q106 83 126.5 58.0Q147 33 177.5 17.5Q208 2 249 2Q280 2 309.0 13.5Q338 25 356.5 51.0Q375 77 375 122Q375 171 353.5 203.5Q332 236 299.0 259.5Q266 283 229 304Q194 325 161.0 348.0Q128 371 107.5 402.5Q87 434 87 481Q87 533 113.0 567.5Q139 602 180.5 619.0Q222 636 267 636Q293 636 321.5 630.5Q350 625 381 612Q389 609 392.5 604.5Q396 600 396 595L405 489Q405 485 399.5 485.0Q394 485 393 489Q391 511 382.5 534.5Q374 558 357.5 578.0Q341 598 315.5 610.5Q290 623 254 623Q211 623 185.5 605.0Q160 587 149.0 560.0Q138 533 138 504Z"/></g><g transform="translate(93.37 36.00) scale(0.03000 -0.03000)"><path d="M189 -12Q165 -12 143.5 -4.5Q122 3 109.0 20.5Q96 38 96 68V306Q96 331 93.0 342.5Q90 354 79.0 357.5Q68 361 44 361Q41 361 41.0 367.0Q41 373 44 373Q82 373 105.5 394.0Q129 415 129 447Q129 450 136.5 450.0Q144 450 144 447V102Q144 60 164.5 39.5Q185 19 225 19Q252 19 272.5 27.5Q293 36 306 46Q310 48 313.0 43.5Q316 39 312 36Q275 10 247.0 -1.0Q219 -12 189 -12ZM282 338Q243 348 207.5 350.5Q172 353 132 353V374Q171 374 207.5 377.0Q244 380 285 384Q288 384 290.0 377.5Q292 371 292 361Q292 354 289.0 345.5Q286 337 282 338Z"/></g><g transform="translate(105.14 36.00) scale(0.03000 -0.03000)"><path d="M313 -6Q309 -8 305 -8Q293 -8 283.0 13.0Q273 34 273 74V267Q273 329 253.5 353.0Q234 377 205 377Q180 377 163.5 365.5Q147 354 138.5 337.0Q130 320 126 305Q124 295 119.0 281.5Q114 268 94 268Q79 268 71.5 277.0Q64 286 64 296Q64 313 82.0 330.5Q100 348 127.5 363.0Q155 378 185.0 387.0Q215 396 240 396Q281 396 300.0 369.5Q319 343 319 297V108Q319 72 327.5 55.5Q336 39 357 39Q376 39 412 54Q417 56 419.0 50.5Q421 45 416 43ZM136 -7Q99 -7 79.5 13.5Q60 34 60 61Q60 78 68.5 94.0Q77 110 98.5 125.0Q120 140 158 154L283 201L285 188L167 143Q146 135 135.0 125.5Q124 116 120.0 105.5Q116 95 116 84Q116 62 130.5 44.0Q145 26 173 26Q184 26 196.0 29.5Q208 33 225 43L292 82L294 70L219 23Q194 7 175.0 0.0Q156 -7 136 -7Z"/></g><g transform="translate(119.31 36.00) scale(0.03000 -0.03000)"><path d="M230 -12Q162 -12 119.5 17.5Q77 47 57.0 92.5Q37 138 37 185Q37 235 56.0 274.0Q75 313 106.5 340.0Q138 367 176.0 381.0Q214 395 251 395Q279 395 305.0 387.5Q331 380 348.0 367.0Q365 354 365 338Q365 326 357.5 317.5Q350 309 336 309Q322 309 312.0 318.0Q302 327 296 337Q284 354 267.5 364.5Q251 375 219 375Q158 375 126.0 330.5Q94 286 94 214Q94 163 112.0 118.5Q130 74 167.5 46.5Q205 19 265 19Q291 19 318.5 26.5Q346 34 368 54Q371 56 374.5 52.0Q378 48 375 46Q341 15 306.0 1.5Q271 -12 230 -12Z"/></g><g transform="translate(133.12 36.00) scale(0.03000 -0.03000)"><path d="M27 0Q24 0 24.0 6.0Q24 12 27 12Q68 12 80.0 25.0Q92 38 92 81V600Q92 636 85.0 652.5Q78 669 60 669Q44 669 12 654Q8 652 5.5 658.0Q3 664 7 665L127 724Q130 725 132 725Q134 725 136.5 723.0Q139 721 139 718V81Q139 38 151.0 25.0Q163 12 205 12Q207 12 207.0 6.0Q207 0 205 0Q187 0 164.5 1.0Q142 2 116 2Q91 2 67.5 1.0Q44 0 27 0ZM278 0Q276 0 276.0 6.0Q276 12 278 12Q316 12 327.0 21.0Q338 30 322 53L194 230L235 260L363 81Q390 42 420.0 27.0Q450 12 480 12Q482 12 482.0 6.0Q482 0 480 0Q462 0 439.5 1.0Q417 2 391 2Q354 2 327.5 1.0Q301 0 278 0ZM126 172 122 182 284 308Q325 340 316.5 357.0Q308 374 255 374Q252 374 252.0 380.0Q252 386 255 386Q279 386 303.0 385.0Q327 384 367 384Q404 384 426.0 385.0Q448 386 468 386Q470 386 470.0 380.0Q470 374 468 374Q445 374 418.5 367.0Q392 360 363.0 344.5Q334 329 302 305Z"/></g></g><line x1="167" y1="29" x2="401" y2="29" stroke="#d16ba5" stroke-width="0.75" opacity="0.35"/></svg>