<svg width="900" height="160" viewBox="0 0 900 160" xmlns="http://www.w3.org/2000/svg" role="img" aria-label="Sissi"><g fill="#f2b8d4"><g transform="translate(376.10 108.00) scale(0.04688 -0.04688)"><path d="M230 -2Q121 -2 60.5 38.0Q0 78 0 135Q0 179 31.0 198.5Q62 218 93 218Q110 218 126.5 207.0Q143 196 143 172Q143 153 126.0 137.5Q109 122 86 122Q56 122 40 132V127Q40 83 90.5 52.5Q141 22 214 22Q321 22 407.0 75.5Q493 129 566.0 217.0Q639 305 704.5 412.0Q770 519 835 627L855 660Q697 666 572.5 707.5Q448 749 378.5 821.0Q309 893 315 988Q320 1077 379.0 1152.5Q438 1228 536.5 1283.5Q635 1339 759.5 1370.0Q884 1401 1021 1401Q1095 1401 1150.5 1387.0Q1206 1373 1206 1359Q1206 1355 1194 1355Q1187 1355 1180.5 1356.5Q1174 1358 1166 1359Q1134 1367 1100.5 1372.5Q1067 1378 1020 1378Q904 1378 792.5 1348.5Q681 1319 589.5 1265.0Q498 1211 442.5 1136.0Q387 1061 382 969Q378 909 429.5 845.0Q481 781 591.0 736.0Q701 691 871 685Q1110 1061 1310.0 1231.0Q1510 1401 1690 1401Q1750 1401 1785.0 1369.0Q1820 1337 1817 1277Q1813 1200 1749.5 1104.0Q1686 1008 1577.0 916.0Q1468 824 1326.0 756.0Q1184 688 1021 667Q936 536 848.0 415.5Q760 295 664.5 201.0Q569 107 461.5 52.5Q354 -2 230 -2ZM1040 695Q1184 719 1313.0 784.5Q1442 850 1542.0 937.0Q1642 1024 1700.5 1115.0Q1759 1206 1763 1281Q1768 1335 1742.0 1356.0Q1716 1377 1689 1376Q1565 1372 1425.5 1226.0Q1286 1080 1111 805Q1093 777 1075.0 750.0Q1057 723 1040 695Z"/></g><g transform="translate(425.46 108.00) scale(0.04688 -0.04688)"><path d="M567 876Q539 876 522.5 893.5Q506 911 506 938Q506 973 535.5 1002.5Q565 1032 606 1032Q634 1032 650.5 1013.5Q667 995 667 969Q667 932 635.5 904.0Q604 876 567 876ZM56 -2Q-5 -2 -42.5 20.5Q-80 43 -80 81Q-80 111 -65.0 150.5Q-50 190 -7.5 254.0Q35 318 116.5 420.5Q198 523 331 678Q340 677 374.0 676.0Q408 675 427 675Q444 675 452.5 675.5Q461 676 469 677Q323 505 230.5 394.0Q138 283 88.0 217.0Q38 151 19.0 116.0Q0 81 0 60Q0 34 28.0 30.0Q56 26 73 26Q127 26 191.0 62.5Q255 99 318.5 153.5Q382 208 436.5 264.0Q491 320 526.0 360.5Q561 401 567 407L587 389Q576 377 539.0 334.0Q502 291 447.0 234.5Q392 178 326.5 124.0Q261 70 191.5 34.0Q122 -2 56 -2Z"/></g><g transform="translate(446.74 108.00) scale(0.04688 -0.04688)"><path d="M56 -23Q25 -23 -24.0 -15.0Q-73 -7 -111.5 19.0Q-150 45 -150 100Q-150 150 -119.5 182.5Q-89 215 -52.0 231.0Q-15 247 3 247Q44 247 44 209Q43 193 21.5 179.5Q0 166 -26 166Q-38 166 -49.5 174.5Q-61 183 -68 187Q-79 176 -101.5 154.5Q-124 133 -124 99Q-124 61 -93.5 42.5Q-63 24 -25.0 18.5Q13 13 33 13Q75 13 138.0 46.5Q201 80 255.5 159.0Q310 238 326 374Q331 422 335.5 507.0Q340 592 367 670Q368 673 368 679Q330 632 286.0 578.0Q242 524 201.5 474.0Q161 424 132 389Q112 365 103.0 358.0Q94 351 95 351Q94 351 87.5 350.5Q81 350 77 357Q75 362 86.5 376.0Q98 390 111 406Q134 432 182.0 489.0Q230 546 283.5 611.0Q337 676 376 726Q382 756 394.0 780.0Q406 804 428 804Q468 804 468 771Q467 752 422 700Q395 668 393.0 658.5Q391 649 391 634Q390 598 398.5 544.5Q407 491 417.0 432.5Q427 374 430 321Q433 242 412 184Q428 182 439 182Q471 182 512.5 211.0Q554 240 595.0 280.0Q636 320 666.5 356.0Q697 392 707 406L729 389Q712 371 679.0 333.5Q646 296 604.0 255.5Q562 215 518.5 186.5Q475 158 436 158Q427 158 419.0 158.5Q411 159 403 160Q356 56 264.0 16.5Q172 -23 56 -23Z"/></g><g transform="translate(474.68 108.00) scale(0.04688 -0.04688)"><path d="M56 -23Q25 -23 -24.0 -15.0Q-73 -7 -111.5 19.0Q-150 45 -150 100Q-150 150 -119.5 182.5Q-89 215 -52.0 231.0Q-15 247 3 247Q44 247 44 209Q43 193 21.5 179.5Q0 166 -26 166Q-38 166 -49.5 174.5Q-61 183 -68 187Q-79 176 -101.5 154.5Q-124 133 -124 99Q-124 61 -93.5 42.5Q-63 24 -25.0 18.5Q13 13 33 13Q75 13 138.0 46.5Q201 80 255.5 159.0Q310 238 326 374Q331 422 335.5 507.0Q340 592 367 670Q368 673 368 679Q330 632 286.0 578.0Q242 524 201.5 474.0Q161 424 132 389Q112 365 103.0 358.0Q94 351 95 351Q94 351 87.5 350.5Q81 350 77 357Q75 362 86.5 376.0Q98 390 111 406Q134 432 182.0 489.0Q230 546 283.5 611.0Q337 676 376 726Q382 756 394.0 780.0Q406 804 428 804Q468 804 468 771Q467 752 422 700Q395 668 393.0 658.5Q391 649 391 634Q390 598 398.5 544.5Q407 491 417.0 432.5Q427 374 430 321Q433 242 412 184Q428 182 439 182Q471 182 512.5 211.0Q554 240 595.0 280.0Q636 320 666.5 356.0Q697 392 707 406L729 389Q712 371 679.0 333.5Q646 296 604.0 255.5Q562 215 518.5 186.5Q475 158 436 158Q427 158 419.0 158.5Q411 159 403 160Q356 56 264.0 16.5Q172 -23 56 -23Z"/></g><g transform="translate(502.62 108.00) scale(0.04688 -0.04688)"><path d="M567 876Q539 876 522.5 893.5Q506 911 506 938Q506 973 535.5 1002.5Q565 1032 606 1032Q634 1032 650.5 1013.5Q667 995 667 969Q667 932 635.5 904.0Q604 876 567 876ZM56 -2Q-5 -2 -42.5 20.5Q-80 43 -80 81Q-80 111 -65.0 150.5Q-50 190 -7.5 254.0Q35 318 116.5 420.5Q198 523 331 678Q340 677 374.0 676.0Q408 675 427 675Q444 675 452.5 675.5Q461 676 469 677Q323 505 230.5 394.0Q138 283 88.0 217.0Q38 151 19.0 116.0Q0 81 0 60Q0 34 28.0 30.0Q56 26 73 26Q127 26 191.0 62.5Q255 99 318.5 153.5Q382 208 436.5 264.0Q491 320 526.0 360.5Q561 401 567 407L587 389Q576 377 539.0 334.0Q502 291 447.0 234.5Q392 178 326.5 124.0Q261 70 191.5 34.0Q122 -2 56 -2Z"/></g></g><line x1="360.0" y1="138" x2="540.0" y2="138" stroke="#d16ba5" stroke-width="0.75" opacity="0.5"/></svg>