<svg width="900" height="230" viewBox="0 0 900 230" xmlns="http://www.w3.org/2000/svg" role="img" aria-label="Sissi"><rect width="900" height="230" fill="#0d1117"/><g fill="#f2b8d4"><g transform="translate(376.10 118.00) scale(0.04688 -0.04688)"><path d="M230 -2Q121 -2 60.5 38.0Q0 78 0 135Q0 179 31.0 198.5Q62 218 93 218Q110 218 126.5 207.0Q143 196 143 172Q143 153 126.0 137.5Q109 122 86 122Q56 122 40 132V127Q40 83 90.5 52.5Q141 22 214 22Q321 22 407.0 75.5Q493 129 566.0 217.0Q639 305 704.5 412.0Q770 519 835 627L855 660Q697 666 572.5 707.5Q448 749 378.5 821.0Q309 893 315 988Q320 1077 379.0 1152.5Q438 1228 536.5 1283.5Q635 1339 759.5 1370.0Q884 1401 1021 1401Q1095 1401 1150.5 1387.0Q1206 1373 1206 1359Q1206 1355 1194 1355Q1187 1355 1180.5 1356.5Q1174 1358 1166 1359Q1134 1367 1100.5 1372.5Q1067 1378 1020 1378Q904 1378 792.5 1348.5Q681 1319 589.5 1265.0Q498 1211 442.5 1136.0Q387 1061 382 969Q378 909 429.5 845.0Q481 781 591.0 736.0Q701 691 871 685Q1110 1061 1310.0 1231.0Q1510 1401 1690 1401Q1750 1401 1785.0 1369.0Q1820 1337 1817 1277Q1813 1200 1749.5 1104.0Q1686 1008 1577.0 916.0Q1468 824 1326.0 756.0Q1184 688 1021 667Q936 536 848.0 415.5Q760 295 664.5 201.0Q569 107 461.5 52.5Q354 -2 230 -2ZM1040 695Q1184 719 1313.0 784.5Q1442 850 1542.0 937.0Q1642 1024 1700.5 1115.0Q1759 1206 1763 1281Q1768 1335 1742.0 1356.0Q1716 1377 1689 1376Q1565 1372 1425.5 1226.0Q1286 1080 1111 805Q1093 777 1075.0 750.0Q1057 723 1040 695Z"/></g><g transform="translate(425.46 118.00) scale(0.04688 -0.04688)"><path d="M567 876Q539 876 522.5 893.5Q506 911 506 938Q506 973 535.5 1002.5Q565 1032 606 1032Q634 1032 650.5 1013.5Q667 995 667 969Q667 932 635.5 904.0Q604 876 567 876ZM56 -2Q-5 -2 -42.5 20.5Q-80 43 -80 81Q-80 111 -65.0 150.5Q-50 190 -7.5 254.0Q35 318 116.5 420.5Q198 523 331 678Q340 677 374.0 676.0Q408 675 427 675Q444 675 452.5 675.5Q461 676 469 677Q323 505 230.5 394.0Q138 283 88.0 217.0Q38 151 19.0 116.0Q0 81 0 60Q0 34 28.0 30.0Q56 26 73 26Q127 26 191.0 62.5Q255 99 318.5 153.5Q382 208 436.5 264.0Q491 320 526.0 360.5Q561 401 567 407L587 389Q576 377 539.0 334.0Q502 291 447.0 234.5Q392 178 326.5 124.0Q261 70 191.5 34.0Q122 -2 56 -2Z"/></g><g transform="translate(446.74 118.00) scale(0.04688 -0.04688)"><path d="M56 -23Q25 -23 -24.0 -15.0Q-73 -7 -111.5 19.0Q-150 45 -150 100Q-150 150 -119.5 182.5Q-89 215 -52.0 231.0Q-15 247 3 247Q44 247 44 209Q43 193 21.5 179.5Q0 166 -26 166Q-38 166 -49.5 174.5Q-61 183 -68 187Q-79 176 -101.5 154.5Q-124 133 -124 99Q-124 61 -93.5 42.5Q-63 24 -25.0 18.5Q13 13 33 13Q75 13 138.0 46.5Q201 80 255.5 159.0Q310 238 326 374Q331 422 335.5 507.0Q340 592 367 670Q368 673 368 679Q330 632 286.0 578.0Q242 524 201.5 474.0Q161 424 132 389Q112 365 103.0 358.0Q94 351 95 351Q94 351 87.5 350.5Q81 350 77 357Q75 362 86.5 376.0Q98 390 111 406Q134 432 182.0 489.0Q230 546 283.5 611.0Q337 676 376 726Q382 756 394.0 780.0Q406 804 428 804Q468 804 468 771Q467 752 422 700Q395 668 393.0 658.5Q391 649 391 634Q390 598 398.5 544.5Q407 491 417.0 432.5Q427 374 430 321Q433 242 412 184Q428 182 439 182Q471 182 512.5 211.0Q554 240 595.0 280.0Q636 320 666.5 356.0Q697 392 707 406L729 389Q712 371 679.0 333.5Q646 296 604.0 255.5Q562 215 518.5 186.5Q475 158 436 158Q427 158 419.0 158.5Q411 159 403 160Q356 56 264.0 16.5Q172 -23 56 -23Z"/></g><g transform="translate(474.68 118.00) scale(0.04688 -0.04688)"><path d="M56 -23Q25 -23 -24.0 -15.0Q-73 -7 -111.5 19.0Q-150 45 -150 100Q-150 150 -119.5 182.5Q-89 215 -52.0 231.0Q-15 247 3 247Q44 247 44 209Q43 193 21.5 179.5Q0 166 -26 166Q-38 166 -49.5 174.5Q-61 183 -68 187Q-79 176 -101.5 154.5Q-124 133 -124 99Q-124 61 -93.5 42.5Q-63 24 -25.0 18.5Q13 13 33 13Q75 13 138.0 46.5Q201 80 255.5 159.0Q310 238 326 374Q331 422 335.5 507.0Q340 592 367 670Q368 673 368 679Q330 632 286.0 578.0Q242 524 201.5 474.0Q161 424 132 389Q112 365 103.0 358.0Q94 351 95 351Q94 351 87.5 350.5Q81 350 77 357Q75 362 86.5 376.0Q98 390 111 406Q134 432 182.0 489.0Q230 546 283.5 611.0Q337 676 376 726Q382 756 394.0 780.0Q406 804 428 804Q468 804 468 771Q467 752 422 700Q395 668 393.0 658.5Q391 649 391 634Q390 598 398.5 544.5Q407 491 417.0 432.5Q427 374 430 321Q433 242 412 184Q428 182 439 182Q471 182 512.5 211.0Q554 240 595.0 280.0Q636 320 666.5 356.0Q697 392 707 406L729 389Q712 371 679.0 333.5Q646 296 604.0 255.5Q562 215 518.5 186.5Q475 158 436 158Q427 158 419.0 158.5Q411 159 403 160Q356 56 264.0 16.5Q172 -23 56 -23Z"/></g><g transform="translate(502.62 118.00) scale(0.04688 -0.04688)"><path d="M567 876Q539 876 522.5 893.5Q506 911 506 938Q506 973 535.5 1002.5Q565 1032 606 1032Q634 1032 650.5 1013.5Q667 995 667 969Q667 932 635.5 904.0Q604 876 567 876ZM56 -2Q-5 -2 -42.5 20.5Q-80 43 -80 81Q-80 111 -65.0 150.5Q-50 190 -7.5 254.0Q35 318 116.5 420.5Q198 523 331 678Q340 677 374.0 676.0Q408 675 427 675Q444 675 452.5 675.5Q461 676 469 677Q323 505 230.5 394.0Q138 283 88.0 217.0Q38 151 19.0 116.0Q0 81 0 60Q0 34 28.0 30.0Q56 26 73 26Q127 26 191.0 62.5Q255 99 318.5 153.5Q382 208 436.5 264.0Q491 320 526.0 360.5Q561 401 567 407L587 389Q576 377 539.0 334.0Q502 291 447.0 234.5Q392 178 326.5 124.0Q261 70 191.5 34.0Q122 -2 56 -2Z"/></g></g><line x1="360.0" y1="146" x2="540.0" y2="146" stroke="#d16ba5" stroke-width="0.75" opacity="0.5"/><g fill="#8b949e"><g transform="translate(186.77 180.00) scale(0.02100 -0.02100)"><path d="M485 325 354 1Q353 -3 343.5 -3.0Q334 -3 332 1L85 542Q74 568 61.5 583.5Q49 599 34.0 606.0Q19 613 -2 613Q-5 613 -5.0 619.0Q-5 625 -2 625Q12 625 26.5 624.0Q41 623 55.5 622.5Q70 622 83 622Q107 622 127.0 622.5Q147 623 163.5 624.0Q180 625 195 625Q198 625 198.0 619.0Q198 613 195 613Q157 613 140.5 600.5Q124 588 140 552L370 56L336 13L471 345ZM939 625Q942 625 942.0 619.0Q942 613 939 613Q908 613 884.5 600.0Q861 587 843 544L623 1Q622 -3 612.5 -3.0Q603 -3 601 1L354 542Q337 581 318.0 597.0Q299 613 267 613Q264 613 264.0 619.0Q264 625 267 625Q281 625 295.5 624.0Q310 623 324.5 622.5Q339 622 352 622Q378 622 396.0 623.5Q414 625 429 625Q432 625 432.0 619.0Q432 613 429 613Q397 613 393.5 603.0Q390 593 409 552L639 56L605 13L823 550Q837 585 821.5 599.0Q806 613 750 613Q747 613 747.0 619.0Q747 625 750 625Q773 625 794.5 623.5Q816 622 850 622Q879 622 896.5 623.5Q914 625 939 625ZM475 345 558 550Q572 585 563.5 599.0Q555 613 519 613Q517 613 517.0 619.0Q517 625 519 625Q530 625 539.5 624.0Q549 623 560.0 622.5Q571 622 585 622Q613 622 631.0 623.5Q649 625 674 625Q676 625 676.0 619.0Q676 613 674 613Q643 613 619.0 600.0Q595 587 578 544L489 325Z"/></g><g transform="translate(207.82 180.00) scale(0.02100 -0.02100)"><path d="M57 0Q55 0 55.0 6.0Q55 12 57 12Q98 12 110.5 25.0Q123 38 123 81V270Q123 306 116.0 322.5Q109 339 90 339Q81 339 69.5 335.5Q58 332 42 324Q38 323 35.5 328.5Q33 334 37 336L161 394Q164 395 165 395Q167 395 169.5 393.0Q172 391 172 388Q172 381 171.0 349.5Q170 318 170 271V81Q170 38 181.5 25.0Q193 12 235 12Q238 12 238.0 6.0Q238 0 235 0Q218 0 195.0 1.0Q172 2 146 2Q121 2 98.0 1.0Q75 0 57 0ZM138 516Q119 516 108.5 526.0Q98 536 98 554Q98 572 108.5 582.0Q119 592 138 592Q156 592 166.0 582.0Q176 572 176 554Q176 516 138 516Z"/></g><g transform="translate(215.00 180.00) scale(0.02100 -0.02100)"><path d="M139 271 135 281Q172 327 195.5 351.5Q219 376 236.0 385.5Q253 395 269 395Q290 395 310.0 384.0Q330 373 330 357Q330 347 322.5 339.0Q315 331 301 331Q289 331 280.5 338.0Q272 345 262.0 351.5Q252 358 235 358Q226 358 215.5 352.5Q205 347 187.5 328.5Q170 310 139 271ZM46 0Q43 0 43.0 6.0Q43 12 46 12Q87 12 99.0 25.0Q111 38 111 81V281Q111 315 103.0 330.5Q95 346 75 346Q65 346 51.0 342.0Q37 338 19 331Q15 330 12.5 335.0Q10 340 14 342L125 394Q127 395 130 395Q137 395 147.5 374.5Q158 354 158 315V81Q158 52 165.0 37.0Q172 22 193.5 17.0Q215 12 258 12Q261 12 261.0 6.0Q261 0 258 0Q234 0 202.0 1.0Q170 2 135 2Q110 2 86.5 1.0Q63 0 46 0Z"/></g><g transform="translate(223.96 180.00) scale(0.02100 -0.02100)"><path d="M189 -12Q165 -12 143.5 -4.5Q122 3 109.0 20.5Q96 38 96 68V306Q96 331 93.0 342.5Q90 354 79.0 357.5Q68 361 44 361Q41 361 41.0 367.0Q41 373 44 373Q82 373 105.5 394.0Q129 415 129 447Q129 450 136.5 450.0Q144 450 144 447V102Q144 60 164.5 39.5Q185 19 225 19Q252 19 272.5 27.5Q293 36 306 46Q310 48 313.0 43.5Q316 39 312 36Q275 10 247.0 -1.0Q219 -12 189 -12ZM282 338Q243 348 207.5 350.5Q172 353 132 353V374Q171 374 207.5 377.0Q244 380 285 384Q288 384 290.0 377.5Q292 371 292 361Q292 354 289.0 345.5Q286 337 282 338Z"/></g><g transform="translate(232.48 180.00) scale(0.02100 -0.02100)"><path d="M96 322Q96 295 109.5 276.5Q123 258 144.5 245.5Q166 233 189 221Q215 209 238.0 194.5Q261 180 276.0 160.0Q291 140 291 108Q291 76 275.0 49.0Q259 22 227.5 5.5Q196 -11 151 -11Q127 -11 104.0 -4.5Q81 2 57 20Q55 22 53.0 25.0Q51 28 51 32L49 104Q49 107 54.5 107.5Q60 108 61 105Q74 71 91.5 49.5Q109 28 131.0 18.0Q153 8 180 8Q215 8 233.5 24.5Q252 41 250 74Q249 103 235.0 121.0Q221 139 200.0 151.0Q179 163 156 174Q131 186 108.5 199.5Q86 213 71.5 234.0Q57 255 57 288Q57 326 77.0 350.5Q97 375 127.5 387.0Q158 399 191 399Q209 399 227.0 395.5Q245 392 262 384Q271 380 271 373Q271 358 270.0 341.0Q269 324 269 304Q269 302 263.0 302.0Q257 302 257 304Q257 327 240.5 344.0Q224 361 200.5 370.0Q177 379 154 379Q127 379 111.5 365.0Q96 351 96 322Z"/></g><g transform="translate(240.98 180.00) scale(0.02100 -0.02100)"><path d="M230 -12Q162 -12 119.5 17.5Q77 47 57.0 92.5Q37 138 37 185Q37 235 56.0 274.0Q75 313 106.5 340.0Q138 367 176.0 381.0Q214 395 251 395Q279 395 305.0 387.5Q331 380 348.0 367.0Q365 354 365 338Q365 326 357.5 317.5Q350 309 336 309Q322 309 312.0 318.0Q302 327 296 337Q284 354 267.5 364.5Q251 375 219 375Q158 375 126.0 330.5Q94 286 94 214Q94 163 112.0 118.5Q130 74 167.5 46.5Q205 19 265 19Q291 19 318.5 26.5Q346 34 368 54Q371 56 374.5 52.0Q378 48 375 46Q341 15 306.0 1.5Q271 -12 230 -12Z"/></g><g transform="translate(250.92 180.00) scale(0.02100 -0.02100)"><path d="M27 0Q24 0 24.0 6.0Q24 12 27 12Q68 12 80.0 25.0Q92 38 92 81V600Q92 636 85.0 652.5Q78 669 60 669Q44 669 12 654Q8 652 5.5 657.5Q3 663 7 665L130 725Q131 725 131.0 725.0Q131 725 132 725Q135 725 137.0 723.0Q139 721 139 718V81Q139 38 151.0 25.0Q163 12 205 12Q207 12 207.0 6.0Q207 0 205 0Q187 0 164.5 1.0Q142 2 116 2Q91 2 67.5 1.0Q44 0 27 0ZM296 0Q293 0 293.0 6.0Q293 12 296 12Q337 12 349.0 25.0Q361 38 361 81V244Q361 363 267 363Q228 363 188.5 337.5Q149 312 120 269L116 281Q163 343 206.0 369.5Q249 396 294 396Q348 396 378.0 366.5Q408 337 408 275V81Q408 38 420.0 25.0Q432 12 474 12Q476 12 476.0 6.0Q476 0 474 0Q456 0 433.5 1.0Q411 2 385 2Q360 2 336.5 1.0Q313 0 296 0Z"/></g><g transform="translate(262.74 180.00) scale(0.02100 -0.02100)"><path d="M313 -6Q309 -8 305 -8Q293 -8 283.0 13.0Q273 34 273 74V267Q273 329 253.5 353.0Q234 377 205 377Q180 377 163.5 365.5Q147 354 138.5 337.0Q130 320 126 305Q124 295 119.0 281.5Q114 268 94 268Q79 268 71.5 277.0Q64 286 64 296Q64 313 82.0 330.5Q100 348 127.5 363.0Q155 378 185.0 387.0Q215 396 240 396Q281 396 300.0 369.5Q319 343 319 297V108Q319 72 327.5 55.5Q336 39 357 39Q376 39 412 54Q417 56 419.0 50.5Q421 45 416 43ZM136 -7Q99 -7 79.5 13.5Q60 34 60 61Q60 78 68.5 94.0Q77 110 98.5 125.0Q120 140 158 154L283 201L285 188L167 143Q146 135 135.0 125.5Q124 116 120.0 105.5Q116 95 116 84Q116 62 130.5 44.0Q145 26 173 26Q184 26 196.0 29.5Q208 33 225 43L292 82L294 70L219 23Q194 7 175.0 0.0Q156 -7 136 -7Z"/></g><g transform="translate(272.94 180.00) scale(0.02100 -0.02100)"><path d="M33 0Q30 0 30.0 6.0Q30 12 33 12Q77 12 90.5 25.0Q104 38 104 81V306Q104 331 99.5 342.5Q95 354 79.5 357.5Q64 361 29 361Q26 361 26.0 367.0Q26 373 29 373Q73 373 87.5 383.0Q102 393 103 418Q108 584 163.0 655.0Q218 726 319 726Q371 726 403.0 710.5Q435 695 435 675Q435 661 425.5 654.0Q416 647 404 647Q395 647 387.0 651.5Q379 656 368 669Q352 690 332.5 700.0Q313 710 285 710Q227 710 189.5 645.5Q152 581 152 439V81Q152 52 158.5 37.0Q165 22 187.0 17.0Q209 12 253 12Q255 12 255.0 6.0Q255 0 253 0Q220 0 189.5 1.0Q159 2 127 2Q101 2 76.5 1.0Q52 0 33 0ZM282 338Q243 348 207.5 350.5Q172 353 132 353V374Q171 374 207.5 377.0Q244 380 285 384Q288 384 290.0 377.5Q292 371 292 361Q292 354 289.0 345.5Q286 337 282 338Z"/></g><g transform="translate(280.74 180.00) scale(0.02100 -0.02100)"><path d="M189 -12Q165 -12 143.5 -4.5Q122 3 109.0 20.5Q96 38 96 68V306Q96 331 93.0 342.5Q90 354 79.0 357.5Q68 361 44 361Q41 361 41.0 367.0Q41 373 44 373Q82 373 105.5 394.0Q129 415 129 447Q129 450 136.5 450.0Q144 450 144 447V102Q144 60 164.5 39.5Q185 19 225 19Q252 19 272.5 27.5Q293 36 306 46Q310 48 313.0 43.5Q316 39 312 36Q275 10 247.0 -1.0Q219 -12 189 -12ZM282 338Q243 348 207.5 350.5Q172 353 132 353V374Q171 374 207.5 377.0Q244 380 285 384Q288 384 290.0 377.5Q292 371 292 361Q292 354 289.0 345.5Q286 337 282 338Z"/></g><g transform="translate(289.26 180.00) scale(0.02100 -0.02100)"><path d="M96 322Q96 295 109.5 276.5Q123 258 144.5 245.5Q166 233 189 221Q215 209 238.0 194.5Q261 180 276.0 160.0Q291 140 291 108Q291 76 275.0 49.0Q259 22 227.5 5.5Q196 -11 151 -11Q127 -11 104.0 -4.5Q81 2 57 20Q55 22 53.0 25.0Q51 28 51 32L49 104Q49 107 54.5 107.5Q60 108 61 105Q74 71 91.5 49.5Q109 28 131.0 18.0Q153 8 180 8Q215 8 233.5 24.5Q252 41 250 74Q249 103 235.0 121.0Q221 139 200.0 151.0Q179 163 156 174Q131 186 108.5 199.5Q86 213 71.5 234.0Q57 255 57 288Q57 326 77.0 350.5Q97 375 127.5 387.0Q158 399 191 399Q209 399 227.0 395.5Q245 392 262 384Q271 380 271 373Q271 358 270.0 341.0Q269 324 269 304Q269 302 263.0 302.0Q257 302 257 304Q257 327 240.5 344.0Q224 361 200.5 370.0Q177 379 154 379Q127 379 111.5 365.0Q96 351 96 322Z"/></g><g transform="translate(297.76 180.00) scale(0.02100 -0.02100)"><path d="M57 0Q55 0 55.0 6.0Q55 12 57 12Q98 12 110.5 25.0Q123 38 123 81V270Q123 306 116.0 322.5Q109 339 90 339Q81 339 69.5 335.5Q58 332 42 324Q38 323 35.5 328.5Q33 334 37 336L161 394Q164 395 165 395Q167 395 169.5 393.0Q172 391 172 388Q172 381 171.0 349.5Q170 318 170 271V81Q170 38 181.5 25.0Q193 12 235 12Q238 12 238.0 6.0Q238 0 235 0Q218 0 195.0 1.0Q172 2 146 2Q121 2 98.0 1.0Q75 0 57 0ZM138 516Q119 516 108.5 526.0Q98 536 98 554Q98 572 108.5 582.0Q119 592 138 592Q156 592 166.0 582.0Q176 572 176 554Q176 516 138 516Z"/></g><g transform="translate(304.94 180.00) scale(0.02100 -0.02100)"><path d="M315 0Q312 0 312.0 6.0Q312 12 315 12Q356 12 368.0 25.0Q380 38 380 81V248Q380 309 357.0 337.0Q334 365 285 365Q247 365 207.5 340.0Q168 315 139 271L135 283Q182 345 225.0 372.0Q268 399 312 399Q367 399 397.0 369.5Q427 340 427 278V81Q427 38 438.5 25.0Q450 12 492 12Q495 12 495.0 6.0Q495 0 492 0Q475 0 452.0 1.0Q429 2 404 2Q379 2 355.5 1.0Q332 0 315 0ZM46 0Q43 0 43.0 6.0Q43 12 46 12Q87 12 99.0 25.0Q111 38 111 81V281Q111 315 103.0 330.5Q95 346 75 346Q65 346 51.0 342.0Q37 338 19 331Q15 330 12.5 335.0Q10 340 14 342L125 394Q127 395 130 395Q137 395 147.5 374.5Q158 354 158 315V81Q158 38 169.5 25.0Q181 12 223 12Q226 12 226.0 6.0Q226 0 223 0Q206 0 183.0 1.0Q160 2 135 2Q110 2 86.5 1.0Q63 0 46 0Z"/></g><g transform="translate(317.15 180.00) scale(0.02100 -0.02100)"><path d="M33 0Q30 0 30.0 6.0Q30 12 33 12Q77 12 90.5 25.0Q104 38 104 81V306Q104 331 99.5 342.5Q95 354 79.5 357.5Q64 361 29 361Q26 361 26.0 367.0Q26 373 29 373Q73 373 87.5 383.0Q102 393 103 418Q108 584 163.0 655.0Q218 726 319 726Q371 726 403.0 710.5Q435 695 435 675Q435 661 425.5 654.0Q416 647 404 647Q395 647 387.0 651.5Q379 656 368 669Q352 690 332.5 700.0Q313 710 285 710Q227 710 189.5 645.5Q152 581 152 439V81Q152 52 158.5 37.0Q165 22 187.0 17.0Q209 12 253 12Q255 12 255.0 6.0Q255 0 253 0Q220 0 189.5 1.0Q159 2 127 2Q101 2 76.5 1.0Q52 0 33 0ZM282 338Q243 348 207.5 350.5Q172 353 132 353V374Q171 374 207.5 377.0Q244 380 285 384Q288 384 290.0 377.5Q292 371 292 361Q292 354 289.0 345.5Q286 337 282 338Z"/></g><g transform="translate(324.96 180.00) scale(0.02100 -0.02100)"><path d="M230 -13Q171 -13 127.5 16.0Q84 45 60.5 93.5Q37 142 37 198Q37 250 56.0 288.0Q75 326 106.5 350.5Q138 375 175.0 387.0Q212 399 248 399Q308 399 351.0 369.0Q394 339 417.0 292.0Q440 245 440 193Q440 129 411.0 83.0Q382 37 334.5 12.0Q287 -13 230 -13ZM258 5Q314 5 348.0 42.5Q382 80 382 167Q382 228 361.0 276.0Q340 324 302.5 352.0Q265 380 215 380Q158 380 126.0 340.5Q94 301 94 227Q94 168 114.5 117.0Q135 66 172.0 35.5Q209 5 258 5Z"/></g><g transform="translate(336.37 180.00) scale(0.02100 -0.02100)"><path d="M139 271 135 281Q172 327 195.5 351.5Q219 376 236.0 385.5Q253 395 269 395Q290 395 310.0 384.0Q330 373 330 357Q330 347 322.5 339.0Q315 331 301 331Q289 331 280.5 338.0Q272 345 262.0 351.5Q252 358 235 358Q226 358 215.5 352.5Q205 347 187.5 328.5Q170 310 139 271ZM46 0Q43 0 43.0 6.0Q43 12 46 12Q87 12 99.0 25.0Q111 38 111 81V281Q111 315 103.0 330.5Q95 346 75 346Q65 346 51.0 342.0Q37 338 19 331Q15 330 12.5 335.0Q10 340 14 342L125 394Q127 395 130 395Q137 395 147.5 374.5Q158 354 158 315V81Q158 52 165.0 37.0Q172 22 193.5 17.0Q215 12 258 12Q261 12 261.0 6.0Q261 0 258 0Q234 0 202.0 1.0Q170 2 135 2Q110 2 86.5 1.0Q63 0 46 0Z"/></g><g transform="translate(345.33 180.00) scale(0.02100 -0.02100)"><path d="M560 0Q558 0 558.0 6.0Q558 12 560 12Q601 12 613.5 25.0Q626 38 626 81V244Q626 363 537 363Q500 363 462.5 337.5Q425 312 396 269L392 281Q438 343 479.5 369.5Q521 396 564 396Q616 396 644.5 366.5Q673 337 673 275V81Q673 38 684.5 25.0Q696 12 738 12Q741 12 741.0 6.0Q741 0 738 0Q721 0 698.0 1.0Q675 2 649 2Q624 2 601.0 1.0Q578 0 560 0ZM303 0Q300 0 300.0 6.0Q300 12 303 12Q344 12 356.0 25.0Q368 38 368 81V244Q368 363 280 363Q243 363 205.5 337.5Q168 312 139 269L135 281Q180 343 221.5 369.5Q263 396 306 396Q358 396 386.5 366.5Q415 337 415 275V81Q415 38 427.0 25.0Q439 12 481 12Q483 12 483.0 6.0Q483 0 481 0Q463 0 440.5 1.0Q418 2 392 2Q367 2 343.5 1.0Q320 0 303 0ZM46 0Q43 0 43.0 6.0Q43 12 46 12Q87 12 99.0 25.0Q111 38 111 81V281Q111 315 103.0 330.5Q95 346 75 346Q65 346 51.0 342.0Q37 338 19 331Q15 330 12.5 335.0Q10 340 14 342L125 394Q127 395 130 395Q137 395 147.5 374.5Q158 354 158 315V81Q158 38 169.5 25.0Q181 12 223 12Q226 12 226.0 6.0Q226 0 223 0Q206 0 183.0 1.0Q160 2 135 2Q110 2 86.5 1.0Q63 0 46 0Z"/></g><g transform="translate(362.69 180.00) scale(0.02100 -0.02100)"><path d="M313 -6Q309 -8 305 -8Q293 -8 283.0 13.0Q273 34 273 74V267Q273 329 253.5 353.0Q234 377 205 377Q180 377 163.5 365.5Q147 354 138.5 337.0Q130 320 126 305Q124 295 119.0 281.5Q114 268 94 268Q79 268 71.5 277.0Q64 286 64 296Q64 313 82.0 330.5Q100 348 127.5 363.0Q155 378 185.0 387.0Q215 396 240 396Q281 396 300.0 369.5Q319 343 319 297V108Q319 72 327.5 55.5Q336 39 357 39Q376 39 412 54Q417 56 419.0 50.5Q421 45 416 43ZM136 -7Q99 -7 79.5 13.5Q60 34 60 61Q60 78 68.5 94.0Q77 110 98.5 125.0Q120 140 158 154L283 201L285 188L167 143Q146 135 135.0 125.5Q124 116 120.0 105.5Q116 95 116 84Q116 62 130.5 44.0Q145 26 173 26Q184 26 196.0 29.5Q208 33 225 43L292 82L294 70L219 23Q194 7 175.0 0.0Q156 -7 136 -7Z"/></g><g transform="translate(372.89 180.00) scale(0.02100 -0.02100)"><path d="M189 -12Q165 -12 143.5 -4.5Q122 3 109.0 20.5Q96 38 96 68V306Q96 331 93.0 342.5Q90 354 79.0 357.5Q68 361 44 361Q41 361 41.0 367.0Q41 373 44 373Q82 373 105.5 394.0Q129 415 129 447Q129 450 136.5 450.0Q144 450 144 447V102Q144 60 164.5 39.5Q185 19 225 19Q252 19 272.5 27.5Q293 36 306 46Q310 48 313.0 43.5Q316 39 312 36Q275 10 247.0 -1.0Q219 -12 189 -12ZM282 338Q243 348 207.5 350.5Q172 353 132 353V374Q171 374 207.5 377.0Q244 380 285 384Q288 384 290.0 377.5Q292 371 292 361Q292 354 289.0 345.5Q286 337 282 338Z"/></g><g transform="translate(381.41 180.00) scale(0.02100 -0.02100)"><path d="M57 0Q55 0 55.0 6.0Q55 12 57 12Q98 12 110.5 25.0Q123 38 123 81V270Q123 306 116.0 322.5Q109 339 90 339Q81 339 69.5 335.5Q58 332 42 324Q38 323 35.5 328.5Q33 334 37 336L161 394Q164 395 165 395Q167 395 169.5 393.0Q172 391 172 388Q172 381 171.0 349.5Q170 318 170 271V81Q170 38 181.5 25.0Q193 12 235 12Q238 12 238.0 6.0Q238 0 235 0Q218 0 195.0 1.0Q172 2 146 2Q121 2 98.0 1.0Q75 0 57 0ZM138 516Q119 516 108.5 526.0Q98 536 98 554Q98 572 108.5 582.0Q119 592 138 592Q156 592 166.0 582.0Q176 572 176 554Q176 516 138 516Z"/></g><g transform="translate(388.59 180.00) scale(0.02100 -0.02100)"><path d="M27 0Q24 0 24.0 6.0Q24 12 27 12Q68 12 80.0 25.0Q92 38 92 81V600Q92 636 85.0 652.5Q78 669 60 669Q44 669 12 654Q8 652 5.5 658.0Q3 664 7 665L127 724Q130 725 132 725Q134 725 136.5 723.0Q139 721 139 718V81Q139 38 151.0 25.0Q163 12 205 12Q207 12 207.0 6.0Q207 0 205 0Q187 0 164.5 1.0Q142 2 116 2Q91 2 67.5 1.0Q44 0 27 0ZM278 0Q276 0 276.0 6.0Q276 12 278 12Q316 12 327.0 21.0Q338 30 322 53L194 230L235 260L363 81Q390 42 420.0 27.0Q450 12 480 12Q482 12 482.0 6.0Q482 0 480 0Q462 0 439.5 1.0Q417 2 391 2Q354 2 327.5 1.0Q301 0 278 0ZM126 172 122 182 284 308Q325 340 316.5 357.0Q308 374 255 374Q252 374 252.0 380.0Q252 386 255 386Q279 386 303.0 385.0Q327 384 367 384Q404 384 426.0 385.0Q448 386 468 386Q470 386 470.0 380.0Q470 374 468 374Q445 374 418.5 367.0Q392 360 363.0 344.5Q334 329 302 305Z"/></g><g transform="translate(412.92 180.00) scale(0.02100 -0.02100)"><path d="M98 161Q80 161 69.0 171.5Q58 182 58 200Q58 217 69.0 227.0Q80 237 98 237Q117 237 127.0 227.0Q137 217 137 200Q137 182 127.0 171.5Q117 161 98 161Z"/></g><g transform="translate(431.05 180.00) scale(0.02100 -0.02100)"><path d="M457 0H44Q42 0 42.0 6.0Q42 12 44 12Q82 12 101.0 17.0Q120 22 126.5 37.0Q133 52 133 81V544Q133 573 126.5 587.5Q120 602 101.0 607.5Q82 613 44 613Q42 613 42.0 619.0Q42 625 44 625H440Q449 625 449 616L451 495Q451 492 445.5 492.0Q440 492 440 495Q440 547 413.0 576.5Q386 606 342 606H273Q236 606 217.5 601.0Q199 596 192.5 581.5Q186 567 186 538V85Q186 57 192.5 43.0Q199 29 217.5 24.0Q236 19 273 19H365Q405 19 434.0 54.0Q463 89 470 146Q470 149 476.0 148.5Q482 148 482 145Q478 119 475.5 82.5Q473 46 473 15Q473 0 457 0ZM401 235Q401 280 382.0 298.0Q363 316 315 316H161V335H318Q364 335 382.0 350.5Q400 366 400 404Q400 406 406.0 406.0Q412 406 412 404Q412 375 411.5 359.0Q411 343 411 325Q411 303 412.0 281.5Q413 260 413 235Q413 233 407.0 233.0Q401 233 401 235Z"/></g><g transform="translate(443.64 180.00) scale(0.02100 -0.02100)"><path d="M262 0Q259 0 259.0 6.0Q259 12 262 12Q294 12 297.5 19.5Q301 27 285 51L118 303Q90 345 62.5 359.5Q35 374 16 374Q14 374 14.0 380.0Q14 386 16 386Q31 386 47.0 385.0Q63 384 78 384Q111 384 135.0 385.0Q159 386 179 386Q181 386 181.0 380.0Q181 374 179 374Q148 374 144.0 366.5Q140 359 156 335L323 83Q351 41 378.5 26.5Q406 12 425 12Q427 12 427.0 6.0Q427 0 425 0Q410 0 393.5 1.0Q377 2 363 2Q330 2 306.0 1.0Q282 0 262 0ZM15 0Q13 0 13.0 6.0Q13 12 15 12Q39 12 68.5 29.0Q98 46 123 81L207 198L219 189L140 75Q126 55 122.0 40.5Q118 26 131.0 19.0Q144 12 181 12Q184 12 184.0 6.0Q184 0 181 0Q158 0 136.5 1.0Q115 2 81 2Q60 2 47.0 1.0Q34 0 15 0ZM221 193 212 202 285 311Q308 345 304.0 359.5Q300 374 244 374Q242 374 242.0 380.0Q242 386 244 386Q268 386 289.5 385.0Q311 384 345 384Q366 384 379.0 385.0Q392 386 411 386Q413 386 413.0 380.0Q413 374 411 374Q387 374 359.0 358.5Q331 343 303 305Z"/></g><g transform="translate(454.26 180.00) scale(0.02100 -0.02100)"><path d="M33 -275Q30 -275 30.0 -269.0Q30 -263 33 -263Q74 -263 86.0 -250.0Q98 -237 98 -194V278Q98 314 90.0 330.5Q82 347 61 347Q51 347 37.0 343.5Q23 340 6 332Q2 331 -0.5 336.0Q-3 341 1 343L104 392Q108 394 112 394Q126 394 135.5 371.5Q145 349 145 305V-194Q145 -222 152.5 -237.0Q160 -252 182.5 -257.5Q205 -263 248 -263Q250 -263 250.0 -269.0Q250 -275 248 -275Q222 -275 190.0 -274.0Q158 -273 123 -273Q98 -273 74.0 -274.0Q50 -275 33 -275ZM256 -13Q218 -13 188.5 -3.0Q159 7 124 35L133 88Q162 53 197.0 30.0Q232 7 289 7Q342 7 378.5 54.0Q415 101 415 184Q415 273 376.5 319.5Q338 366 282 366Q236 366 201.0 340.0Q166 314 133 278L125 285Q176 344 223.0 371.5Q270 399 318 399Q359 399 393.5 377.5Q428 356 449.0 315.0Q470 274 470 215Q470 155 449.0 112.0Q428 69 394.5 41.5Q361 14 324.5 0.5Q288 -13 256 -13Z"/></g><g transform="translate(466.37 180.00) scale(0.02100 -0.02100)"><path d="M41 0Q38 0 38.0 6.0Q38 12 41 12Q82 12 94.0 25.0Q106 38 106 81V600Q106 636 99.0 652.5Q92 669 74 669Q58 669 26 654Q22 652 19.5 658.0Q17 664 21 665L144 724Q146 725 149 725Q151 725 153.5 723.0Q156 721 156 718V81Q156 39 167.5 25.5Q179 12 221 12Q224 12 224.0 6.0Q224 0 221 0Q204 0 180.5 1.0Q157 2 131 2Q106 2 82.0 1.0Q58 0 41 0Z"/></g><g transform="translate(473.15 180.00) scale(0.02100 -0.02100)"><path d="M313 -6Q309 -8 305 -8Q293 -8 283.0 13.0Q273 34 273 74V267Q273 329 253.5 353.0Q234 377 205 377Q180 377 163.5 365.5Q147 354 138.5 337.0Q130 320 126 305Q124 295 119.0 281.5Q114 268 94 268Q79 268 71.5 277.0Q64 286 64 296Q64 313 82.0 330.5Q100 348 127.5 363.0Q155 378 185.0 387.0Q215 396 240 396Q281 396 300.0 369.5Q319 343 319 297V108Q319 72 327.5 55.5Q336 39 357 39Q376 39 412 54Q417 56 419.0 50.5Q421 45 416 43ZM136 -7Q99 -7 79.5 13.5Q60 34 60 61Q60 78 68.5 94.0Q77 110 98.5 125.0Q120 140 158 154L283 201L285 188L167 143Q146 135 135.0 125.5Q124 116 120.0 105.5Q116 95 116 84Q116 62 130.5 44.0Q145 26 173 26Q184 26 196.0 29.5Q208 33 225 43L292 82L294 70L219 23Q194 7 175.0 0.0Q156 -7 136 -7Z"/></g><g transform="translate(483.34 180.00) scale(0.02100 -0.02100)"><path d="M57 0Q55 0 55.0 6.0Q55 12 57 12Q98 12 110.5 25.0Q123 38 123 81V270Q123 306 116.0 322.5Q109 339 90 339Q81 339 69.5 335.5Q58 332 42 324Q38 323 35.5 328.5Q33 334 37 336L161 394Q164 395 165 395Q167 395 169.5 393.0Q172 391 172 388Q172 381 171.0 349.5Q170 318 170 271V81Q170 38 181.5 25.0Q193 12 235 12Q238 12 238.0 6.0Q238 0 235 0Q218 0 195.0 1.0Q172 2 146 2Q121 2 98.0 1.0Q75 0 57 0ZM138 516Q119 516 108.5 526.0Q98 536 98 554Q98 572 108.5 582.0Q119 592 138 592Q156 592 166.0 582.0Q176 572 176 554Q176 516 138 516Z"/></g><g transform="translate(490.52 180.00) scale(0.02100 -0.02100)"><path d="M315 0Q312 0 312.0 6.0Q312 12 315 12Q356 12 368.0 25.0Q380 38 380 81V248Q380 309 357.0 337.0Q334 365 285 365Q247 365 207.5 340.0Q168 315 139 271L135 283Q182 345 225.0 372.0Q268 399 312 399Q367 399 397.0 369.5Q427 340 427 278V81Q427 38 438.5 25.0Q450 12 492 12Q495 12 495.0 6.0Q495 0 492 0Q475 0 452.0 1.0Q429 2 404 2Q379 2 355.5 1.0Q332 0 315 0ZM46 0Q43 0 43.0 6.0Q43 12 46 12Q87 12 99.0 25.0Q111 38 111 81V281Q111 315 103.0 330.5Q95 346 75 346Q65 346 51.0 342.0Q37 338 19 331Q15 330 12.5 335.0Q10 340 14 342L125 394Q127 395 130 395Q137 395 147.5 374.5Q158 354 158 315V81Q158 38 169.5 25.0Q181 12 223 12Q226 12 226.0 6.0Q226 0 223 0Q206 0 183.0 1.0Q160 2 135 2Q110 2 86.5 1.0Q63 0 46 0Z"/></g><g transform="translate(502.73 180.00) scale(0.02100 -0.02100)"><path d="M313 -6Q309 -8 305 -8Q293 -8 283.0 13.0Q273 34 273 74V267Q273 329 253.5 353.0Q234 377 205 377Q180 377 163.5 365.5Q147 354 138.5 337.0Q130 320 126 305Q124 295 119.0 281.5Q114 268 94 268Q79 268 71.5 277.0Q64 286 64 296Q64 313 82.0 330.5Q100 348 127.5 363.0Q155 378 185.0 387.0Q215 396 240 396Q281 396 300.0 369.5Q319 343 319 297V108Q319 72 327.5 55.5Q336 39 357 39Q376 39 412 54Q417 56 419.0 50.5Q421 45 416 43ZM136 -7Q99 -7 79.5 13.5Q60 34 60 61Q60 78 68.5 94.0Q77 110 98.5 125.0Q120 140 158 154L283 201L285 188L167 143Q146 135 135.0 125.5Q124 116 120.0 105.5Q116 95 116 84Q116 62 130.5 44.0Q145 26 173 26Q184 26 196.0 29.5Q208 33 225 43L292 82L294 70L219 23Q194 7 175.0 0.0Q156 -7 136 -7Z"/></g><g transform="translate(512.93 180.00) scale(0.02100 -0.02100)"><path d="M249 -13Q211 -13 174.0 -1.0Q137 11 101 41L144 123Q144 80 167.5 54.0Q191 28 223.5 17.0Q256 6 282 6Q344 6 379.0 51.0Q414 96 414 182Q414 275 376.0 323.0Q338 371 281 371Q237 371 200.5 342.5Q164 314 132 278L124 285Q145 309 172.0 335.5Q199 362 233.5 380.5Q268 399 311 399Q353 399 389.0 378.5Q425 358 447.5 317.0Q470 276 470 214Q470 138 437.5 87.5Q405 37 354.0 12.0Q303 -13 249 -13ZM42 -4Q38 -5 36.0 -1.0Q34 3 37 6Q67 27 82.0 45.0Q97 63 97 103V599Q97 635 90.0 651.5Q83 668 64 668Q47 668 16 654Q12 652 10.0 658.0Q8 664 12 665L132 724Q135 725 137 725Q139 725 141.5 723.0Q144 721 144 718V44Z"/></g><g transform="translate(525.00 180.00) scale(0.02100 -0.02100)"><path d="M41 0Q38 0 38.0 6.0Q38 12 41 12Q82 12 94.0 25.0Q106 38 106 81V600Q106 636 99.0 652.5Q92 669 74 669Q58 669 26 654Q22 652 19.5 658.0Q17 664 21 665L144 724Q146 725 149 725Q151 725 153.5 723.0Q156 721 156 718V81Q156 39 167.5 25.5Q179 12 221 12Q224 12 224.0 6.0Q224 0 221 0Q204 0 180.5 1.0Q157 2 131 2Q106 2 82.0 1.0Q58 0 41 0Z"/></g><g transform="translate(531.78 180.00) scale(0.02100 -0.02100)"><path d="M215 -12Q156 -12 116.5 15.5Q77 43 57.0 87.0Q37 131 37 180Q37 241 65.0 289.5Q93 338 140.5 366.5Q188 395 244 395Q301 395 329.0 364.0Q357 333 357 281Q357 268 354.5 262.0Q352 256 345 256H298Q303 318 278.5 346.5Q254 375 212 375Q156 375 125.0 332.5Q94 290 94 216Q94 160 112.0 115.5Q130 71 165.0 45.5Q200 20 250 20Q285 20 307.5 30.5Q330 41 351 54Q353 56 356.5 51.5Q360 47 358 44Q323 14 287.5 1.0Q252 -12 215 -12ZM81 255 80 267 308 271V256Z"/></g><g transform="translate(548.00 180.00) scale(0.02100 -0.02100)"><path d="M200 287 209 305H468L475 287ZM694 12Q698 12 698.0 6.0Q698 0 694 0Q666 0 636.5 2.0Q607 4 580 4Q549 4 526.5 2.0Q504 0 477 0Q473 0 473.0 6.0Q473 12 477 12Q533 12 547.5 27.0Q562 42 543 84L317 570L336 587L143 123Q118 62 139.0 37.0Q160 12 228 12Q233 12 233.0 6.0Q233 0 228 0Q198 0 173.0 2.0Q148 4 110 4Q75 4 53.5 2.0Q32 0 2 0Q-2 0 -2.0 6.0Q-2 12 2 12Q29 12 49.0 22.0Q69 32 86.5 58.0Q104 84 124 132L333 635Q335 638 339.5 638.0Q344 638 345 635L577 137Q600 87 618.0 59.5Q636 32 654.0 22.0Q672 12 694 12Z"/></g><g transform="translate(564.05 180.00) scale(0.02100 -0.02100)"><path d="M192 81Q192 52 198.0 37.0Q204 22 223.5 17.0Q243 12 281 12Q283 12 283.0 6.0Q283 0 281 0Q257 0 228.0 1.0Q199 2 164 2Q131 2 101.5 1.0Q72 0 48 0Q45 0 45.0 6.0Q45 12 48 12Q86 12 105.5 17.0Q125 22 131.5 37.0Q138 52 138 81V544Q138 573 131.5 587.5Q125 602 105.5 607.5Q86 613 48 613Q45 613 45.0 619.0Q45 625 48 625Q72 625 101.5 623.5Q131 622 164 622Q199 622 228.5 623.5Q258 625 281 625Q283 625 283.0 619.0Q283 613 281 613Q243 613 224.0 607.0Q205 601 198.5 586.0Q192 571 192 542Z"/></g><g transform="translate(585.01 180.00) scale(0.02100 -0.02100)"><path d="M98 161Q80 161 69.0 171.5Q58 182 58 200Q58 217 69.0 227.0Q80 237 98 237Q117 237 127.0 227.0Q137 217 137 200Q137 182 127.0 171.5Q117 161 98 161Z"/></g><g transform="translate(603.14 180.00) scale(0.02100 -0.02100)"><path d="M560 0Q543 0 504.0 39.0Q465 78 410.0 150.5Q355 223 287 322L335 337Q421 216 481.0 144.5Q541 73 587.0 42.5Q633 12 676 12Q679 12 679.0 6.0Q679 0 676 0Q631 0 602.5 0.0Q574 0 560 0ZM299 628Q376 628 416.5 591.0Q457 554 457 495Q457 442 426.0 399.0Q395 356 343.5 331.0Q292 306 230 306Q221 306 209.0 307.0Q197 308 187 309V81Q187 52 193.0 37.0Q199 22 218.5 17.0Q238 12 276 12Q279 12 279.0 6.0Q279 0 276 0Q252 0 223.5 1.0Q195 2 160 2Q128 2 98.0 1.0Q68 0 44 0Q42 0 42.0 6.0Q42 12 44 12Q82 12 101.5 17.0Q121 22 128.0 37.0Q135 52 135 81V544Q135 573 128.5 587.5Q122 602 103.0 607.5Q84 613 46 613Q43 613 43.0 619.0Q43 625 46 625Q69 625 98.5 623.5Q128 622 160 622Q191 622 232.0 625.0Q273 628 299 628ZM401 468Q401 522 383.5 554.0Q366 586 333.5 600.5Q301 615 255 615Q219 615 203.0 602.0Q187 589 187 542V332Q201 331 217.5 330.0Q234 329 247 329Q333 329 367.0 365.0Q401 401 401 468Z"/></g><g transform="translate(618.54 180.00) scale(0.02100 -0.02100)"><path d="M215 -12Q156 -12 116.5 15.5Q77 43 57.0 87.0Q37 131 37 180Q37 241 65.0 289.5Q93 338 140.5 366.5Q188 395 244 395Q301 395 329.0 364.0Q357 333 357 281Q357 268 354.5 262.0Q352 256 345 256H298Q303 318 278.5 346.5Q254 375 212 375Q156 375 125.0 332.5Q94 290 94 216Q94 160 112.0 115.5Q130 71 165.0 45.5Q200 20 250 20Q285 20 307.5 30.5Q330 41 351 54Q353 56 356.5 51.5Q360 47 358 44Q323 14 287.5 1.0Q252 -12 215 -12ZM81 255 80 267 308 271V256Z"/></g><g transform="translate(628.45 180.00) scale(0.02100 -0.02100)"><path d="M179 -280Q109 -280 71.5 -248.5Q34 -217 34 -171Q34 -119 77.5 -73.5Q121 -28 195 14L206 1Q173 -15 145.0 -33.5Q117 -52 100.0 -77.5Q83 -103 83 -142Q83 -174 97.5 -198.5Q112 -223 141.5 -236.5Q171 -250 216 -250Q289 -250 336.5 -213.0Q384 -176 384 -112Q384 -71 363.5 -53.0Q343 -35 307.0 -30.5Q271 -26 223 -26Q177 -26 139.5 -22.5Q102 -19 80.0 -4.0Q58 11 58 44Q58 78 79.0 101.5Q100 125 136 156L147 146Q122 125 112.0 108.5Q102 92 102 74Q102 54 115.5 42.0Q129 30 162.0 24.5Q195 19 253 19Q275 19 304.0 18.0Q333 17 361.0 9.0Q389 1 407.5 -20.0Q426 -41 426 -81Q426 -122 405.5 -158.0Q385 -194 350.0 -221.5Q315 -249 270.5 -264.5Q226 -280 179 -280ZM211 133Q163 133 129.5 150.5Q96 168 78.0 197.5Q60 227 60 262Q60 298 78.5 327.5Q97 357 132.0 375.0Q167 393 216 393Q271 393 303.5 373.0Q336 353 350.0 323.0Q364 293 364 264Q364 231 346.5 201.0Q329 171 295.0 152.0Q261 133 211 133ZM229 147Q264 147 287.0 169.5Q310 192 310 244Q310 286 294.5 316.0Q279 346 253.0 362.5Q227 379 194 379Q159 379 136.0 357.5Q113 336 113 284Q113 236 131.0 205.5Q149 175 175.5 161.0Q202 147 229 147ZM301 319V353Q332 371 361.0 382.5Q390 394 425 394Q427 394 428.5 387.0Q430 380 430 373Q430 363 427.5 351.5Q425 340 421 342Q414 345 397.0 350.5Q380 356 356 356Q343 356 332.0 354.0Q321 352 310 349Z"/></g><g transform="translate(639.17 180.00) scale(0.02100 -0.02100)"><path d="M215 -12Q156 -12 116.5 15.5Q77 43 57.0 87.0Q37 131 37 180Q37 241 65.0 289.5Q93 338 140.5 366.5Q188 395 244 395Q301 395 329.0 364.0Q357 333 357 281Q357 268 354.5 262.0Q352 256 345 256H298Q303 318 278.5 346.5Q254 375 212 375Q156 375 125.0 332.5Q94 290 94 216Q94 160 112.0 115.5Q130 71 165.0 45.5Q200 20 250 20Q285 20 307.5 30.5Q330 41 351 54Q353 56 356.5 51.5Q360 47 358 44Q323 14 287.5 1.0Q252 -12 215 -12ZM81 255 80 267 308 271V256Z"/></g><g transform="translate(649.08 180.00) scale(0.02100 -0.02100)"><path d="M315 0Q312 0 312.0 6.0Q312 12 315 12Q356 12 368.0 25.0Q380 38 380 81V248Q380 309 357.0 337.0Q334 365 285 365Q247 365 207.5 340.0Q168 315 139 271L135 283Q182 345 225.0 372.0Q268 399 312 399Q367 399 397.0 369.5Q427 340 427 278V81Q427 38 438.5 25.0Q450 12 492 12Q495 12 495.0 6.0Q495 0 492 0Q475 0 452.0 1.0Q429 2 404 2Q379 2 355.5 1.0Q332 0 315 0ZM46 0Q43 0 43.0 6.0Q43 12 46 12Q87 12 99.0 25.0Q111 38 111 81V281Q111 315 103.0 330.5Q95 346 75 346Q65 346 51.0 342.0Q37 338 19 331Q15 330 12.5 335.0Q10 340 14 342L125 394Q127 395 130 395Q137 395 147.5 374.5Q158 354 158 315V81Q158 38 169.5 25.0Q181 12 223 12Q226 12 226.0 6.0Q226 0 223 0Q206 0 183.0 1.0Q160 2 135 2Q110 2 86.5 1.0Q63 0 46 0Z"/></g><g transform="translate(661.29 180.00) scale(0.02100 -0.02100)"><path d="M96 322Q96 295 109.5 276.5Q123 258 144.5 245.5Q166 233 189 221Q215 209 238.0 194.5Q261 180 276.0 160.0Q291 140 291 108Q291 76 275.0 49.0Q259 22 227.5 5.5Q196 -11 151 -11Q127 -11 104.0 -4.5Q81 2 57 20Q55 22 53.0 25.0Q51 28 51 32L49 104Q49 107 54.5 107.5Q60 108 61 105Q74 71 91.5 49.5Q109 28 131.0 18.0Q153 8 180 8Q215 8 233.5 24.5Q252 41 250 74Q249 103 235.0 121.0Q221 139 200.0 151.0Q179 163 156 174Q131 186 108.5 199.5Q86 213 71.5 234.0Q57 255 57 288Q57 326 77.0 350.5Q97 375 127.5 387.0Q158 399 191 399Q209 399 227.0 395.5Q245 392 262 384Q271 380 271 373Q271 358 270.0 341.0Q269 324 269 304Q269 302 263.0 302.0Q257 302 257 304Q257 327 240.5 344.0Q224 361 200.5 370.0Q177 379 154 379Q127 379 111.5 365.0Q96 351 96 322Z"/></g><g transform="translate(669.79 180.00) scale(0.02100 -0.02100)"><path d="M249 -13Q211 -13 174.0 -1.0Q137 11 101 41L144 123Q144 80 167.5 54.0Q191 28 223.5 17.0Q256 6 282 6Q344 6 379.0 51.0Q414 96 414 182Q414 275 376.0 323.0Q338 371 281 371Q237 371 200.5 342.5Q164 314 132 278L124 285Q145 309 172.0 335.5Q199 362 233.5 380.5Q268 399 311 399Q353 399 389.0 378.5Q425 358 447.5 317.0Q470 276 470 214Q470 138 437.5 87.5Q405 37 354.0 12.0Q303 -13 249 -13ZM42 -4Q38 -5 36.0 -1.0Q34 3 37 6Q67 27 82.0 45.0Q97 63 97 103V599Q97 635 90.0 651.5Q83 668 64 668Q47 668 16 654Q12 652 10.0 658.0Q8 664 12 665L132 724Q135 725 137 725Q139 725 141.5 723.0Q144 721 144 718V44Z"/></g><g transform="translate(681.86 180.00) scale(0.02100 -0.02100)"><path d="M180 -7Q132 -7 104.0 23.5Q76 54 76 115V270Q76 311 70.0 328.5Q64 346 47 346Q32 346 11 336Q7 334 4.5 340.0Q2 346 6 347L111 394Q113 395 115 395Q117 395 120.0 393.0Q123 391 123 388V145Q123 84 144.0 55.5Q165 27 207 27Q248 27 289.0 51.5Q330 76 361 119L366 108Q317 46 272.0 19.5Q227 -7 180 -7ZM389 388V105Q389 71 397.5 55.5Q406 40 426 40Q437 40 450.0 44.0Q463 48 482 55Q487 57 489.0 51.5Q491 46 487 44L375 -8Q373 -9 371 -9Q364 -9 353.5 11.5Q343 32 343 71V270Q343 311 336.5 328.5Q330 346 313 346Q298 346 277 336Q273 334 271.0 340.0Q269 346 273 347L378 394Q380 395 381 395Q383 395 386.0 393.0Q389 391 389 388Z"/></g><g transform="translate(693.55 180.00) scale(0.02100 -0.02100)"><path d="M139 271 135 281Q172 327 195.5 351.5Q219 376 236.0 385.5Q253 395 269 395Q290 395 310.0 384.0Q330 373 330 357Q330 347 322.5 339.0Q315 331 301 331Q289 331 280.5 338.0Q272 345 262.0 351.5Q252 358 235 358Q226 358 215.5 352.5Q205 347 187.5 328.5Q170 310 139 271ZM46 0Q43 0 43.0 6.0Q43 12 46 12Q87 12 99.0 25.0Q111 38 111 81V281Q111 315 103.0 330.5Q95 346 75 346Q65 346 51.0 342.0Q37 338 19 331Q15 330 12.5 335.0Q10 340 14 342L125 394Q127 395 130 395Q137 395 147.5 374.5Q158 354 158 315V81Q158 52 165.0 37.0Q172 22 193.5 17.0Q215 12 258 12Q261 12 261.0 6.0Q261 0 258 0Q234 0 202.0 1.0Q170 2 135 2Q110 2 86.5 1.0Q63 0 46 0Z"/></g><g transform="translate(702.51 180.00) scale(0.02100 -0.02100)"><path d="M179 -280Q109 -280 71.5 -248.5Q34 -217 34 -171Q34 -119 77.5 -73.5Q121 -28 195 14L206 1Q173 -15 145.0 -33.5Q117 -52 100.0 -77.5Q83 -103 83 -142Q83 -174 97.5 -198.5Q112 -223 141.5 -236.5Q171 -250 216 -250Q289 -250 336.5 -213.0Q384 -176 384 -112Q384 -71 363.5 -53.0Q343 -35 307.0 -30.5Q271 -26 223 -26Q177 -26 139.5 -22.5Q102 -19 80.0 -4.0Q58 11 58 44Q58 78 79.0 101.5Q100 125 136 156L147 146Q122 125 112.0 108.5Q102 92 102 74Q102 54 115.5 42.0Q129 30 162.0 24.5Q195 19 253 19Q275 19 304.0 18.0Q333 17 361.0 9.0Q389 1 407.5 -20.0Q426 -41 426 -81Q426 -122 405.5 -158.0Q385 -194 350.0 -221.5Q315 -249 270.5 -264.5Q226 -280 179 -280ZM211 133Q163 133 129.5 150.5Q96 168 78.0 197.5Q60 227 60 262Q60 298 78.5 327.5Q97 357 132.0 375.0Q167 393 216 393Q271 393 303.5 373.0Q336 353 350.0 323.0Q364 293 364 264Q364 231 346.5 201.0Q329 171 295.0 152.0Q261 133 211 133ZM229 147Q264 147 287.0 169.5Q310 192 310 244Q310 286 294.5 316.0Q279 346 253.0 362.5Q227 379 194 379Q159 379 136.0 357.5Q113 336 113 284Q113 236 131.0 205.5Q149 175 175.5 161.0Q202 147 229 147ZM301 319V353Q332 371 361.0 382.5Q390 394 425 394Q427 394 428.5 387.0Q430 380 430 373Q430 363 427.5 351.5Q425 340 421 342Q414 345 397.0 350.5Q380 356 356 356Q343 356 332.0 354.0Q321 352 310 349Z"/></g></g></svg>