<svg width="500" height="205" viewBox="0 0 500 205" xmlns="http://www.w3.org/2000/svg" role="img" aria-label="GitHub stats"><rect width="500" height="205" rx="10" fill="#0d1117"/><circle cx="96" cy="118" r="50" stroke="#21262d" stroke-width="8" fill="none"/><circle cx="96" cy="118" r="50" stroke="#d16ba5" stroke-width="8" fill="none" stroke-linecap="round" stroke-dasharray="90.1 314.2" transform="rotate(-90 96 118)"/><g fill="#ffffff"><g transform="translate(57.29 128.00) scale(0.04600 -0.04600)"><path d="M132.19970703125 305Q132.19970703125 334 126.56376185042134 349.0Q120.9278166695927 364 103.08065693030197 369.0Q85.23349719101124 374 48.599853515625 374Q46.04986572265625 374 46.04986572265625 380.0Q46.04986572265625 386 48.599853515625 386Q72.94989013671875 386 102.57492065429688 385.0Q132.199951171875 384 165.77499389648438 384Q199.35003662109375 384 229.76513524802334 385.0Q260.18023387495293 386 283.25375697124434 386Q286.400146484375 386 286.400146484375 380.0Q286.400146484375 374 283.53861177884613 374Q249.2001953125 374 231.0247595445165 369.0Q212.84932377653303 364 206.3248083726415 349.0Q199.80029296875 334 199.80029296875 305V81Q199.80029296875 52 205.3767520680147 37.0Q210.95321116727942 22 229.0767032398897 17.0Q247.2001953125 12 283.400146484375 12Q286.400146484375 12 286.400146484375 6.0Q286.400146484375 0 283.400146484375 0Q260.05010986328125 0 229.92507934570312 1.0Q199.800048828125 2 165.97142779637898 2Q133.199951171875 2 103.07492065429688 1.0Q72.94989013671875 0 48.599853515625 0Q46.04986572265625 0 46.04986572265625 6.0Q46.04986572265625 12 48.599853515625 12Q83.35484879740169 12 101.20200853669242 17.0Q119.04916827598315 22 125.62443765361658 37.0Q132.19970703125 52 132.19970703125 81Z"/></g><g transform="translate(72.56 128.00) scale(0.04600 -0.04600)"><path d="M30.7000732421875 8Q26.7000732421875 8 23.2000732421875 12.0Q19.7000732421875 16 23.7000732421875 20L321.05035400390625 396Q323.05035400390625 399 329.55035400390625 398.0Q336.05035400390625 397 336.05035400390625 392V-147.64971923828125Q336.05035400390625 -158.19970703125 328.05035400390625 -161.64971923828125L274.8997802734375 -188Q265.8997802734375 -193 265.8997802734375 -182V303.84942626953125L312.45050048828125 338L78.000244140625 46.25006103515625Q75.000244140625 42.800048828125 77.000244140625 41.025054931640625Q79.000244140625 39.25006103515625 83.000244140625 39.25006103515625Q139.2001953125 39.25006103515625 183.02517700195312 39.75006103515625Q226.85015869140625 40.25006103515625 263.85015869140625 41.025054931640625Q300.85015869140625 41.800048828125 337.400146484375 43.025054931640625Q373.95013427734375 44.25006103515625 415.60009765625 45.25006103515625Q418.60009765625 45.25006103515625 419.3750915527344 34.300048828125Q420.15008544921875 23.35003662109375 418.9250793457031 12.175018310546875Q417.7000732421875 1 414.7000732421875 1Q375.60009765625 3 336.65008544921875 4.5Q297.7000732421875 6 253.800048828125 6.5Q209.9000244140625 7 155.4000244140625 7.5Q100.9000244140625 8 30.7000732421875 8Z"/></g><g transform="translate(93.40 128.00) scale(0.04600 -0.04600)"><path d="M78 196Q177.79008545822762 196 238.37692305786584 172.0Q298.96376065750405 148 326.4569474674239 106.0Q353.95013427734375 64 353.95013427734375 9Q353.95013427734375 -48 324.4499464932219 -94.5Q294.9497587091001 -141 232.38901564966926 -184.5Q169.82827259023847 -228 68.10348712774935 -275Q64.03449570924978 -276 61.01724785462489 -271.0Q58 -266 62 -264Q145.83678933848506 -221 192.4127834154212 -178.5Q238.98877749235734 -136 257.6191751231318 -93.5Q276.24957275390625 -51 276.24957275390625 -8Q276.24957275390625 74 223.07467651367188 120.5Q169.8997802734375 167 68 167Q56 167 58 179L90 357Q91 364 93.0 365.5Q95 367 103 368Q189 378 237.0 384.5Q285 391 307.0 395.5Q329 400 335.5 406.5Q342 413 345 423Q346 426 351.5 425.5Q357 425 356 421L336 335.84942626953125Q332.45001220703125 323.2994384765625 326.33750915527344 320.5744323730469Q320.2250061035156 317.84942626953125 308 317.84942626953125L118.5830769258387 313.9441656815378Q105.55439967735141 313.9441656815378 103.54998779296875 299.2994384765625L81.15008544921875 174.25006103515625Z"/></g><g transform="translate(112.22 128.00) scale(0.04600 -0.04600)"><path d="M283.35028076171875 344.400146484375Q306.45001220703125 369.95013427734375 318.89990234375 396.2751159667969Q331.34979248046875 422.60009765625 331.34979248046875 453Q331.34979248046875 499.64996337890625 305.2748718261719 527.9749450683594Q279.199951171875 556.2999267578125 240.95013427734375 556.2999267578125Q209.1002197265625 556.2999267578125 187.92532348632812 537.2499389648438Q166.75042724609375 518.199951171875 166.75042724609375 485.25006103515625Q166.75042724609375 453.7000732421875 185.75042724609375 429.25006103515625Q204.75042724609375 404.800048828125 235.3004150390625 385.4000244140625Q265.85040283203125 366 299.400390625 346.0999755859375Q338.15032958984375 324.64996337890625 374.1252746582031 300.4249572753906Q410.1002197265625 276.199951171875 433.25018310546875 243.14996337890625Q456.400146484375 210.0999755859375 456.400146484375 162.35003662109375Q456.400146484375 111.45001220703125 427.0001220703125 71.72500610351562Q397.60009765625 32 348.75006103515625 9.5Q299.9000244140625 -13 241.54998779296875 -13Q181.199951171875 -13 136.57492065429688 10.0Q91.94989013671875 33 67.77487182617188 70.22500610351562Q43.599853515625 107.45001220703125 43.599853515625 150.800048828125Q43.599853515625 197.199951171875 67.84979248046875 237.67489624023438Q92.0997314453125 278.14984130859375 132.14971923828125 308.9248352050781Q172.19970703125 339.6998291015625 218.04986572265625 355.04986572265625L224.04986572265625 346.599853515625Q175.85015869140625 322.94989013671875 148.30029296875 278.0249328613281Q120.75042724609375 233.0999755859375 120.75042724609375 177.25006103515625Q120.75042724609375 132.800048828125 139.72537231445312 93.800048828125Q158.7003173828125 54.800048828125 192.1002197265625 30.525054931640625Q225.5001220703125 6.25006103515625 269.0999755859375 6.25006103515625Q304.2999267578125 6.25006103515625 331.14984130859375 21.925079345703125Q357.999755859375 37.60009765625 373.0246887207031 65.2000732421875Q388.04962158203125 92.800048828125 388.04962158203125 128.39990234375Q388.04962158203125 174.999755859375 365.1246643066406 206.34967041015625Q342.19970703125 237.6995849609375 306.8997802734375 260.5245666503906Q271.599853515625 283.34954833984375 233.84991455078125 303.799560546875Q200.2999267578125 323.6995849609375 170.02493286132812 344.2246398925781Q139.74993896484375 364.74969482421875 120.52493286132812 390.94976806640625Q101.2999267578125 417.14984130859375 101.2999267578125 452.39990234375Q101.2999267578125 495.0999755859375 126.52493286132812 521.7749938964844Q151.74993896484375 548.4500122070312 188.47494506835938 561.2250061035156Q225.199951171875 574 258.64996337890625 574Q302.25006103515625 574 333.2751159667969 558.0Q364.3001708984375 542 380.7001953125 518.0Q397.1002197265625 494 397.1002197265625 469.45001220703125Q397.1002197265625 436.25006103515625 369.000244140625 400.5750427246094Q340.9002685546875 364.9000244140625 288.80029296875 338.400146484375Z"/></g></g><g fill="#8b949e"><g transform="translate(52.24 182.00) scale(0.01500 -0.01500)"><path d="M230 -12Q162 -12 119.5 17.5Q77 47 57.0 92.5Q37 138 37 185Q37 235 56.0 274.0Q75 313 106.5 340.0Q138 367 176.0 381.0Q214 395 251 395Q279 395 305.0 387.5Q331 380 348.0 367.0Q365 354 365 338Q365 326 357.5 317.5Q350 309 336 309Q322 309 312.0 318.0Q302 327 296 337Q284 354 267.5 364.5Q251 375 219 375Q158 375 126.0 330.5Q94 286 94 214Q94 163 112.0 118.5Q130 74 167.5 46.5Q205 19 265 19Q291 19 318.5 26.5Q346 34 368 54Q371 56 374.5 52.0Q378 48 375 46Q341 15 306.0 1.5Q271 -12 230 -12Z"/></g><g transform="translate(58.94 182.00) scale(0.01500 -0.01500)"><path d="M230 -13Q171 -13 127.5 16.0Q84 45 60.5 93.5Q37 142 37 198Q37 250 56.0 288.0Q75 326 106.5 350.5Q138 375 175.0 387.0Q212 399 248 399Q308 399 351.0 369.0Q394 339 417.0 292.0Q440 245 440 193Q440 129 411.0 83.0Q382 37 334.5 12.0Q287 -13 230 -13ZM258 5Q314 5 348.0 42.5Q382 80 382 167Q382 228 361.0 276.0Q340 324 302.5 352.0Q265 380 215 380Q158 380 126.0 340.5Q94 301 94 227Q94 168 114.5 117.0Q135 66 172.0 35.5Q209 5 258 5Z"/></g><g transform="translate(66.70 182.00) scale(0.01500 -0.01500)"><path d="M315 0Q312 0 312.0 6.0Q312 12 315 12Q356 12 368.0 25.0Q380 38 380 81V248Q380 309 357.0 337.0Q334 365 285 365Q247 365 207.5 340.0Q168 315 139 271L135 283Q182 345 225.0 372.0Q268 399 312 399Q367 399 397.0 369.5Q427 340 427 278V81Q427 38 438.5 25.0Q450 12 492 12Q495 12 495.0 6.0Q495 0 492 0Q475 0 452.0 1.0Q429 2 404 2Q379 2 355.5 1.0Q332 0 315 0ZM46 0Q43 0 43.0 6.0Q43 12 46 12Q87 12 99.0 25.0Q111 38 111 81V281Q111 315 103.0 330.5Q95 346 75 346Q65 346 51.0 342.0Q37 338 19 331Q15 330 12.5 335.0Q10 340 14 342L125 394Q127 395 130 395Q137 395 147.5 374.5Q158 354 158 315V81Q158 38 169.5 25.0Q181 12 223 12Q226 12 226.0 6.0Q226 0 223 0Q206 0 183.0 1.0Q160 2 135 2Q110 2 86.5 1.0Q63 0 46 0Z"/></g><g transform="translate(75.02 182.00) scale(0.01500 -0.01500)"><path d="M189 -12Q165 -12 143.5 -4.5Q122 3 109.0 20.5Q96 38 96 68V306Q96 331 93.0 342.5Q90 354 79.0 357.5Q68 361 44 361Q41 361 41.0 367.0Q41 373 44 373Q82 373 105.5 394.0Q129 415 129 447Q129 450 136.5 450.0Q144 450 144 447V102Q144 60 164.5 39.5Q185 19 225 19Q252 19 272.5 27.5Q293 36 306 46Q310 48 313.0 43.5Q316 39 312 36Q275 10 247.0 -1.0Q219 -12 189 -12ZM282 338Q243 348 207.5 350.5Q172 353 132 353V374Q171 374 207.5 377.0Q244 380 285 384Q288 384 290.0 377.5Q292 371 292 361Q292 354 289.0 345.5Q286 337 282 338Z"/></g><g transform="translate(80.71 182.00) scale(0.01500 -0.01500)"><path d="M139 271 135 281Q172 327 195.5 351.5Q219 376 236.0 385.5Q253 395 269 395Q290 395 310.0 384.0Q330 373 330 357Q330 347 322.5 339.0Q315 331 301 331Q289 331 280.5 338.0Q272 345 262.0 351.5Q252 358 235 358Q226 358 215.5 352.5Q205 347 187.5 328.5Q170 310 139 271ZM46 0Q43 0 43.0 6.0Q43 12 46 12Q87 12 99.0 25.0Q111 38 111 81V281Q111 315 103.0 330.5Q95 346 75 346Q65 346 51.0 342.0Q37 338 19 331Q15 330 12.5 335.0Q10 340 14 342L125 394Q127 395 130 395Q137 395 147.5 374.5Q158 354 158 315V81Q158 52 165.0 37.0Q172 22 193.5 17.0Q215 12 258 12Q261 12 261.0 6.0Q261 0 258 0Q234 0 202.0 1.0Q170 2 135 2Q110 2 86.5 1.0Q63 0 46 0Z"/></g><g transform="translate(86.71 182.00) scale(0.01500 -0.01500)"><path d="M57 0Q55 0 55.0 6.0Q55 12 57 12Q98 12 110.5 25.0Q123 38 123 81V270Q123 306 116.0 322.5Q109 339 90 339Q81 339 69.5 335.5Q58 332 42 324Q38 323 35.5 328.5Q33 334 37 336L161 394Q164 395 165 395Q167 395 169.5 393.0Q172 391 172 388Q172 381 171.0 349.5Q170 318 170 271V81Q170 38 181.5 25.0Q193 12 235 12Q238 12 238.0 6.0Q238 0 235 0Q218 0 195.0 1.0Q172 2 146 2Q121 2 98.0 1.0Q75 0 57 0ZM138 516Q119 516 108.5 526.0Q98 536 98 554Q98 572 108.5 582.0Q119 592 138 592Q156 592 166.0 582.0Q176 572 176 554Q176 516 138 516Z"/></g><g transform="translate(91.43 182.00) scale(0.01500 -0.01500)"><path d="M249 -13Q211 -13 174.0 -1.0Q137 11 101 41L144 123Q144 80 167.5 54.0Q191 28 223.5 17.0Q256 6 282 6Q344 6 379.0 51.0Q414 96 414 182Q414 275 376.0 323.0Q338 371 281 371Q237 371 200.5 342.5Q164 314 132 278L124 285Q145 309 172.0 335.5Q199 362 233.5 380.5Q268 399 311 399Q353 399 389.0 378.5Q425 358 447.5 317.0Q470 276 470 214Q470 138 437.5 87.5Q405 37 354.0 12.0Q303 -13 249 -13ZM42 -4Q38 -5 36.0 -1.0Q34 3 37 6Q67 27 82.0 45.0Q97 63 97 103V599Q97 635 90.0 651.5Q83 668 64 668Q47 668 16 654Q12 652 10.0 658.0Q8 664 12 665L132 724Q135 725 137 725Q139 725 141.5 723.0Q144 721 144 718V44Z"/></g><g transform="translate(99.65 182.00) scale(0.01500 -0.01500)"><path d="M180 -7Q132 -7 104.0 23.5Q76 54 76 115V270Q76 311 70.0 328.5Q64 346 47 346Q32 346 11 336Q7 334 4.5 340.0Q2 346 6 347L111 394Q113 395 115 395Q117 395 120.0 393.0Q123 391 123 388V145Q123 84 144.0 55.5Q165 27 207 27Q248 27 289.0 51.5Q330 76 361 119L366 108Q317 46 272.0 19.5Q227 -7 180 -7ZM389 388V105Q389 71 397.5 55.5Q406 40 426 40Q437 40 450.0 44.0Q463 48 482 55Q487 57 489.0 51.5Q491 46 487 44L375 -8Q373 -9 371 -9Q364 -9 353.5 11.5Q343 32 343 71V270Q343 311 336.5 328.5Q330 346 313 346Q298 346 277 336Q273 334 271.0 340.0Q269 346 273 347L378 394Q380 395 381 395Q383 395 386.0 393.0Q389 391 389 388Z"/></g><g transform="translate(107.60 182.00) scale(0.01500 -0.01500)"><path d="M189 -12Q165 -12 143.5 -4.5Q122 3 109.0 20.5Q96 38 96 68V306Q96 331 93.0 342.5Q90 354 79.0 357.5Q68 361 44 361Q41 361 41.0 367.0Q41 373 44 373Q82 373 105.5 394.0Q129 415 129 447Q129 450 136.5 450.0Q144 450 144 447V102Q144 60 164.5 39.5Q185 19 225 19Q252 19 272.5 27.5Q293 36 306 46Q310 48 313.0 43.5Q316 39 312 36Q275 10 247.0 -1.0Q219 -12 189 -12ZM282 338Q243 348 207.5 350.5Q172 353 132 353V374Q171 374 207.5 377.0Q244 380 285 384Q288 384 290.0 377.5Q292 371 292 361Q292 354 289.0 345.5Q286 337 282 338Z"/></g><g transform="translate(113.29 182.00) scale(0.01500 -0.01500)"><path d="M57 0Q55 0 55.0 6.0Q55 12 57 12Q98 12 110.5 25.0Q123 38 123 81V270Q123 306 116.0 322.5Q109 339 90 339Q81 339 69.5 335.5Q58 332 42 324Q38 323 35.5 328.5Q33 334 37 336L161 394Q164 395 165 395Q167 395 169.5 393.0Q172 391 172 388Q172 381 171.0 349.5Q170 318 170 271V81Q170 38 181.5 25.0Q193 12 235 12Q238 12 238.0 6.0Q238 0 235 0Q218 0 195.0 1.0Q172 2 146 2Q121 2 98.0 1.0Q75 0 57 0ZM138 516Q119 516 108.5 526.0Q98 536 98 554Q98 572 108.5 582.0Q119 592 138 592Q156 592 166.0 582.0Q176 572 176 554Q176 516 138 516Z"/></g><g transform="translate(118.01 182.00) scale(0.01500 -0.01500)"><path d="M230 -13Q171 -13 127.5 16.0Q84 45 60.5 93.5Q37 142 37 198Q37 250 56.0 288.0Q75 326 106.5 350.5Q138 375 175.0 387.0Q212 399 248 399Q308 399 351.0 369.0Q394 339 417.0 292.0Q440 245 440 193Q440 129 411.0 83.0Q382 37 334.5 12.0Q287 -13 230 -13ZM258 5Q314 5 348.0 42.5Q382 80 382 167Q382 228 361.0 276.0Q340 324 302.5 352.0Q265 380 215 380Q158 380 126.0 340.5Q94 301 94 227Q94 168 114.5 117.0Q135 66 172.0 35.5Q209 5 258 5Z"/></g><g transform="translate(125.77 182.00) scale(0.01500 -0.01500)"><path d="M315 0Q312 0 312.0 6.0Q312 12 315 12Q356 12 368.0 25.0Q380 38 380 81V248Q380 309 357.0 337.0Q334 365 285 365Q247 365 207.5 340.0Q168 315 139 271L135 283Q182 345 225.0 372.0Q268 399 312 399Q367 399 397.0 369.5Q427 340 427 278V81Q427 38 438.5 25.0Q450 12 492 12Q495 12 495.0 6.0Q495 0 492 0Q475 0 452.0 1.0Q429 2 404 2Q379 2 355.5 1.0Q332 0 315 0ZM46 0Q43 0 43.0 6.0Q43 12 46 12Q87 12 99.0 25.0Q111 38 111 81V281Q111 315 103.0 330.5Q95 346 75 346Q65 346 51.0 342.0Q37 338 19 331Q15 330 12.5 335.0Q10 340 14 342L125 394Q127 395 130 395Q137 395 147.5 374.5Q158 354 158 315V81Q158 38 169.5 25.0Q181 12 223 12Q226 12 226.0 6.0Q226 0 223 0Q206 0 183.0 1.0Q160 2 135 2Q110 2 86.5 1.0Q63 0 46 0Z"/></g><g transform="translate(134.09 182.00) scale(0.01500 -0.01500)"><path d="M96 322Q96 295 109.5 276.5Q123 258 144.5 245.5Q166 233 189 221Q215 209 238.0 194.5Q261 180 276.0 160.0Q291 140 291 108Q291 76 275.0 49.0Q259 22 227.5 5.5Q196 -11 151 -11Q127 -11 104.0 -4.5Q81 2 57 20Q55 22 53.0 25.0Q51 28 51 32L49 104Q49 107 54.5 107.5Q60 108 61 105Q74 71 91.5 49.5Q109 28 131.0 18.0Q153 8 180 8Q215 8 233.5 24.5Q252 41 250 74Q249 103 235.0 121.0Q221 139 200.0 151.0Q179 163 156 174Q131 186 108.5 199.5Q86 213 71.5 234.0Q57 255 57 288Q57 326 77.0 350.5Q97 375 127.5 387.0Q158 399 191 399Q209 399 227.0 395.5Q245 392 262 384Q271 380 271 373Q271 358 270.0 341.0Q269 324 269 304Q269 302 263.0 302.0Q257 302 257 304Q257 327 240.5 344.0Q224 361 200.5 370.0Q177 379 154 379Q127 379 111.5 365.0Q96 351 96 322Z"/></g></g><g fill="#8b949e"><g transform="translate(50.71 199.00) scale(0.01500 -0.01500)"><path d="M41 0Q38 0 38.0 6.0Q38 12 41 12Q82 12 94.0 25.0Q106 38 106 81V600Q106 636 99.0 652.5Q92 669 74 669Q58 669 26 654Q22 652 19.5 658.0Q17 664 21 665L144 724Q146 725 149 725Q151 725 153.5 723.0Q156 721 156 718V81Q156 39 167.5 25.5Q179 12 221 12Q224 12 224.0 6.0Q224 0 221 0Q204 0 180.5 1.0Q157 2 131 2Q106 2 82.0 1.0Q58 0 41 0Z"/></g><g transform="translate(55.15 199.00) scale(0.01500 -0.01500)"><path d="M313 -6Q309 -8 305 -8Q293 -8 283.0 13.0Q273 34 273 74V267Q273 329 253.5 353.0Q234 377 205 377Q180 377 163.5 365.5Q147 354 138.5 337.0Q130 320 126 305Q124 295 119.0 281.5Q114 268 94 268Q79 268 71.5 277.0Q64 286 64 296Q64 313 82.0 330.5Q100 348 127.5 363.0Q155 378 185.0 387.0Q215 396 240 396Q281 396 300.0 369.5Q319 343 319 297V108Q319 72 327.5 55.5Q336 39 357 39Q376 39 412 54Q417 56 419.0 50.5Q421 45 416 43ZM136 -7Q99 -7 79.5 13.5Q60 34 60 61Q60 78 68.5 94.0Q77 110 98.5 125.0Q120 140 158 154L283 201L285 188L167 143Q146 135 135.0 125.5Q124 116 120.0 105.5Q116 95 116 84Q116 62 130.5 44.0Q145 26 173 26Q184 26 196.0 29.5Q208 33 225 43L292 82L294 70L219 23Q194 7 175.0 0.0Q156 -7 136 -7Z"/></g><g transform="translate(62.03 199.00) scale(0.01500 -0.01500)"><path d="M96 322Q96 295 109.5 276.5Q123 258 144.5 245.5Q166 233 189 221Q215 209 238.0 194.5Q261 180 276.0 160.0Q291 140 291 108Q291 76 275.0 49.0Q259 22 227.5 5.5Q196 -11 151 -11Q127 -11 104.0 -4.5Q81 2 57 20Q55 22 53.0 25.0Q51 28 51 32L49 104Q49 107 54.5 107.5Q60 108 61 105Q74 71 91.5 49.5Q109 28 131.0 18.0Q153 8 180 8Q215 8 233.5 24.5Q252 41 250 74Q249 103 235.0 121.0Q221 139 200.0 151.0Q179 163 156 174Q131 186 108.5 199.5Q86 213 71.5 234.0Q57 255 57 288Q57 326 77.0 350.5Q97 375 127.5 387.0Q158 399 191 399Q209 399 227.0 395.5Q245 392 262 384Q271 380 271 373Q271 358 270.0 341.0Q269 324 269 304Q269 302 263.0 302.0Q257 302 257 304Q257 327 240.5 344.0Q224 361 200.5 370.0Q177 379 154 379Q127 379 111.5 365.0Q96 351 96 322Z"/></g><g transform="translate(67.70 199.00) scale(0.01500 -0.01500)"><path d="M189 -12Q165 -12 143.5 -4.5Q122 3 109.0 20.5Q96 38 96 68V306Q96 331 93.0 342.5Q90 354 79.0 357.5Q68 361 44 361Q41 361 41.0 367.0Q41 373 44 373Q82 373 105.5 394.0Q129 415 129 447Q129 450 136.5 450.0Q144 450 144 447V102Q144 60 164.5 39.5Q185 19 225 19Q252 19 272.5 27.5Q293 36 306 46Q310 48 313.0 43.5Q316 39 312 36Q275 10 247.0 -1.0Q219 -12 189 -12ZM282 338Q243 348 207.5 350.5Q172 353 132 353V374Q171 374 207.5 377.0Q244 380 285 384Q288 384 290.0 377.5Q292 371 292 361Q292 354 289.0 345.5Q286 337 282 338Z"/></g><g transform="translate(77.50 199.00) scale(0.01500 -0.01500)"><path d="M143 305Q143 334 137.0 349.0Q131 364 112.0 369.0Q93 374 54 374Q51 374 51.0 380.0Q51 386 54 386Q77 386 105.5 385.0Q134 384 166 384Q198 384 227.0 385.0Q256 386 278 386Q281 386 281.0 380.0Q281 374 278 374Q242 374 222.5 369.0Q203 364 196.0 349.0Q189 334 189 305V81Q189 52 195.0 37.0Q201 22 220.5 17.0Q240 12 278 12Q281 12 281.0 6.0Q281 0 278 0Q256 0 227.0 1.0Q198 2 166 2Q135 2 106.0 1.0Q77 0 54 0Q51 0 51.0 6.0Q51 12 54 12Q91 12 110.0 17.0Q129 22 136.0 37.0Q143 52 143 81Z"/></g><g transform="translate(83.08 199.00) scale(0.01500 -0.01500)"><path d="M37 12Q102 62 146.5 101.5Q191 141 218.0 172.5Q245 204 257.5 232.0Q270 260 270 288Q270 331 243.5 355.0Q217 379 178 379Q138 379 108.5 349.0Q79 319 62 258Q61 256 55.0 257.0Q49 258 50 261L88 408Q89 411 95.0 409.5Q101 408 99 406Q95 390 100.5 385.0Q106 380 113 380Q128 380 153.5 389.5Q179 399 214 399Q265 399 294.0 371.0Q323 343 323 299Q323 274 311.5 248.5Q300 223 275.0 194.0Q250 165 209.0 129.5Q168 94 108 48Q104 45 106.0 43.0Q108 41 112 41Q190 41 237.0 42.5Q284 44 308.5 50.0Q333 56 343.5 70.5Q354 85 360 110Q361 112 366.5 111.5Q372 111 372 109L358 11Q358 7 355.5 3.5Q353 0 349 0Q278 0 198.5 0.0Q119 0 44 0Q40 0 37.0 4.0Q34 8 37 12Z"/></g><g transform="translate(93.82 199.00) scale(0.01500 -0.01500)"><path d="M560 0Q558 0 558.0 6.0Q558 12 560 12Q601 12 613.5 25.0Q626 38 626 81V244Q626 363 537 363Q500 363 462.5 337.5Q425 312 396 269L392 281Q438 343 479.5 369.5Q521 396 564 396Q616 396 644.5 366.5Q673 337 673 275V81Q673 38 684.5 25.0Q696 12 738 12Q741 12 741.0 6.0Q741 0 738 0Q721 0 698.0 1.0Q675 2 649 2Q624 2 601.0 1.0Q578 0 560 0ZM303 0Q300 0 300.0 6.0Q300 12 303 12Q344 12 356.0 25.0Q368 38 368 81V244Q368 363 280 363Q243 363 205.5 337.5Q168 312 139 269L135 281Q180 343 221.5 369.5Q263 396 306 396Q358 396 386.5 366.5Q415 337 415 275V81Q415 38 427.0 25.0Q439 12 481 12Q483 12 483.0 6.0Q483 0 481 0Q463 0 440.5 1.0Q418 2 392 2Q367 2 343.5 1.0Q320 0 303 0ZM46 0Q43 0 43.0 6.0Q43 12 46 12Q87 12 99.0 25.0Q111 38 111 81V281Q111 315 103.0 330.5Q95 346 75 346Q65 346 51.0 342.0Q37 338 19 331Q15 330 12.5 335.0Q10 340 14 342L125 394Q127 395 130 395Q137 395 147.5 374.5Q158 354 158 315V81Q158 38 169.5 25.0Q181 12 223 12Q226 12 226.0 6.0Q226 0 223 0Q206 0 183.0 1.0Q160 2 135 2Q110 2 86.5 1.0Q63 0 46 0Z"/></g><g transform="translate(105.82 199.00) scale(0.01500 -0.01500)"><path d="M230 -13Q171 -13 127.5 16.0Q84 45 60.5 93.5Q37 142 37 198Q37 250 56.0 288.0Q75 326 106.5 350.5Q138 375 175.0 387.0Q212 399 248 399Q308 399 351.0 369.0Q394 339 417.0 292.0Q440 245 440 193Q440 129 411.0 83.0Q382 37 334.5 12.0Q287 -13 230 -13ZM258 5Q314 5 348.0 42.5Q382 80 382 167Q382 228 361.0 276.0Q340 324 302.5 352.0Q265 380 215 380Q158 380 126.0 340.5Q94 301 94 227Q94 168 114.5 117.0Q135 66 172.0 35.5Q209 5 258 5Z"/></g><g transform="translate(113.57 199.00) scale(0.01500 -0.01500)"><path d="M315 0Q312 0 312.0 6.0Q312 12 315 12Q356 12 368.0 25.0Q380 38 380 81V248Q380 309 357.0 337.0Q334 365 285 365Q247 365 207.5 340.0Q168 315 139 271L135 283Q182 345 225.0 372.0Q268 399 312 399Q367 399 397.0 369.5Q427 340 427 278V81Q427 38 438.5 25.0Q450 12 492 12Q495 12 495.0 6.0Q495 0 492 0Q475 0 452.0 1.0Q429 2 404 2Q379 2 355.5 1.0Q332 0 315 0ZM46 0Q43 0 43.0 6.0Q43 12 46 12Q87 12 99.0 25.0Q111 38 111 81V281Q111 315 103.0 330.5Q95 346 75 346Q65 346 51.0 342.0Q37 338 19 331Q15 330 12.5 335.0Q10 340 14 342L125 394Q127 395 130 395Q137 395 147.5 374.5Q158 354 158 315V81Q158 38 169.5 25.0Q181 12 223 12Q226 12 226.0 6.0Q226 0 223 0Q206 0 183.0 1.0Q160 2 135 2Q110 2 86.5 1.0Q63 0 46 0Z"/></g><g transform="translate(121.90 199.00) scale(0.01500 -0.01500)"><path d="M189 -12Q165 -12 143.5 -4.5Q122 3 109.0 20.5Q96 38 96 68V306Q96 331 93.0 342.5Q90 354 79.0 357.5Q68 361 44 361Q41 361 41.0 367.0Q41 373 44 373Q82 373 105.5 394.0Q129 415 129 447Q129 450 136.5 450.0Q144 450 144 447V102Q144 60 164.5 39.5Q185 19 225 19Q252 19 272.5 27.5Q293 36 306 46Q310 48 313.0 43.5Q316 39 312 36Q275 10 247.0 -1.0Q219 -12 189 -12ZM282 338Q243 348 207.5 350.5Q172 353 132 353V374Q171 374 207.5 377.0Q244 380 285 384Q288 384 290.0 377.5Q292 371 292 361Q292 354 289.0 345.5Q286 337 282 338Z"/></g><g transform="translate(127.58 199.00) scale(0.01500 -0.01500)"><path d="M27 0Q24 0 24.0 6.0Q24 12 27 12Q68 12 80.0 25.0Q92 38 92 81V600Q92 636 85.0 652.5Q78 669 60 669Q44 669 12 654Q8 652 5.5 657.5Q3 663 7 665L130 725Q131 725 131.0 725.0Q131 725 132 725Q135 725 137.0 723.0Q139 721 139 718V81Q139 38 151.0 25.0Q163 12 205 12Q207 12 207.0 6.0Q207 0 205 0Q187 0 164.5 1.0Q142 2 116 2Q91 2 67.5 1.0Q44 0 27 0ZM296 0Q293 0 293.0 6.0Q293 12 296 12Q337 12 349.0 25.0Q361 38 361 81V244Q361 363 267 363Q228 363 188.5 337.5Q149 312 120 269L116 281Q163 343 206.0 369.5Q249 396 294 396Q348 396 378.0 366.5Q408 337 408 275V81Q408 38 420.0 25.0Q432 12 474 12Q476 12 476.0 6.0Q476 0 474 0Q456 0 433.5 1.0Q411 2 385 2Q360 2 336.5 1.0Q313 0 296 0Z"/></g><g transform="translate(135.62 199.00) scale(0.01500 -0.01500)"><path d="M96 322Q96 295 109.5 276.5Q123 258 144.5 245.5Q166 233 189 221Q215 209 238.0 194.5Q261 180 276.0 160.0Q291 140 291 108Q291 76 275.0 49.0Q259 22 227.5 5.5Q196 -11 151 -11Q127 -11 104.0 -4.5Q81 2 57 20Q55 22 53.0 25.0Q51 28 51 32L49 104Q49 107 54.5 107.5Q60 108 61 105Q74 71 91.5 49.5Q109 28 131.0 18.0Q153 8 180 8Q215 8 233.5 24.5Q252 41 250 74Q249 103 235.0 121.0Q221 139 200.0 151.0Q179 163 156 174Q131 186 108.5 199.5Q86 213 71.5 234.0Q57 255 57 288Q57 326 77.0 350.5Q97 375 127.5 387.0Q158 399 191 399Q209 399 227.0 395.5Q245 392 262 384Q271 380 271 373Q271 358 270.0 341.0Q269 324 269 304Q269 302 263.0 302.0Q257 302 257 304Q257 327 240.5 344.0Q224 361 200.5 370.0Q177 379 154 379Q127 379 111.5 365.0Q96 351 96 322Z"/></g></g><g fill="#c9d1d9"><g transform="translate(148.12 67.00) scale(0.01900 -0.01900)"><path d="M407 636Q452 636 484.5 632.0Q517 628 545.0 618.5Q573 609 604 593Q610 589 611.5 586.5Q613 584 614 571L626 457Q626 455 620.5 453.5Q615 452 614 456Q592 539 541.5 580.5Q491 622 407 622Q318 622 252.0 585.0Q186 548 149.5 480.0Q113 412 113 320Q113 255 136.5 197.0Q160 139 201.5 95.0Q243 51 296.0 26.0Q349 1 409 1Q495 1 547.0 42.5Q599 84 621 164Q622 167 627.5 166.0Q633 165 633 163L625 57Q624 45 622.0 42.0Q620 39 614 35Q561 7 515.5 -3.0Q470 -13 408 -13Q303 -13 222.0 28.5Q141 70 95.0 145.0Q49 220 49 319Q49 391 75.5 449.0Q102 507 150.5 549.0Q199 591 264.0 613.5Q329 636 407 636Z"/></g><g transform="translate(161.57 67.00) scale(0.01900 -0.01900)"><path d="M230 -13Q171 -13 127.5 16.0Q84 45 60.5 93.5Q37 142 37 198Q37 250 56.0 288.0Q75 326 106.5 350.5Q138 375 175.0 387.0Q212 399 248 399Q308 399 351.0 369.0Q394 339 417.0 292.0Q440 245 440 193Q440 129 411.0 83.0Q382 37 334.5 12.0Q287 -13 230 -13ZM258 5Q314 5 348.0 42.5Q382 80 382 167Q382 228 361.0 276.0Q340 324 302.5 352.0Q265 380 215 380Q158 380 126.0 340.5Q94 301 94 227Q94 168 114.5 117.0Q135 66 172.0 35.5Q209 5 258 5Z"/></g><g transform="translate(171.03 67.00) scale(0.01900 -0.01900)"><path d="M560 0Q558 0 558.0 6.0Q558 12 560 12Q601 12 613.5 25.0Q626 38 626 81V244Q626 363 537 363Q500 363 462.5 337.5Q425 312 396 269L392 281Q438 343 479.5 369.5Q521 396 564 396Q616 396 644.5 366.5Q673 337 673 275V81Q673 38 684.5 25.0Q696 12 738 12Q741 12 741.0 6.0Q741 0 738 0Q721 0 698.0 1.0Q675 2 649 2Q624 2 601.0 1.0Q578 0 560 0ZM303 0Q300 0 300.0 6.0Q300 12 303 12Q344 12 356.0 25.0Q368 38 368 81V244Q368 363 280 363Q243 363 205.5 337.5Q168 312 139 269L135 281Q180 343 221.5 369.5Q263 396 306 396Q358 396 386.5 366.5Q415 337 415 275V81Q415 38 427.0 25.0Q439 12 481 12Q483 12 483.0 6.0Q483 0 481 0Q463 0 440.5 1.0Q418 2 392 2Q367 2 343.5 1.0Q320 0 303 0ZM46 0Q43 0 43.0 6.0Q43 12 46 12Q87 12 99.0 25.0Q111 38 111 81V281Q111 315 103.0 330.5Q95 346 75 346Q65 346 51.0 342.0Q37 338 19 331Q15 330 12.5 335.0Q10 340 14 342L125 394Q127 395 130 395Q137 395 147.5 374.5Q158 354 158 315V81Q158 38 169.5 25.0Q181 12 223 12Q226 12 226.0 6.0Q226 0 223 0Q206 0 183.0 1.0Q160 2 135 2Q110 2 86.5 1.0Q63 0 46 0Z"/></g><g transform="translate(185.87 67.00) scale(0.01900 -0.01900)"><path d="M560 0Q558 0 558.0 6.0Q558 12 560 12Q601 12 613.5 25.0Q626 38 626 81V244Q626 363 537 363Q500 363 462.5 337.5Q425 312 396 269L392 281Q438 343 479.5 369.5Q521 396 564 396Q616 396 644.5 366.5Q673 337 673 275V81Q673 38 684.5 25.0Q696 12 738 12Q741 12 741.0 6.0Q741 0 738 0Q721 0 698.0 1.0Q675 2 649 2Q624 2 601.0 1.0Q578 0 560 0ZM303 0Q300 0 300.0 6.0Q300 12 303 12Q344 12 356.0 25.0Q368 38 368 81V244Q368 363 280 363Q243 363 205.5 337.5Q168 312 139 269L135 281Q180 343 221.5 369.5Q263 396 306 396Q358 396 386.5 366.5Q415 337 415 275V81Q415 38 427.0 25.0Q439 12 481 12Q483 12 483.0 6.0Q483 0 481 0Q463 0 440.5 1.0Q418 2 392 2Q367 2 343.5 1.0Q320 0 303 0ZM46 0Q43 0 43.0 6.0Q43 12 46 12Q87 12 99.0 25.0Q111 38 111 81V281Q111 315 103.0 330.5Q95 346 75 346Q65 346 51.0 342.0Q37 338 19 331Q15 330 12.5 335.0Q10 340 14 342L125 394Q127 395 130 395Q137 395 147.5 374.5Q158 354 158 315V81Q158 38 169.5 25.0Q181 12 223 12Q226 12 226.0 6.0Q226 0 223 0Q206 0 183.0 1.0Q160 2 135 2Q110 2 86.5 1.0Q63 0 46 0Z"/></g><g transform="translate(200.71 67.00) scale(0.01900 -0.01900)"><path d="M57 0Q55 0 55.0 6.0Q55 12 57 12Q98 12 110.5 25.0Q123 38 123 81V270Q123 306 116.0 322.5Q109 339 90 339Q81 339 69.5 335.5Q58 332 42 324Q38 323 35.5 328.5Q33 334 37 336L161 394Q164 395 165 395Q167 395 169.5 393.0Q172 391 172 388Q172 381 171.0 349.5Q170 318 170 271V81Q170 38 181.5 25.0Q193 12 235 12Q238 12 238.0 6.0Q238 0 235 0Q218 0 195.0 1.0Q172 2 146 2Q121 2 98.0 1.0Q75 0 57 0ZM138 516Q119 516 108.5 526.0Q98 536 98 554Q98 572 108.5 582.0Q119 592 138 592Q156 592 166.0 582.0Q176 572 176 554Q176 516 138 516Z"/></g><g transform="translate(206.34 67.00) scale(0.01900 -0.01900)"><path d="M189 -12Q165 -12 143.5 -4.5Q122 3 109.0 20.5Q96 38 96 68V306Q96 331 93.0 342.5Q90 354 79.0 357.5Q68 361 44 361Q41 361 41.0 367.0Q41 373 44 373Q82 373 105.5 394.0Q129 415 129 447Q129 450 136.5 450.0Q144 450 144 447V102Q144 60 164.5 39.5Q185 19 225 19Q252 19 272.5 27.5Q293 36 306 46Q310 48 313.0 43.5Q316 39 312 36Q275 10 247.0 -1.0Q219 -12 189 -12ZM282 338Q243 348 207.5 350.5Q172 353 132 353V374Q171 374 207.5 377.0Q244 380 285 384Q288 384 290.0 377.5Q292 371 292 361Q292 354 289.0 345.5Q286 337 282 338Z"/></g><g transform="translate(213.18 67.00) scale(0.01900 -0.01900)"><path d="M96 322Q96 295 109.5 276.5Q123 258 144.5 245.5Q166 233 189 221Q215 209 238.0 194.5Q261 180 276.0 160.0Q291 140 291 108Q291 76 275.0 49.0Q259 22 227.5 5.5Q196 -11 151 -11Q127 -11 104.0 -4.5Q81 2 57 20Q55 22 53.0 25.0Q51 28 51 32L49 104Q49 107 54.5 107.5Q60 108 61 105Q74 71 91.5 49.5Q109 28 131.0 18.0Q153 8 180 8Q215 8 233.5 24.5Q252 41 250 74Q249 103 235.0 121.0Q221 139 200.0 151.0Q179 163 156 174Q131 186 108.5 199.5Q86 213 71.5 234.0Q57 255 57 288Q57 326 77.0 350.5Q97 375 127.5 387.0Q158 399 191 399Q209 399 227.0 395.5Q245 392 262 384Q271 380 271 373Q271 358 270.0 341.0Q269 324 269 304Q269 302 263.0 302.0Q257 302 257 304Q257 327 240.5 344.0Q224 361 200.5 370.0Q177 379 154 379Q127 379 111.5 365.0Q96 351 96 322Z"/></g></g><rect x="232" y="58" width="175" height="8" rx="4" fill="#21262d"/><rect x="232" y="58" width="175.0" height="8" rx="4" fill="#2dd4bf"/><g fill="#2dd4bf"><g transform="translate(419.00 67.00) scale(0.01900 -0.01900)"><path d="M132.19970703125 305Q132.19970703125 334 126.56376185042134 349.0Q120.9278166695927 364 103.08065693030197 369.0Q85.23349719101124 374 48.599853515625 374Q46.04986572265625 374 46.04986572265625 380.0Q46.04986572265625 386 48.599853515625 386Q72.94989013671875 386 102.57492065429688 385.0Q132.199951171875 384 165.77499389648438 384Q199.35003662109375 384 229.76513524802334 385.0Q260.18023387495293 386 283.25375697124434 386Q286.400146484375 386 286.400146484375 380.0Q286.400146484375 374 283.53861177884613 374Q249.2001953125 374 231.0247595445165 369.0Q212.84932377653303 364 206.3248083726415 349.0Q199.80029296875 334 199.80029296875 305V81Q199.80029296875 52 205.3767520680147 37.0Q210.95321116727942 22 229.0767032398897 17.0Q247.2001953125 12 283.400146484375 12Q286.400146484375 12 286.400146484375 6.0Q286.400146484375 0 283.400146484375 0Q260.05010986328125 0 229.92507934570312 1.0Q199.800048828125 2 165.97142779637898 2Q133.199951171875 2 103.07492065429688 1.0Q72.94989013671875 0 48.599853515625 0Q46.04986572265625 0 46.04986572265625 6.0Q46.04986572265625 12 48.599853515625 12Q83.35484879740169 12 101.20200853669242 17.0Q119.04916827598315 22 125.62443765361658 37.0Q132.19970703125 52 132.19970703125 81Z"/></g><g transform="translate(425.71 67.00) scale(0.01900 -0.01900)"><path d="M30.7000732421875 8Q26.7000732421875 8 23.2000732421875 12.0Q19.7000732421875 16 23.7000732421875 20L321.05035400390625 396Q323.05035400390625 399 329.55035400390625 398.0Q336.05035400390625 397 336.05035400390625 392V-147.64971923828125Q336.05035400390625 -158.19970703125 328.05035400390625 -161.64971923828125L274.8997802734375 -188Q265.8997802734375 -193 265.8997802734375 -182V303.84942626953125L312.45050048828125 338L78.000244140625 46.25006103515625Q75.000244140625 42.800048828125 77.000244140625 41.025054931640625Q79.000244140625 39.25006103515625 83.000244140625 39.25006103515625Q139.2001953125 39.25006103515625 183.02517700195312 39.75006103515625Q226.85015869140625 40.25006103515625 263.85015869140625 41.025054931640625Q300.85015869140625 41.800048828125 337.400146484375 43.025054931640625Q373.95013427734375 44.25006103515625 415.60009765625 45.25006103515625Q418.60009765625 45.25006103515625 419.3750915527344 34.300048828125Q420.15008544921875 23.35003662109375 418.9250793457031 12.175018310546875Q417.7000732421875 1 414.7000732421875 1Q375.60009765625 3 336.65008544921875 4.5Q297.7000732421875 6 253.800048828125 6.5Q209.9000244140625 7 155.4000244140625 7.5Q100.9000244140625 8 30.7000732421875 8Z"/></g><g transform="translate(434.72 67.00) scale(0.01900 -0.01900)"><path d="M30.7000732421875 8Q26.7000732421875 8 23.2000732421875 12.0Q19.7000732421875 16 23.7000732421875 20L321.05035400390625 396Q323.05035400390625 399 329.55035400390625 398.0Q336.05035400390625 397 336.05035400390625 392V-147.64971923828125Q336.05035400390625 -158.19970703125 328.05035400390625 -161.64971923828125L274.8997802734375 -188Q265.8997802734375 -193 265.8997802734375 -182V303.84942626953125L312.45050048828125 338L78.000244140625 46.25006103515625Q75.000244140625 42.800048828125 77.000244140625 41.025054931640625Q79.000244140625 39.25006103515625 83.000244140625 39.25006103515625Q139.2001953125 39.25006103515625 183.02517700195312 39.75006103515625Q226.85015869140625 40.25006103515625 263.85015869140625 41.025054931640625Q300.85015869140625 41.800048828125 337.400146484375 43.025054931640625Q373.95013427734375 44.25006103515625 415.60009765625 45.25006103515625Q418.60009765625 45.25006103515625 419.3750915527344 34.300048828125Q420.15008544921875 23.35003662109375 418.9250793457031 12.175018310546875Q417.7000732421875 1 414.7000732421875 1Q375.60009765625 3 336.65008544921875 4.5Q297.7000732421875 6 253.800048828125 6.5Q209.9000244140625 7 155.4000244140625 7.5Q100.9000244140625 8 30.7000732421875 8Z"/></g><g transform="translate(443.72 67.00) scale(0.01900 -0.01900)"><path d="M301.85015869140625 284.7000732421875Q349.95013427734375 284.7000732421875 378.45013427734375 266.0250549316406Q406.95013427734375 247.35003662109375 420.1751403808594 218.67501831054688Q433.400146484375 190 433.400146484375 159Q433.400146484375 112 405.7251281738281 72.5Q378.05010986328125 33 332.2000732421875 10.0Q286.35003662109375 -13 230 -13Q144.74993896484375 -13 94.17489624023438 44.725006103515625Q43.599853515625 102.45001220703125 43.599853515625 207.54998779296875Q43.599853515625 301 85.9998779296875 390.7250061035156Q128.39990234375 480.45001220703125 208.52493286132812 551.7250061035156Q288.64996337890625 623 400 661Q404 662 406.0 657.0Q408 652 405 650Q309.95013427734375 606 246.55023193359375 535.7250061035156Q183.15032958984375 465.45001220703125 151.45037841796875 384.0Q119.75042724609375 302.54998779296875 119.75042724609375 223.74993896484375Q119.75042724609375 164.54998779296875 136.17538452148438 115.45001220703125Q152.600341796875 66.35003662109375 183.500244140625 37.025054931640625Q214.400146484375 7.7000732421875 257.54998779296875 7.7000732421875Q302.24981689453125 7.7000732421875 329.74969482421875 40.35003662109375Q357.24957275390625 73 357.24957275390625 131.64996337890625Q357.24957275390625 183.199951171875 334.2246398925781 217.62490844726562Q311.19970703125 252.04986572265625 261.599853515625 252.04986572265625Q237.64996337890625 252.04986572265625 216.97506713867188 242.2999267578125Q196.3001708984375 232.54998779296875 170.80029296875 211.400146484375Q168.35028076171875 208.400146484375 163.57528686523438 211.900146484375Q158.80029296875 215.400146484375 160.35028076171875 218.400146484375Q186.9002685546875 249.7000732421875 222.1002197265625 267.2000732421875Q257.3001708984375 284.7000732421875 301.85015869140625 284.7000732421875Z"/></g></g><g fill="#c9d1d9"><g transform="translate(124.15 103.00) scale(0.01900 -0.01900)"><path d="M138 504Q138 462 158.5 432.5Q179 403 211.5 381.0Q244 359 280 338Q317 317 351.0 293.5Q385 270 407.5 237.5Q430 205 430 157Q430 111 407.5 72.5Q385 34 340.0 11.0Q295 -12 227 -12Q205 -12 183.5 -9.0Q162 -6 139.5 1.5Q117 9 91 22Q86 25 84.5 29.5Q83 34 82 41L67 171Q66 176 71.5 176.5Q77 177 78 173Q82 143 94.0 113.0Q106 83 126.5 58.0Q147 33 177.5 17.5Q208 2 249 2Q280 2 309.0 13.5Q338 25 356.5 51.0Q375 77 375 122Q375 171 353.5 203.5Q332 236 299.0 259.5Q266 283 229 304Q194 325 161.0 348.0Q128 371 107.5 402.5Q87 434 87 481Q87 533 113.0 567.5Q139 602 180.5 619.0Q222 636 267 636Q293 636 321.5 630.5Q350 625 381 612Q389 609 392.5 604.5Q396 600 396 595L405 489Q405 485 399.5 485.0Q394 485 393 489Q391 511 382.5 534.5Q374 558 357.5 578.0Q341 598 315.5 610.5Q290 623 254 623Q211 623 185.5 605.0Q160 587 149.0 560.0Q138 533 138 504Z"/></g><g transform="translate(133.77 103.00) scale(0.01900 -0.01900)"><path d="M189 -12Q165 -12 143.5 -4.5Q122 3 109.0 20.5Q96 38 96 68V306Q96 331 93.0 342.5Q90 354 79.0 357.5Q68 361 44 361Q41 361 41.0 367.0Q41 373 44 373Q82 373 105.5 394.0Q129 415 129 447Q129 450 136.5 450.0Q144 450 144 447V102Q144 60 164.5 39.5Q185 19 225 19Q252 19 272.5 27.5Q293 36 306 46Q310 48 313.0 43.5Q316 39 312 36Q275 10 247.0 -1.0Q219 -12 189 -12ZM282 338Q243 348 207.5 350.5Q172 353 132 353V374Q171 374 207.5 377.0Q244 380 285 384Q288 384 290.0 377.5Q292 371 292 361Q292 354 289.0 345.5Q286 337 282 338Z"/></g><g transform="translate(140.61 103.00) scale(0.01900 -0.01900)"><path d="M313 -6Q309 -8 305 -8Q293 -8 283.0 13.0Q273 34 273 74V267Q273 329 253.5 353.0Q234 377 205 377Q180 377 163.5 365.5Q147 354 138.5 337.0Q130 320 126 305Q124 295 119.0 281.5Q114 268 94 268Q79 268 71.5 277.0Q64 286 64 296Q64 313 82.0 330.5Q100 348 127.5 363.0Q155 378 185.0 387.0Q215 396 240 396Q281 396 300.0 369.5Q319 343 319 297V108Q319 72 327.5 55.5Q336 39 357 39Q376 39 412 54Q417 56 419.0 50.5Q421 45 416 43ZM136 -7Q99 -7 79.5 13.5Q60 34 60 61Q60 78 68.5 94.0Q77 110 98.5 125.0Q120 140 158 154L283 201L285 188L167 143Q146 135 135.0 125.5Q124 116 120.0 105.5Q116 95 116 84Q116 62 130.5 44.0Q145 26 173 26Q184 26 196.0 29.5Q208 33 225 43L292 82L294 70L219 23Q194 7 175.0 0.0Q156 -7 136 -7Z"/></g><g transform="translate(148.97 103.00) scale(0.01900 -0.01900)"><path d="M139 271 135 281Q172 327 195.5 351.5Q219 376 236.0 385.5Q253 395 269 395Q290 395 310.0 384.0Q330 373 330 357Q330 347 322.5 339.0Q315 331 301 331Q289 331 280.5 338.0Q272 345 262.0 351.5Q252 358 235 358Q226 358 215.5 352.5Q205 347 187.5 328.5Q170 310 139 271ZM46 0Q43 0 43.0 6.0Q43 12 46 12Q87 12 99.0 25.0Q111 38 111 81V281Q111 315 103.0 330.5Q95 346 75 346Q65 346 51.0 342.0Q37 338 19 331Q15 330 12.5 335.0Q10 340 14 342L125 394Q127 395 130 395Q137 395 147.5 374.5Q158 354 158 315V81Q158 52 165.0 37.0Q172 22 193.5 17.0Q215 12 258 12Q261 12 261.0 6.0Q261 0 258 0Q234 0 202.0 1.0Q170 2 135 2Q110 2 86.5 1.0Q63 0 46 0Z"/></g><g transform="translate(156.21 103.00) scale(0.01900 -0.01900)"><path d="M96 322Q96 295 109.5 276.5Q123 258 144.5 245.5Q166 233 189 221Q215 209 238.0 194.5Q261 180 276.0 160.0Q291 140 291 108Q291 76 275.0 49.0Q259 22 227.5 5.5Q196 -11 151 -11Q127 -11 104.0 -4.5Q81 2 57 20Q55 22 53.0 25.0Q51 28 51 32L49 104Q49 107 54.5 107.5Q60 108 61 105Q74 71 91.5 49.5Q109 28 131.0 18.0Q153 8 180 8Q215 8 233.5 24.5Q252 41 250 74Q249 103 235.0 121.0Q221 139 200.0 151.0Q179 163 156 174Q131 186 108.5 199.5Q86 213 71.5 234.0Q57 255 57 288Q57 326 77.0 350.5Q97 375 127.5 387.0Q158 399 191 399Q209 399 227.0 395.5Q245 392 262 384Q271 380 271 373Q271 358 270.0 341.0Q269 324 269 304Q269 302 263.0 302.0Q257 302 257 304Q257 327 240.5 344.0Q224 361 200.5 370.0Q177 379 154 379Q127 379 111.5 365.0Q96 351 96 322Z"/></g><g transform="translate(167.88 103.00) scale(0.01900 -0.01900)"><path d="M215 -12Q156 -12 116.5 15.5Q77 43 57.0 87.0Q37 131 37 180Q37 241 65.0 289.5Q93 338 140.5 366.5Q188 395 244 395Q301 395 329.0 364.0Q357 333 357 281Q357 268 354.5 262.0Q352 256 345 256H298Q303 318 278.5 346.5Q254 375 212 375Q156 375 125.0 332.5Q94 290 94 216Q94 160 112.0 115.5Q130 71 165.0 45.5Q200 20 250 20Q285 20 307.5 30.5Q330 41 351 54Q353 56 356.5 51.5Q360 47 358 44Q323 14 287.5 1.0Q252 -12 215 -12ZM81 255 80 267 308 271V256Z"/></g><g transform="translate(175.97 103.00) scale(0.01900 -0.01900)"><path d="M313 -6Q309 -8 305 -8Q293 -8 283.0 13.0Q273 34 273 74V267Q273 329 253.5 353.0Q234 377 205 377Q180 377 163.5 365.5Q147 354 138.5 337.0Q130 320 126 305Q124 295 119.0 281.5Q114 268 94 268Q79 268 71.5 277.0Q64 286 64 296Q64 313 82.0 330.5Q100 348 127.5 363.0Q155 378 185.0 387.0Q215 396 240 396Q281 396 300.0 369.5Q319 343 319 297V108Q319 72 327.5 55.5Q336 39 357 39Q376 39 412 54Q417 56 419.0 50.5Q421 45 416 43ZM136 -7Q99 -7 79.5 13.5Q60 34 60 61Q60 78 68.5 94.0Q77 110 98.5 125.0Q120 140 158 154L283 201L285 188L167 143Q146 135 135.0 125.5Q124 116 120.0 105.5Q116 95 116 84Q116 62 130.5 44.0Q145 26 173 26Q184 26 196.0 29.5Q208 33 225 43L292 82L294 70L219 23Q194 7 175.0 0.0Q156 -7 136 -7Z"/></g><g transform="translate(184.33 103.00) scale(0.01900 -0.01900)"><path d="M139 271 135 281Q172 327 195.5 351.5Q219 376 236.0 385.5Q253 395 269 395Q290 395 310.0 384.0Q330 373 330 357Q330 347 322.5 339.0Q315 331 301 331Q289 331 280.5 338.0Q272 345 262.0 351.5Q252 358 235 358Q226 358 215.5 352.5Q205 347 187.5 328.5Q170 310 139 271ZM46 0Q43 0 43.0 6.0Q43 12 46 12Q87 12 99.0 25.0Q111 38 111 81V281Q111 315 103.0 330.5Q95 346 75 346Q65 346 51.0 342.0Q37 338 19 331Q15 330 12.5 335.0Q10 340 14 342L125 394Q127 395 130 395Q137 395 147.5 374.5Q158 354 158 315V81Q158 52 165.0 37.0Q172 22 193.5 17.0Q215 12 258 12Q261 12 261.0 6.0Q261 0 258 0Q234 0 202.0 1.0Q170 2 135 2Q110 2 86.5 1.0Q63 0 46 0Z"/></g><g transform="translate(191.57 103.00) scale(0.01900 -0.01900)"><path d="M315 0Q312 0 312.0 6.0Q312 12 315 12Q356 12 368.0 25.0Q380 38 380 81V248Q380 309 357.0 337.0Q334 365 285 365Q247 365 207.5 340.0Q168 315 139 271L135 283Q182 345 225.0 372.0Q268 399 312 399Q367 399 397.0 369.5Q427 340 427 278V81Q427 38 438.5 25.0Q450 12 492 12Q495 12 495.0 6.0Q495 0 492 0Q475 0 452.0 1.0Q429 2 404 2Q379 2 355.5 1.0Q332 0 315 0ZM46 0Q43 0 43.0 6.0Q43 12 46 12Q87 12 99.0 25.0Q111 38 111 81V281Q111 315 103.0 330.5Q95 346 75 346Q65 346 51.0 342.0Q37 338 19 331Q15 330 12.5 335.0Q10 340 14 342L125 394Q127 395 130 395Q137 395 147.5 374.5Q158 354 158 315V81Q158 38 169.5 25.0Q181 12 223 12Q226 12 226.0 6.0Q226 0 223 0Q206 0 183.0 1.0Q160 2 135 2Q110 2 86.5 1.0Q63 0 46 0Z"/></g><g transform="translate(201.76 103.00) scale(0.01900 -0.01900)"><path d="M215 -12Q156 -12 116.5 15.5Q77 43 57.0 87.0Q37 131 37 180Q37 241 65.0 289.5Q93 338 140.5 366.5Q188 395 244 395Q301 395 329.0 364.0Q357 333 357 281Q357 268 354.5 262.0Q352 256 345 256H298Q303 318 278.5 346.5Q254 375 212 375Q156 375 125.0 332.5Q94 290 94 216Q94 160 112.0 115.5Q130 71 165.0 45.5Q200 20 250 20Q285 20 307.5 30.5Q330 41 351 54Q353 56 356.5 51.5Q360 47 358 44Q323 14 287.5 1.0Q252 -12 215 -12ZM81 255 80 267 308 271V256Z"/></g><g transform="translate(209.85 103.00) scale(0.01900 -0.01900)"><path d="M193 -13Q152 -13 116.0 11.0Q80 35 58.5 77.5Q37 120 37 177Q37 233 58.5 274.5Q80 316 114.0 343.5Q148 371 188.0 385.0Q228 399 265 399Q300 399 330.5 386.5Q361 374 387 351L378 287Q353 325 320.5 352.5Q288 380 235 380Q171 380 131.5 334.5Q92 289 92 206Q92 150 110.0 108.0Q128 66 159.0 43.0Q190 20 228 20Q274 20 310.0 46.0Q346 72 378 108L386 101Q365 77 337.0 50.5Q309 24 273.5 5.5Q238 -13 193 -13ZM412 718V108Q412 72 420.5 55.5Q429 39 450 39Q460 39 474.5 41.5Q489 44 505 54Q510 56 512.5 50.5Q515 45 510 43L407 -6Q403 -8 399 -8Q386 -8 375.5 14.5Q365 37 365 81V599Q365 635 358.0 651.5Q351 668 331 668Q322 668 311.0 664.0Q300 660 283 653Q279 651 276.5 657.0Q274 663 278 664L400 724Q402 725 405 725Q407 725 409.5 723.0Q412 721 412 718Z"/></g></g><rect x="232" y="94" width="175" height="8" rx="4" fill="#21262d"/><rect x="232" y="94" width="6.0" height="8" rx="4" fill="#e3b341"/><g fill="#e3b341"><g transform="translate(419.00 103.00) scale(0.01900 -0.01900)"><path d="M37 18.75018310546875Q99.74993896484375 71.000244140625 141.54986572265625 109.6002197265625Q183.34979248046875 148.2001953125 208.32473754882812 177.67514038085938Q233.2996826171875 207.15008544921875 244.22463989257812 232.22500610351562Q255.14959716796875 257.2999267578125 255.14959716796875 282.599853515625Q255.14959716796875 321.999755859375 232.47470092773438 348.0248107910156Q209.7998046875 374.04986572265625 171.6998291015625 374.04986572265625Q131.6998291015625 374.04986572265625 104.89990234375 341.1247863769531Q78.0999755859375 308.19970703125 59.2999267578125 247.64971923828125Q58.2999267578125 245.64971923828125 52.2999267578125 246.64971923828125Q46.2999267578125 247.64971923828125 47.2999267578125 250.19970703125L88 408Q89 411 95.0 409.5Q101 408 99 406Q95 388.64996337890625 100.5 383.64996337890625Q106 378.64996337890625 113 378.64996337890625Q128.9000244140625 378.64996337890625 154.17501831054688 388.8249816894531Q179.45001220703125 399 217.60009765625 399Q270.85015869140625 399 300.5251770019531 371.6750183105469Q330.2001953125 344.35003662109375 330.2001953125 301.25006103515625Q330.2001953125 271.2999267578125 314.8750915527344 243.32485961914062Q299.54998779296875 215.34979248046875 272.0749206542969 187.47482299804688Q244.599853515625 159.599853515625 207.42495727539062 129.72500610351562Q170.25006103515625 99.85015869140625 125.55047607421875 65.55047607421875Q122.00048828125 62.55047607421875 124.00048828125 60.55047607421875Q126.00048828125 58.55047607421875 130.00048828125 58.55047607421875Q195.85015869140625 58.55047607421875 239.02505493164062 59.825469970703125Q282.199951171875 61.1004638671875 307.3749694824219 66.65045166015625Q332.54998779296875 72.200439453125 345.0750427246094 84.67538452148438Q357.60009765625 97.15032958984375 363.15008544921875 119.000244140625Q364.15008544921875 121.9002685546875 369.65008544921875 121.17526245117188Q375.15008544921875 120.45025634765625 375.15008544921875 118.45025634765625L358 11Q358 7 355.5 3.5Q353 0 349 0Q278.45001220703125 0 198.04998779296875 0.0Q117.64996337890625 0 43.54998779296875 0Q39.0999755859375 0 36.0999755859375 7.375091552734375Q33.0999755859375 14.75018310546875 37 18.75018310546875Z"/></g></g><g fill="#c9d1d9"><g transform="translate(121.03 139.00) scale(0.01900 -0.01900)"><path d="M186 85Q186 55 194.5 39.5Q203 24 230.0 18.0Q257 12 311 12Q314 12 314.0 6.0Q314 0 311 0Q279 0 241.5 1.0Q204 2 160 2Q128 2 98.0 1.0Q68 0 44 0Q42 0 42.0 6.0Q42 12 44 12Q82 12 101.0 17.0Q120 22 126.5 37.0Q133 52 133 81V544Q133 573 126.5 587.5Q120 602 101.0 607.5Q82 613 44 613Q42 613 42.0 619.0Q42 625 44 625Q68 625 97.5 623.5Q127 622 159 622Q185 622 222.0 625.0Q259 628 299 628Q354 628 399.0 611.0Q444 594 470.5 558.0Q497 522 497 464Q497 411 477.0 373.0Q457 335 424.5 310.5Q392 286 353.0 274.0Q314 262 276 262Q263 262 250.5 263.0Q238 264 227 267Q223 268 224.5 274.5Q226 281 229 280Q238 278 247.5 277.0Q257 276 265 276Q309 276 348.0 294.0Q387 312 411.0 349.5Q435 387 435 444Q435 499 413.5 537.0Q392 575 356.0 595.0Q320 615 276 615Q240 615 220.5 611.5Q201 608 193.5 593.0Q186 578 186 542Z"/></g><g transform="translate(131.69 139.00) scale(0.01900 -0.01900)"><path d="M180 -7Q132 -7 104.0 23.5Q76 54 76 115V270Q76 311 70.0 328.5Q64 346 47 346Q32 346 11 336Q7 334 4.5 340.0Q2 346 6 347L111 394Q113 395 115 395Q117 395 120.0 393.0Q123 391 123 388V145Q123 84 144.0 55.5Q165 27 207 27Q248 27 289.0 51.5Q330 76 361 119L366 108Q317 46 272.0 19.5Q227 -7 180 -7ZM389 388V105Q389 71 397.5 55.5Q406 40 426 40Q437 40 450.0 44.0Q463 48 482 55Q487 57 489.0 51.5Q491 46 487 44L375 -8Q373 -9 371 -9Q364 -9 353.5 11.5Q343 32 343 71V270Q343 311 336.5 328.5Q330 346 313 346Q298 346 277 336Q273 334 271.0 340.0Q269 346 273 347L378 394Q380 395 381 395Q383 395 386.0 393.0Q389 391 389 388Z"/></g><g transform="translate(141.41 139.00) scale(0.01900 -0.01900)"><path d="M41 0Q38 0 38.0 6.0Q38 12 41 12Q82 12 94.0 25.0Q106 38 106 81V600Q106 636 99.0 652.5Q92 669 74 669Q58 669 26 654Q22 652 19.5 658.0Q17 664 21 665L144 724Q146 725 149 725Q151 725 153.5 723.0Q156 721 156 718V81Q156 39 167.5 25.5Q179 12 221 12Q224 12 224.0 6.0Q224 0 221 0Q204 0 180.5 1.0Q157 2 131 2Q106 2 82.0 1.0Q58 0 41 0Z"/></g><g transform="translate(146.67 139.00) scale(0.01900 -0.01900)"><path d="M41 0Q38 0 38.0 6.0Q38 12 41 12Q82 12 94.0 25.0Q106 38 106 81V600Q106 636 99.0 652.5Q92 669 74 669Q58 669 26 654Q22 652 19.5 658.0Q17 664 21 665L144 724Q146 725 149 725Q151 725 153.5 723.0Q156 721 156 718V81Q156 39 167.5 25.5Q179 12 221 12Q224 12 224.0 6.0Q224 0 221 0Q204 0 180.5 1.0Q157 2 131 2Q106 2 82.0 1.0Q58 0 41 0Z"/></g><g transform="translate(156.78 139.00) scale(0.01900 -0.01900)"><path d="M139 271 135 281Q172 327 195.5 351.5Q219 376 236.0 385.5Q253 395 269 395Q290 395 310.0 384.0Q330 373 330 357Q330 347 322.5 339.0Q315 331 301 331Q289 331 280.5 338.0Q272 345 262.0 351.5Q252 358 235 358Q226 358 215.5 352.5Q205 347 187.5 328.5Q170 310 139 271ZM46 0Q43 0 43.0 6.0Q43 12 46 12Q87 12 99.0 25.0Q111 38 111 81V281Q111 315 103.0 330.5Q95 346 75 346Q65 346 51.0 342.0Q37 338 19 331Q15 330 12.5 335.0Q10 340 14 342L125 394Q127 395 130 395Q137 395 147.5 374.5Q158 354 158 315V81Q158 52 165.0 37.0Q172 22 193.5 17.0Q215 12 258 12Q261 12 261.0 6.0Q261 0 258 0Q234 0 202.0 1.0Q170 2 135 2Q110 2 86.5 1.0Q63 0 46 0Z"/></g><g transform="translate(164.02 139.00) scale(0.01900 -0.01900)"><path d="M215 -12Q156 -12 116.5 15.5Q77 43 57.0 87.0Q37 131 37 180Q37 241 65.0 289.5Q93 338 140.5 366.5Q188 395 244 395Q301 395 329.0 364.0Q357 333 357 281Q357 268 354.5 262.0Q352 256 345 256H298Q303 318 278.5 346.5Q254 375 212 375Q156 375 125.0 332.5Q94 290 94 216Q94 160 112.0 115.5Q130 71 165.0 45.5Q200 20 250 20Q285 20 307.5 30.5Q330 41 351 54Q353 56 356.5 51.5Q360 47 358 44Q323 14 287.5 1.0Q252 -12 215 -12ZM81 255 80 267 308 271V256Z"/></g><g transform="translate(172.11 139.00) scale(0.01900 -0.01900)"><path d="M191 -13Q150 -13 115.0 8.5Q80 30 58.5 71.5Q37 113 37 171Q37 235 57.0 279.0Q77 323 109.0 349.5Q141 376 179.0 387.5Q217 399 253 399Q325 399 399 356L356 270Q356 304 339.5 328.5Q323 353 292.5 366.5Q262 380 220 380Q159 380 126.5 337.0Q94 294 94 202Q94 114 129.5 64.5Q165 15 221 15Q265 15 301.5 43.5Q338 72 370 108L378 101Q357 77 330.0 50.5Q303 24 268.5 5.5Q234 -13 191 -13ZM276 -275Q274 -275 274.0 -269.0Q274 -263 276 -263Q326 -263 341.0 -250.0Q356 -237 356 -194V356L446 388Q450 390 452.0 385.5Q454 381 450 379Q428 366 415.0 347.0Q402 328 402 295V-194Q402 -237 414.5 -250.0Q427 -263 468 -263Q470 -263 470.0 -269.0Q470 -275 468 -275Q450 -275 427.0 -274.0Q404 -273 378 -273Q350 -273 324.5 -274.0Q299 -275 276 -275Z"/></g><g transform="translate(181.71 139.00) scale(0.01900 -0.01900)"><path d="M180 -7Q132 -7 104.0 23.5Q76 54 76 115V270Q76 311 70.0 328.5Q64 346 47 346Q32 346 11 336Q7 334 4.5 340.0Q2 346 6 347L111 394Q113 395 115 395Q117 395 120.0 393.0Q123 391 123 388V145Q123 84 144.0 55.5Q165 27 207 27Q248 27 289.0 51.5Q330 76 361 119L366 108Q317 46 272.0 19.5Q227 -7 180 -7ZM389 388V105Q389 71 397.5 55.5Q406 40 426 40Q437 40 450.0 44.0Q463 48 482 55Q487 57 489.0 51.5Q491 46 487 44L375 -8Q373 -9 371 -9Q364 -9 353.5 11.5Q343 32 343 71V270Q343 311 336.5 328.5Q330 346 313 346Q298 346 277 336Q273 334 271.0 340.0Q269 346 273 347L378 394Q380 395 381 395Q383 395 386.0 393.0Q389 391 389 388Z"/></g><g transform="translate(191.42 139.00) scale(0.01900 -0.01900)"><path d="M215 -12Q156 -12 116.5 15.5Q77 43 57.0 87.0Q37 131 37 180Q37 241 65.0 289.5Q93 338 140.5 366.5Q188 395 244 395Q301 395 329.0 364.0Q357 333 357 281Q357 268 354.5 262.0Q352 256 345 256H298Q303 318 278.5 346.5Q254 375 212 375Q156 375 125.0 332.5Q94 290 94 216Q94 160 112.0 115.5Q130 71 165.0 45.5Q200 20 250 20Q285 20 307.5 30.5Q330 41 351 54Q353 56 356.5 51.5Q360 47 358 44Q323 14 287.5 1.0Q252 -12 215 -12ZM81 255 80 267 308 271V256Z"/></g><g transform="translate(199.52 139.00) scale(0.01900 -0.01900)"><path d="M96 322Q96 295 109.5 276.5Q123 258 144.5 245.5Q166 233 189 221Q215 209 238.0 194.5Q261 180 276.0 160.0Q291 140 291 108Q291 76 275.0 49.0Q259 22 227.5 5.5Q196 -11 151 -11Q127 -11 104.0 -4.5Q81 2 57 20Q55 22 53.0 25.0Q51 28 51 32L49 104Q49 107 54.5 107.5Q60 108 61 105Q74 71 91.5 49.5Q109 28 131.0 18.0Q153 8 180 8Q215 8 233.5 24.5Q252 41 250 74Q249 103 235.0 121.0Q221 139 200.0 151.0Q179 163 156 174Q131 186 108.5 199.5Q86 213 71.5 234.0Q57 255 57 288Q57 326 77.0 350.5Q97 375 127.5 387.0Q158 399 191 399Q209 399 227.0 395.5Q245 392 262 384Q271 380 271 373Q271 358 270.0 341.0Q269 324 269 304Q269 302 263.0 302.0Q257 302 257 304Q257 327 240.5 344.0Q224 361 200.5 370.0Q177 379 154 379Q127 379 111.5 365.0Q96 351 96 322Z"/></g><g transform="translate(206.34 139.00) scale(0.01900 -0.01900)"><path d="M189 -12Q165 -12 143.5 -4.5Q122 3 109.0 20.5Q96 38 96 68V306Q96 331 93.0 342.5Q90 354 79.0 357.5Q68 361 44 361Q41 361 41.0 367.0Q41 373 44 373Q82 373 105.5 394.0Q129 415 129 447Q129 450 136.5 450.0Q144 450 144 447V102Q144 60 164.5 39.5Q185 19 225 19Q252 19 272.5 27.5Q293 36 306 46Q310 48 313.0 43.5Q316 39 312 36Q275 10 247.0 -1.0Q219 -12 189 -12ZM282 338Q243 348 207.5 350.5Q172 353 132 353V374Q171 374 207.5 377.0Q244 380 285 384Q288 384 290.0 377.5Q292 371 292 361Q292 354 289.0 345.5Q286 337 282 338Z"/></g><g transform="translate(213.18 139.00) scale(0.01900 -0.01900)"><path d="M96 322Q96 295 109.5 276.5Q123 258 144.5 245.5Q166 233 189 221Q215 209 238.0 194.5Q261 180 276.0 160.0Q291 140 291 108Q291 76 275.0 49.0Q259 22 227.5 5.5Q196 -11 151 -11Q127 -11 104.0 -4.5Q81 2 57 20Q55 22 53.0 25.0Q51 28 51 32L49 104Q49 107 54.5 107.5Q60 108 61 105Q74 71 91.5 49.5Q109 28 131.0 18.0Q153 8 180 8Q215 8 233.5 24.5Q252 41 250 74Q249 103 235.0 121.0Q221 139 200.0 151.0Q179 163 156 174Q131 186 108.5 199.5Q86 213 71.5 234.0Q57 255 57 288Q57 326 77.0 350.5Q97 375 127.5 387.0Q158 399 191 399Q209 399 227.0 395.5Q245 392 262 384Q271 380 271 373Q271 358 270.0 341.0Q269 324 269 304Q269 302 263.0 302.0Q257 302 257 304Q257 327 240.5 344.0Q224 361 200.5 370.0Q177 379 154 379Q127 379 111.5 365.0Q96 351 96 322Z"/></g></g><rect x="232" y="130" width="175" height="8" rx="4" fill="#21262d"/><rect x="232" y="130" width="6.0" height="8" rx="4" fill="#ff6ec7"/><g fill="#ff6ec7"><g transform="translate(419.00 139.00) scale(0.01900 -0.01900)"><path d="M240.03684963481894 -13Q179.58743066527413 -13 132.4573751974934 14.0Q85.3273197297127 41 58.688592726184474 87.99285694909474Q32.04986572265625 134.9857138981895 32.04986572265625 195.54998779296875Q32.04986572265625 255.7288005904646 58.724884033203125 301.3644002952323Q85.39990234375 347 132.8635798002544 373.0Q180.32725725675883 399 240.54998779296875 399Q301.3439553750528 399 347.19703261916703 372.5Q393.05010986328125 346 419.0001220703125 299.5Q444.95013427734375 253 444.95013427734375 193Q444.95013427734375 133 418.8236904854218 86.5Q392.69724669349995 40 346.5917576489319 13.5Q300.4862686043638 -13 240.03684963481894 -13ZM250.54998779296875 3.05010986328125Q307.999755859375 3.05010986328125 335.6746520996094 51.800048828125Q363.34954833984375 100.54998779296875 363.34954833984375 180.0999755859375Q363.34954833984375 251.54998779296875 344.8246154785156 296.14996337890625Q326.2996826171875 340.74993896484375 296.21374227834303 361.84991455078125Q266.12780193949857 382.94989013671875 230.7325780114462 382.94989013671875Q174.1002197265625 382.94989013671875 143.37533569335938 333.199951171875Q112.65045166015625 283.45001220703125 112.65045166015625 204.9000244140625Q112.65045166015625 146.45001220703125 129.62539672851562 100.85003662109375Q146.600341796875 55.25006103515625 177.6963897444244 29.15008544921875Q208.79243769197382 3.05010986328125 250.54998779296875 3.05010986328125Z"/></g></g><g fill="#c9d1d9"><g transform="translate(175.06 175.00) scale(0.01900 -0.01900)"><path d="M192 81Q192 52 198.0 37.0Q204 22 223.5 17.0Q243 12 281 12Q283 12 283.0 6.0Q283 0 281 0Q257 0 228.0 1.0Q199 2 164 2Q131 2 101.5 1.0Q72 0 48 0Q45 0 45.0 6.0Q45 12 48 12Q86 12 105.5 17.0Q125 22 131.5 37.0Q138 52 138 81V544Q138 573 131.5 587.5Q125 602 105.5 607.5Q86 613 48 613Q45 613 45.0 619.0Q45 625 48 625Q72 625 101.5 623.5Q131 622 164 622Q199 622 228.5 623.5Q258 625 281 625Q283 625 283.0 619.0Q283 613 281 613Q243 613 224.0 607.0Q205 601 198.5 586.0Q192 571 192 542Z"/></g><g transform="translate(181.73 175.00) scale(0.01900 -0.01900)"><path d="M96 322Q96 295 109.5 276.5Q123 258 144.5 245.5Q166 233 189 221Q215 209 238.0 194.5Q261 180 276.0 160.0Q291 140 291 108Q291 76 275.0 49.0Q259 22 227.5 5.5Q196 -11 151 -11Q127 -11 104.0 -4.5Q81 2 57 20Q55 22 53.0 25.0Q51 28 51 32L49 104Q49 107 54.5 107.5Q60 108 61 105Q74 71 91.5 49.5Q109 28 131.0 18.0Q153 8 180 8Q215 8 233.5 24.5Q252 41 250 74Q249 103 235.0 121.0Q221 139 200.0 151.0Q179 163 156 174Q131 186 108.5 199.5Q86 213 71.5 234.0Q57 255 57 288Q57 326 77.0 350.5Q97 375 127.5 387.0Q158 399 191 399Q209 399 227.0 395.5Q245 392 262 384Q271 380 271 373Q271 358 270.0 341.0Q269 324 269 304Q269 302 263.0 302.0Q257 302 257 304Q257 327 240.5 344.0Q224 361 200.5 370.0Q177 379 154 379Q127 379 111.5 365.0Q96 351 96 322Z"/></g><g transform="translate(188.55 175.00) scale(0.01900 -0.01900)"><path d="M96 322Q96 295 109.5 276.5Q123 258 144.5 245.5Q166 233 189 221Q215 209 238.0 194.5Q261 180 276.0 160.0Q291 140 291 108Q291 76 275.0 49.0Q259 22 227.5 5.5Q196 -11 151 -11Q127 -11 104.0 -4.5Q81 2 57 20Q55 22 53.0 25.0Q51 28 51 32L49 104Q49 107 54.5 107.5Q60 108 61 105Q74 71 91.5 49.5Q109 28 131.0 18.0Q153 8 180 8Q215 8 233.5 24.5Q252 41 250 74Q249 103 235.0 121.0Q221 139 200.0 151.0Q179 163 156 174Q131 186 108.5 199.5Q86 213 71.5 234.0Q57 255 57 288Q57 326 77.0 350.5Q97 375 127.5 387.0Q158 399 191 399Q209 399 227.0 395.5Q245 392 262 384Q271 380 271 373Q271 358 270.0 341.0Q269 324 269 304Q269 302 263.0 302.0Q257 302 257 304Q257 327 240.5 344.0Q224 361 200.5 370.0Q177 379 154 379Q127 379 111.5 365.0Q96 351 96 322Z"/></g><g transform="translate(195.37 175.00) scale(0.01900 -0.01900)"><path d="M180 -7Q132 -7 104.0 23.5Q76 54 76 115V270Q76 311 70.0 328.5Q64 346 47 346Q32 346 11 336Q7 334 4.5 340.0Q2 346 6 347L111 394Q113 395 115 395Q117 395 120.0 393.0Q123 391 123 388V145Q123 84 144.0 55.5Q165 27 207 27Q248 27 289.0 51.5Q330 76 361 119L366 108Q317 46 272.0 19.5Q227 -7 180 -7ZM389 388V105Q389 71 397.5 55.5Q406 40 426 40Q437 40 450.0 44.0Q463 48 482 55Q487 57 489.0 51.5Q491 46 487 44L375 -8Q373 -9 371 -9Q364 -9 353.5 11.5Q343 32 343 71V270Q343 311 336.5 328.5Q330 346 313 346Q298 346 277 336Q273 334 271.0 340.0Q269 346 273 347L378 394Q380 395 381 395Q383 395 386.0 393.0Q389 391 389 388Z"/></g><g transform="translate(205.08 175.00) scale(0.01900 -0.01900)"><path d="M215 -12Q156 -12 116.5 15.5Q77 43 57.0 87.0Q37 131 37 180Q37 241 65.0 289.5Q93 338 140.5 366.5Q188 395 244 395Q301 395 329.0 364.0Q357 333 357 281Q357 268 354.5 262.0Q352 256 345 256H298Q303 318 278.5 346.5Q254 375 212 375Q156 375 125.0 332.5Q94 290 94 216Q94 160 112.0 115.5Q130 71 165.0 45.5Q200 20 250 20Q285 20 307.5 30.5Q330 41 351 54Q353 56 356.5 51.5Q360 47 358 44Q323 14 287.5 1.0Q252 -12 215 -12ZM81 255 80 267 308 271V256Z"/></g><g transform="translate(213.18 175.00) scale(0.01900 -0.01900)"><path d="M96 322Q96 295 109.5 276.5Q123 258 144.5 245.5Q166 233 189 221Q215 209 238.0 194.5Q261 180 276.0 160.0Q291 140 291 108Q291 76 275.0 49.0Q259 22 227.5 5.5Q196 -11 151 -11Q127 -11 104.0 -4.5Q81 2 57 20Q55 22 53.0 25.0Q51 28 51 32L49 104Q49 107 54.5 107.5Q60 108 61 105Q74 71 91.5 49.5Q109 28 131.0 18.0Q153 8 180 8Q215 8 233.5 24.5Q252 41 250 74Q249 103 235.0 121.0Q221 139 200.0 151.0Q179 163 156 174Q131 186 108.5 199.5Q86 213 71.5 234.0Q57 255 57 288Q57 326 77.0 350.5Q97 375 127.5 387.0Q158 399 191 399Q209 399 227.0 395.5Q245 392 262 384Q271 380 271 373Q271 358 270.0 341.0Q269 324 269 304Q269 302 263.0 302.0Q257 302 257 304Q257 327 240.5 344.0Q224 361 200.5 370.0Q177 379 154 379Q127 379 111.5 365.0Q96 351 96 322Z"/></g></g><rect x="232" y="166" width="175" height="8" rx="4" fill="#21262d"/><rect x="232" y="166" width="6.0" height="8" rx="4" fill="#86a8e7"/><g fill="#86a8e7"><g transform="translate(419.00 175.00) scale(0.01900 -0.01900)"><path d="M240.03684963481894 -13Q179.58743066527413 -13 132.4573751974934 14.0Q85.3273197297127 41 58.688592726184474 87.99285694909474Q32.04986572265625 134.9857138981895 32.04986572265625 195.54998779296875Q32.04986572265625 255.7288005904646 58.724884033203125 301.3644002952323Q85.39990234375 347 132.8635798002544 373.0Q180.32725725675883 399 240.54998779296875 399Q301.3439553750528 399 347.19703261916703 372.5Q393.05010986328125 346 419.0001220703125 299.5Q444.95013427734375 253 444.95013427734375 193Q444.95013427734375 133 418.8236904854218 86.5Q392.69724669349995 40 346.5917576489319 13.5Q300.4862686043638 -13 240.03684963481894 -13ZM250.54998779296875 3.05010986328125Q307.999755859375 3.05010986328125 335.6746520996094 51.800048828125Q363.34954833984375 100.54998779296875 363.34954833984375 180.0999755859375Q363.34954833984375 251.54998779296875 344.8246154785156 296.14996337890625Q326.2996826171875 340.74993896484375 296.21374227834303 361.84991455078125Q266.12780193949857 382.94989013671875 230.7325780114462 382.94989013671875Q174.1002197265625 382.94989013671875 143.37533569335938 333.199951171875Q112.65045166015625 283.45001220703125 112.65045166015625 204.9000244140625Q112.65045166015625 146.45001220703125 129.62539672851562 100.85003662109375Q146.600341796875 55.25006103515625 177.6963897444244 29.15008544921875Q208.79243769197382 3.05010986328125 250.54998779296875 3.05010986328125Z"/></g></g></svg>