<svg width="350" height="168" viewBox="0 0 350 168" fill="none"
     xmlns="http://www.w3.org/2000/svg" role="img" aria-label="Most used languages">
  <style>
    .title { font: 600 17px 'Segoe UI', Ubuntu, Sans-Serif; fill: #d16ba5; }
    .label { font: 400 13px 'Segoe UI', Ubuntu, Sans-Serif; fill: #c9d1d9; }
    .muted { font: 400 11px 'Segoe UI', Ubuntu, Sans-Serif; fill: #8b949e; }
    .value { font: 700 14px 'Segoe UI', Ubuntu, Sans-Serif; fill: #ff6ec7; }
    .big   { font: 800 34px 'Segoe UI', Ubuntu, Sans-Serif; fill: #ffffff; }
    .mid   { font: 800 26px 'Segoe UI', Ubuntu, Sans-Serif; fill: #ffffff; }
    .fadein { opacity: 0; animation: fade .6s ease forwards; }
    @keyframes fade { to { opacity: 1; } }
    @media (prefers-reduced-motion: reduce) { .fadein { animation: none; opacity: 1; } }
  </style>
  <rect width="350" height="168" rx="10" fill="#0d1117"/>
<text x="25" y="35" class="title">Most Used Languages</text><g class="fadein"><rect x="25.0" y="52" width="114.6" height="10" fill="#DA5B0B"/><rect x="139.6" y="52" width="91.8" height="10" fill="#3572A5"/><rect x="231.4" y="52" width="39.8" height="10" fill="#f1e05a"/><rect x="271.2" y="52" width="19.9" height="10" fill="#3178c6"/><rect x="291.1" y="52" width="19.6" height="10" fill="#b07219"/><rect x="310.6" y="52" width="14.4" height="10" fill="#663399"/><rect x="25" y="52" width="300" height="10" rx="5" fill="none" stroke="#0d1117" stroke-width="0"/></g><g class="fadein" style="animation-delay:0.00s"><circle cx="25.0" cy="86" r="5" fill="#DA5B0B"/><text x="37.0" y="90" class="label">Jupyter Notebook</text><text x="132.0" y="90" class="muted">38.2%</text></g><g class="fadein" style="animation-delay:0.10s"><circle cx="185.0" cy="86" r="5" fill="#3572A5"/><text x="197.0" y="90" class="label">Python</text><text x="292.0" y="90" class="muted">30.6%</text></g><g class="fadein" style="animation-delay:0.20s"><circle cx="25.0" cy="112" r="5" fill="#f1e05a"/><text x="37.0" y="116" class="label">JavaScript</text><text x="132.0" y="116" class="muted">13.3%</text></g><g class="fadein" style="animation-delay:0.30s"><circle cx="185.0" cy="112" r="5" fill="#3178c6"/><text x="197.0" y="116" class="label">TypeScript</text><text x="292.0" y="116" class="muted">6.6%</text></g><g class="fadein" style="animation-delay:0.40s"><circle cx="25.0" cy="138" r="5" fill="#b07219"/><text x="37.0" y="142" class="label">Java</text><text x="132.0" y="142" class="muted">6.5%</text></g><g class="fadein" style="animation-delay:0.50s"><circle cx="185.0" cy="138" r="5" fill="#663399"/><text x="197.0" y="142" class="label">CSS</text><text x="292.0" y="142" class="muted">4.8%</text></g></svg>