<svg width="360" height="254" viewBox="0 0 360 254" xmlns="http://www.w3.org/2000/svg" role="img" aria-label="Most used languages"><rect width="360" height="254" rx="10" fill="#0d1117"/><g fill="#f2b8d4"><g transform="translate(24.00 42.00) scale(0.02400 -0.02400)"><path d="M120 104 130 602 152 600 143 104Q142 53 159.5 32.5Q177 12 227 12Q229 12 229.0 6.0Q229 0 227 0Q205 0 181.5 1.0Q158 2 130 2Q106 2 84.0 1.0Q62 0 42 0Q40 0 40.0 6.0Q40 12 42 12Q84 12 101.5 32.5Q119 53 120 104ZM807 12Q810 12 810.0 6.0Q810 0 807 0Q783 0 753.5 1.0Q724 2 691 2Q660 2 634.0 1.0Q608 0 587 0Q585 0 585.0 6.0Q585 12 587 12Q637 12 651.5 25.0Q666 38 664 81L646 574L675 611L413 7Q412 3 405.0 3.0Q398 3 396 7L152 542Q120 613 49 613Q47 613 47.0 619.0Q47 625 49 625Q64 625 81.0 624.0Q98 623 109 623Q123 623 135.0 624.0Q147 625 153 625Q167 625 175.0 616.0Q183 607 199 573L428 78L402 36L648 600Q653 611 661.5 618.0Q670 625 678 625Q683 625 693.0 624.0Q703 623 716 623Q742 623 758.0 624.0Q774 625 792 625Q794 625 794.0 619.0Q794 613 792 613Q743 613 720.0 600.5Q697 588 698 546L717 81Q718 52 724.5 37.0Q731 22 750.0 17.0Q769 12 807 12Z"/></g><g transform="translate(44.92 42.00) scale(0.02400 -0.02400)"><path d="M230 -13Q171 -13 127.5 16.0Q84 45 60.5 93.5Q37 142 37 198Q37 250 56.0 288.0Q75 326 106.5 350.5Q138 375 175.0 387.0Q212 399 248 399Q308 399 351.0 369.0Q394 339 417.0 292.0Q440 245 440 193Q440 129 411.0 83.0Q382 37 334.5 12.0Q287 -13 230 -13ZM258 5Q314 5 348.0 42.5Q382 80 382 167Q382 228 361.0 276.0Q340 324 302.5 352.0Q265 380 215 380Q158 380 126.0 340.5Q94 301 94 227Q94 168 114.5 117.0Q135 66 172.0 35.5Q209 5 258 5Z"/></g><g transform="translate(57.37 42.00) scale(0.02400 -0.02400)"><path d="M96 322Q96 295 109.5 276.5Q123 258 144.5 245.5Q166 233 189 221Q215 209 238.0 194.5Q261 180 276.0 160.0Q291 140 291 108Q291 76 275.0 49.0Q259 22 227.5 5.5Q196 -11 151 -11Q127 -11 104.0 -4.5Q81 2 57 20Q55 22 53.0 25.0Q51 28 51 32L49 104Q49 107 54.5 107.5Q60 108 61 105Q74 71 91.5 49.5Q109 28 131.0 18.0Q153 8 180 8Q215 8 233.5 24.5Q252 41 250 74Q249 103 235.0 121.0Q221 139 200.0 151.0Q179 163 156 174Q131 186 108.5 199.5Q86 213 71.5 234.0Q57 255 57 288Q57 326 77.0 350.5Q97 375 127.5 387.0Q158 399 191 399Q209 399 227.0 395.5Q245 392 262 384Q271 380 271 373Q271 358 270.0 341.0Q269 324 269 304Q269 302 263.0 302.0Q257 302 257 304Q257 327 240.5 344.0Q224 361 200.5 370.0Q177 379 154 379Q127 379 111.5 365.0Q96 351 96 322Z"/></g><g transform="translate(66.48 42.00) scale(0.02400 -0.02400)"><path d="M189 -12Q165 -12 143.5 -4.5Q122 3 109.0 20.5Q96 38 96 68V306Q96 331 93.0 342.5Q90 354 79.0 357.5Q68 361 44 361Q41 361 41.0 367.0Q41 373 44 373Q82 373 105.5 394.0Q129 415 129 447Q129 450 136.5 450.0Q144 450 144 447V102Q144 60 164.5 39.5Q185 19 225 19Q252 19 272.5 27.5Q293 36 306 46Q310 48 313.0 43.5Q316 39 312 36Q275 10 247.0 -1.0Q219 -12 189 -12ZM282 338Q243 348 207.5 350.5Q172 353 132 353V374Q171 374 207.5 377.0Q244 380 285 384Q288 384 290.0 377.5Q292 371 292 361Q292 354 289.0 345.5Q286 337 282 338Z"/></g><g transform="translate(82.23 42.00) scale(0.02400 -0.02400)"><path d="M572 520Q572 568 551.5 590.5Q531 613 487 613Q484 613 484.0 619.0Q484 625 487 625Q509 625 532.5 623.5Q556 622 584 622Q607 622 630.5 623.5Q654 625 673 625Q675 625 675.0 619.0Q675 613 673 613Q633 613 613.5 590.5Q594 568 594 520V234Q594 155 565.0 100.0Q536 45 483.5 16.0Q431 -13 361 -13Q287 -13 232.0 16.5Q177 46 147.0 99.5Q117 153 117 225V544Q117 573 110.5 587.5Q104 602 85.0 607.5Q66 613 28 613Q26 613 26.0 619.0Q26 625 28 625Q52 625 81.0 623.5Q110 622 143 622Q177 622 206.5 623.5Q236 625 258 625Q261 625 261.0 619.0Q261 613 258 613Q220 613 201.0 607.0Q182 601 176.0 586.0Q170 571 170 542V260Q170 142 225.0 79.0Q280 16 379 16Q471 16 521.5 74.0Q572 132 572 233Z"/></g><g transform="translate(99.96 42.00) scale(0.02400 -0.02400)"><path d="M96 322Q96 295 109.5 276.5Q123 258 144.5 245.5Q166 233 189 221Q215 209 238.0 194.5Q261 180 276.0 160.0Q291 140 291 108Q291 76 275.0 49.0Q259 22 227.5 5.5Q196 -11 151 -11Q127 -11 104.0 -4.5Q81 2 57 20Q55 22 53.0 25.0Q51 28 51 32L49 104Q49 107 54.5 107.5Q60 108 61 105Q74 71 91.5 49.5Q109 28 131.0 18.0Q153 8 180 8Q215 8 233.5 24.5Q252 41 250 74Q249 103 235.0 121.0Q221 139 200.0 151.0Q179 163 156 174Q131 186 108.5 199.5Q86 213 71.5 234.0Q57 255 57 288Q57 326 77.0 350.5Q97 375 127.5 387.0Q158 399 191 399Q209 399 227.0 395.5Q245 392 262 384Q271 380 271 373Q271 358 270.0 341.0Q269 324 269 304Q269 302 263.0 302.0Q257 302 257 304Q257 327 240.5 344.0Q224 361 200.5 370.0Q177 379 154 379Q127 379 111.5 365.0Q96 351 96 322Z"/></g><g transform="translate(109.07 42.00) scale(0.02400 -0.02400)"><path d="M215 -12Q156 -12 116.5 15.5Q77 43 57.0 87.0Q37 131 37 180Q37 241 65.0 289.5Q93 338 140.5 366.5Q188 395 244 395Q301 395 329.0 364.0Q357 333 357 281Q357 268 354.5 262.0Q352 256 345 256H298Q303 318 278.5 346.5Q254 375 212 375Q156 375 125.0 332.5Q94 290 94 216Q94 160 112.0 115.5Q130 71 165.0 45.5Q200 20 250 20Q285 20 307.5 30.5Q330 41 351 54Q353 56 356.5 51.5Q360 47 358 44Q323 14 287.5 1.0Q252 -12 215 -12ZM81 255 80 267 308 271V256Z"/></g><g transform="translate(119.79 42.00) scale(0.02400 -0.02400)"><path d="M193 -13Q152 -13 116.0 11.0Q80 35 58.5 77.5Q37 120 37 177Q37 233 58.5 274.5Q80 316 114.0 343.5Q148 371 188.0 385.0Q228 399 265 399Q300 399 330.5 386.5Q361 374 387 351L378 287Q353 325 320.5 352.5Q288 380 235 380Q171 380 131.5 334.5Q92 289 92 206Q92 150 110.0 108.0Q128 66 159.0 43.0Q190 20 228 20Q274 20 310.0 46.0Q346 72 378 108L386 101Q365 77 337.0 50.5Q309 24 273.5 5.5Q238 -13 193 -13ZM412 718V108Q412 72 420.5 55.5Q429 39 450 39Q460 39 474.5 41.5Q489 44 505 54Q510 56 512.5 50.5Q515 45 510 43L407 -6Q403 -8 399 -8Q386 -8 375.5 14.5Q365 37 365 81V599Q365 635 358.0 651.5Q351 668 331 668Q322 668 311.0 664.0Q300 660 283 653Q279 651 276.5 657.0Q274 663 278 664L400 724Q402 725 405 725Q407 725 409.5 723.0Q412 721 412 718Z"/></g><g transform="translate(139.72 42.00) scale(0.02400 -0.02400)"><path d="M178 543V85Q178 57 184.5 43.0Q191 29 209.5 24.0Q228 19 264 19H392Q445 19 473.0 54.0Q501 89 509 146Q509 149 514.5 148.5Q520 148 520 145Q517 119 514.0 82.5Q511 46 511 15Q511 0 496 0H36Q34 0 34.0 6.0Q34 12 36 12Q74 12 93.0 17.0Q112 22 118.5 37.0Q125 52 125 81V544Q125 573 118.5 587.5Q112 602 93.0 607.5Q74 613 36 613Q34 613 34.0 619.0Q34 625 36 625Q60 625 89.5 623.5Q119 622 151 622Q185 622 214.5 623.5Q244 625 267 625Q269 625 269.0 619.0Q269 613 267 613Q229 613 210.0 607.5Q191 602 184.5 587.0Q178 572 178 543Z"/></g><g transform="translate(153.44 42.00) scale(0.02400 -0.02400)"><path d="M313 -6Q309 -8 305 -8Q293 -8 283.0 13.0Q273 34 273 74V267Q273 329 253.5 353.0Q234 377 205 377Q180 377 163.5 365.5Q147 354 138.5 337.0Q130 320 126 305Q124 295 119.0 281.5Q114 268 94 268Q79 268 71.5 277.0Q64 286 64 296Q64 313 82.0 330.5Q100 348 127.5 363.0Q155 378 185.0 387.0Q215 396 240 396Q281 396 300.0 369.5Q319 343 319 297V108Q319 72 327.5 55.5Q336 39 357 39Q376 39 412 54Q417 56 419.0 50.5Q421 45 416 43ZM136 -7Q99 -7 79.5 13.5Q60 34 60 61Q60 78 68.5 94.0Q77 110 98.5 125.0Q120 140 158 154L283 201L285 188L167 143Q146 135 135.0 125.5Q124 116 120.0 105.5Q116 95 116 84Q116 62 130.5 44.0Q145 26 173 26Q184 26 196.0 29.5Q208 33 225 43L292 82L294 70L219 23Q194 7 175.0 0.0Q156 -7 136 -7Z"/></g><g transform="translate(164.50 42.00) scale(0.02400 -0.02400)"><path d="M315 0Q312 0 312.0 6.0Q312 12 315 12Q356 12 368.0 25.0Q380 38 380 81V248Q380 309 357.0 337.0Q334 365 285 365Q247 365 207.5 340.0Q168 315 139 271L135 283Q182 345 225.0 372.0Q268 399 312 399Q367 399 397.0 369.5Q427 340 427 278V81Q427 38 438.5 25.0Q450 12 492 12Q495 12 495.0 6.0Q495 0 492 0Q475 0 452.0 1.0Q429 2 404 2Q379 2 355.5 1.0Q332 0 315 0ZM46 0Q43 0 43.0 6.0Q43 12 46 12Q87 12 99.0 25.0Q111 38 111 81V281Q111 315 103.0 330.5Q95 346 75 346Q65 346 51.0 342.0Q37 338 19 331Q15 330 12.5 335.0Q10 340 14 342L125 394Q127 395 130 395Q137 395 147.5 374.5Q158 354 158 315V81Q158 38 169.5 25.0Q181 12 223 12Q226 12 226.0 6.0Q226 0 223 0Q206 0 183.0 1.0Q160 2 135 2Q110 2 86.5 1.0Q63 0 46 0Z"/></g><g transform="translate(177.86 42.00) scale(0.02400 -0.02400)"><path d="M179 -280Q109 -280 71.5 -248.5Q34 -217 34 -171Q34 -119 77.5 -73.5Q121 -28 195 14L206 1Q173 -15 145.0 -33.5Q117 -52 100.0 -77.5Q83 -103 83 -142Q83 -174 97.5 -198.5Q112 -223 141.5 -236.5Q171 -250 216 -250Q289 -250 336.5 -213.0Q384 -176 384 -112Q384 -71 363.5 -53.0Q343 -35 307.0 -30.5Q271 -26 223 -26Q177 -26 139.5 -22.5Q102 -19 80.0 -4.0Q58 11 58 44Q58 78 79.0 101.5Q100 125 136 156L147 146Q122 125 112.0 108.5Q102 92 102 74Q102 54 115.5 42.0Q129 30 162.0 24.5Q195 19 253 19Q275 19 304.0 18.0Q333 17 361.0 9.0Q389 1 407.5 -20.0Q426 -41 426 -81Q426 -122 405.5 -158.0Q385 -194 350.0 -221.5Q315 -249 270.5 -264.5Q226 -280 179 -280ZM211 133Q163 133 129.5 150.5Q96 168 78.0 197.5Q60 227 60 262Q60 298 78.5 327.5Q97 357 132.0 375.0Q167 393 216 393Q271 393 303.5 373.0Q336 353 350.0 323.0Q364 293 364 264Q364 231 346.5 201.0Q329 171 295.0 152.0Q261 133 211 133ZM229 147Q264 147 287.0 169.5Q310 192 310 244Q310 286 294.5 316.0Q279 346 253.0 362.5Q227 379 194 379Q159 379 136.0 357.5Q113 336 113 284Q113 236 131.0 205.5Q149 175 175.5 161.0Q202 147 229 147ZM301 319V353Q332 371 361.0 382.5Q390 394 425 394Q427 394 428.5 387.0Q430 380 430 373Q430 363 427.5 351.5Q425 340 421 342Q414 345 397.0 350.5Q380 356 356 356Q343 356 332.0 354.0Q321 352 310 349Z"/></g><g transform="translate(189.51 42.00) scale(0.02400 -0.02400)"><path d="M180 -7Q132 -7 104.0 23.5Q76 54 76 115V270Q76 311 70.0 328.5Q64 346 47 346Q32 346 11 336Q7 334 4.5 340.0Q2 346 6 347L111 394Q113 395 115 395Q117 395 120.0 393.0Q123 391 123 388V145Q123 84 144.0 55.5Q165 27 207 27Q248 27 289.0 51.5Q330 76 361 119L366 108Q317 46 272.0 19.5Q227 -7 180 -7ZM389 388V105Q389 71 397.5 55.5Q406 40 426 40Q437 40 450.0 44.0Q463 48 482 55Q487 57 489.0 51.5Q491 46 487 44L375 -8Q373 -9 371 -9Q364 -9 353.5 11.5Q343 32 343 71V270Q343 311 336.5 328.5Q330 346 313 346Q298 346 277 336Q273 334 271.0 340.0Q269 346 273 347L378 394Q380 395 381 395Q383 395 386.0 393.0Q389 391 389 388Z"/></g><g transform="translate(202.27 42.00) scale(0.02400 -0.02400)"><path d="M313 -6Q309 -8 305 -8Q293 -8 283.0 13.0Q273 34 273 74V267Q273 329 253.5 353.0Q234 377 205 377Q180 377 163.5 365.5Q147 354 138.5 337.0Q130 320 126 305Q124 295 119.0 281.5Q114 268 94 268Q79 268 71.5 277.0Q64 286 64 296Q64 313 82.0 330.5Q100 348 127.5 363.0Q155 378 185.0 387.0Q215 396 240 396Q281 396 300.0 369.5Q319 343 319 297V108Q319 72 327.5 55.5Q336 39 357 39Q376 39 412 54Q417 56 419.0 50.5Q421 45 416 43ZM136 -7Q99 -7 79.5 13.5Q60 34 60 61Q60 78 68.5 94.0Q77 110 98.5 125.0Q120 140 158 154L283 201L285 188L167 143Q146 135 135.0 125.5Q124 116 120.0 105.5Q116 95 116 84Q116 62 130.5 44.0Q145 26 173 26Q184 26 196.0 29.5Q208 33 225 43L292 82L294 70L219 23Q194 7 175.0 0.0Q156 -7 136 -7Z"/></g><g transform="translate(213.33 42.00) scale(0.02400 -0.02400)"><path d="M179 -280Q109 -280 71.5 -248.5Q34 -217 34 -171Q34 -119 77.5 -73.5Q121 -28 195 14L206 1Q173 -15 145.0 -33.5Q117 -52 100.0 -77.5Q83 -103 83 -142Q83 -174 97.5 -198.5Q112 -223 141.5 -236.5Q171 -250 216 -250Q289 -250 336.5 -213.0Q384 -176 384 -112Q384 -71 363.5 -53.0Q343 -35 307.0 -30.5Q271 -26 223 -26Q177 -26 139.5 -22.5Q102 -19 80.0 -4.0Q58 11 58 44Q58 78 79.0 101.5Q100 125 136 156L147 146Q122 125 112.0 108.5Q102 92 102 74Q102 54 115.5 42.0Q129 30 162.0 24.5Q195 19 253 19Q275 19 304.0 18.0Q333 17 361.0 9.0Q389 1 407.5 -20.0Q426 -41 426 -81Q426 -122 405.5 -158.0Q385 -194 350.0 -221.5Q315 -249 270.5 -264.5Q226 -280 179 -280ZM211 133Q163 133 129.5 150.5Q96 168 78.0 197.5Q60 227 60 262Q60 298 78.5 327.5Q97 357 132.0 375.0Q167 393 216 393Q271 393 303.5 373.0Q336 353 350.0 323.0Q364 293 364 264Q364 231 346.5 201.0Q329 171 295.0 152.0Q261 133 211 133ZM229 147Q264 147 287.0 169.5Q310 192 310 244Q310 286 294.5 316.0Q279 346 253.0 362.5Q227 379 194 379Q159 379 136.0 357.5Q113 336 113 284Q113 236 131.0 205.5Q149 175 175.5 161.0Q202 147 229 147ZM301 319V353Q332 371 361.0 382.5Q390 394 425 394Q427 394 428.5 387.0Q430 380 430 373Q430 363 427.5 351.5Q425 340 421 342Q414 345 397.0 350.5Q380 356 356 356Q343 356 332.0 354.0Q321 352 310 349Z"/></g><g transform="translate(224.98 42.00) scale(0.02400 -0.02400)"><path d="M215 -12Q156 -12 116.5 15.5Q77 43 57.0 87.0Q37 131 37 180Q37 241 65.0 289.5Q93 338 140.5 366.5Q188 395 244 395Q301 395 329.0 364.0Q357 333 357 281Q357 268 354.5 262.0Q352 256 345 256H298Q303 318 278.5 346.5Q254 375 212 375Q156 375 125.0 332.5Q94 290 94 216Q94 160 112.0 115.5Q130 71 165.0 45.5Q200 20 250 20Q285 20 307.5 30.5Q330 41 351 54Q353 56 356.5 51.5Q360 47 358 44Q323 14 287.5 1.0Q252 -12 215 -12ZM81 255 80 267 308 271V256Z"/></g><g transform="translate(235.70 42.00) scale(0.02400 -0.02400)"><path d="M96 322Q96 295 109.5 276.5Q123 258 144.5 245.5Q166 233 189 221Q215 209 238.0 194.5Q261 180 276.0 160.0Q291 140 291 108Q291 76 275.0 49.0Q259 22 227.5 5.5Q196 -11 151 -11Q127 -11 104.0 -4.5Q81 2 57 20Q55 22 53.0 25.0Q51 28 51 32L49 104Q49 107 54.5 107.5Q60 108 61 105Q74 71 91.5 49.5Q109 28 131.0 18.0Q153 8 180 8Q215 8 233.5 24.5Q252 41 250 74Q249 103 235.0 121.0Q221 139 200.0 151.0Q179 163 156 174Q131 186 108.5 199.5Q86 213 71.5 234.0Q57 255 57 288Q57 326 77.0 350.5Q97 375 127.5 387.0Q158 399 191 399Q209 399 227.0 395.5Q245 392 262 384Q271 380 271 373Q271 358 270.0 341.0Q269 324 269 304Q269 302 263.0 302.0Q257 302 257 304Q257 327 240.5 344.0Q224 361 200.5 370.0Q177 379 154 379Q127 379 111.5 365.0Q96 351 96 322Z"/></g></g><clipPath id="r"><rect x="24" y="58" width="312" height="9" rx="4.5"/></clipPath><g clip-path="url(#r)"><rect x="24.0" y="58" width="118.9" height="9" fill="#DA5B0B"/><rect x="142.9" y="58" width="95.3" height="9" fill="#3572A5"/><rect x="238.3" y="58" width="41.3" height="9" fill="#f1e05a"/><rect x="279.5" y="58" width="21.2" height="9" fill="#3178c6"/><rect x="300.8" y="58" width="20.3" height="9" fill="#b07219"/><rect x="321.1" y="58" width="14.9" height="9" fill="#663399"/></g><circle cx="29" cy="95" r="5" fill="#DA5B0B"/><g fill="#c9d1d9"><g transform="translate(42.00 100.00) scale(0.01800 -0.01800)"><path d="M275 625Q277 625 277.0 619.0Q277 613 275 613Q242 613 225.5 607.0Q209 601 203.5 586.0Q198 571 198 542V-34Q198 -126 155.5 -185.0Q113 -244 27 -244Q-7 -244 -25.0 -233.0Q-43 -222 -43 -206Q-43 -192 -35.0 -184.5Q-27 -177 -14 -177Q3 -177 11.5 -184.0Q20 -191 26.0 -200.5Q32 -210 40.5 -217.5Q49 -225 65 -225Q103 -225 123.5 -182.5Q144 -140 144 -43V544Q144 573 136.5 587.5Q129 602 107.5 607.5Q86 613 42 613Q40 613 40.0 619.0Q40 625 42 625Q71 625 103.0 623.5Q135 622 170 622Q202 622 228.0 623.5Q254 625 275 625Z"/></g><g transform="translate(48.12 100.00) scale(0.01800 -0.01800)"><path d="M180 -7Q132 -7 104.0 23.5Q76 54 76 115V270Q76 311 70.0 328.5Q64 346 47 346Q32 346 11 336Q7 334 4.5 340.0Q2 346 6 347L111 394Q113 395 115 395Q117 395 120.0 393.0Q123 391 123 388V145Q123 84 144.0 55.5Q165 27 207 27Q248 27 289.0 51.5Q330 76 361 119L366 108Q317 46 272.0 19.5Q227 -7 180 -7ZM389 388V105Q389 71 397.5 55.5Q406 40 426 40Q437 40 450.0 44.0Q463 48 482 55Q487 57 489.0 51.5Q491 46 487 44L375 -8Q373 -9 371 -9Q364 -9 353.5 11.5Q343 32 343 71V270Q343 311 336.5 328.5Q330 346 313 346Q298 346 277 336Q273 334 271.0 340.0Q269 346 273 347L378 394Q380 395 381 395Q383 395 386.0 393.0Q389 391 389 388Z"/></g><g transform="translate(57.34 100.00) scale(0.01800 -0.01800)"><path d="M33 -275Q30 -275 30.0 -269.0Q30 -263 33 -263Q74 -263 86.0 -250.0Q98 -237 98 -194V278Q98 314 90.0 330.5Q82 347 61 347Q51 347 37.0 343.5Q23 340 6 332Q2 331 -0.5 336.0Q-3 341 1 343L104 392Q108 394 112 394Q126 394 135.5 371.5Q145 349 145 305V-194Q145 -222 152.5 -237.0Q160 -252 182.5 -257.5Q205 -263 248 -263Q250 -263 250.0 -269.0Q250 -275 248 -275Q222 -275 190.0 -274.0Q158 -273 123 -273Q98 -273 74.0 -274.0Q50 -275 33 -275ZM256 -13Q218 -13 188.5 -3.0Q159 7 124 35L133 88Q162 53 197.0 30.0Q232 7 289 7Q342 7 378.5 54.0Q415 101 415 184Q415 273 376.5 319.5Q338 366 282 366Q236 366 201.0 340.0Q166 314 133 278L125 285Q176 344 223.0 371.5Q270 399 318 399Q359 399 393.5 377.5Q428 356 449.0 315.0Q470 274 470 215Q470 155 449.0 112.0Q428 69 394.5 41.5Q361 14 324.5 0.5Q288 -13 256 -13Z"/></g><g transform="translate(66.92 100.00) scale(0.01800 -0.01800)"><path d="M429 386Q432 386 432.0 380.0Q432 374 429 374Q406 374 389.0 360.0Q372 346 357 305L232 -28Q196 -124 163.0 -179.5Q130 -235 94.5 -258.0Q59 -281 14 -281Q-5 -281 -19.5 -272.0Q-34 -263 -34 -244Q-34 -232 -25.5 -225.5Q-17 -219 -7 -219Q13 -219 23.5 -224.5Q34 -230 43.5 -236.0Q53 -242 69 -242Q94 -242 117.0 -219.0Q140 -196 166.5 -141.0Q193 -86 229 9V-13L74 303Q52 347 39.5 360.5Q27 374 8 374Q6 374 6.0 380.0Q6 386 8 386Q23 386 39.0 385.0Q55 384 70 384Q102 384 126.5 385.0Q151 386 171 386Q173 386 173.0 380.0Q173 374 171 374Q140 374 121.5 366.0Q103 358 115 335L255 48L235 11L336 301Q351 345 335.0 359.5Q319 374 263 374Q261 374 261.0 380.0Q261 386 263 386Q287 386 308.5 385.0Q330 384 364 384Q385 384 398.0 385.0Q411 386 429 386Z"/></g><g transform="translate(75.19 100.00) scale(0.01800 -0.01800)"><path d="M189 -12Q165 -12 143.5 -4.5Q122 3 109.0 20.5Q96 38 96 68V306Q96 331 93.0 342.5Q90 354 79.0 357.5Q68 361 44 361Q41 361 41.0 367.0Q41 373 44 373Q82 373 105.5 394.0Q129 415 129 447Q129 450 136.5 450.0Q144 450 144 447V102Q144 60 164.5 39.5Q185 19 225 19Q252 19 272.5 27.5Q293 36 306 46Q310 48 313.0 43.5Q316 39 312 36Q275 10 247.0 -1.0Q219 -12 189 -12ZM282 338Q243 348 207.5 350.5Q172 353 132 353V374Q171 374 207.5 377.0Q244 380 285 384Q288 384 290.0 377.5Q292 371 292 361Q292 354 289.0 345.5Q286 337 282 338Z"/></g><g transform="translate(81.69 100.00) scale(0.01800 -0.01800)"><path d="M215 -12Q156 -12 116.5 15.5Q77 43 57.0 87.0Q37 131 37 180Q37 241 65.0 289.5Q93 338 140.5 366.5Q188 395 244 395Q301 395 329.0 364.0Q357 333 357 281Q357 268 354.5 262.0Q352 256 345 256H298Q303 318 278.5 346.5Q254 375 212 375Q156 375 125.0 332.5Q94 290 94 216Q94 160 112.0 115.5Q130 71 165.0 45.5Q200 20 250 20Q285 20 307.5 30.5Q330 41 351 54Q353 56 356.5 51.5Q360 47 358 44Q323 14 287.5 1.0Q252 -12 215 -12ZM81 255 80 267 308 271V256Z"/></g><g transform="translate(89.38 100.00) scale(0.01800 -0.01800)"><path d="M139 271 135 281Q172 327 195.5 351.5Q219 376 236.0 385.5Q253 395 269 395Q290 395 310.0 384.0Q330 373 330 357Q330 347 322.5 339.0Q315 331 301 331Q289 331 280.5 338.0Q272 345 262.0 351.5Q252 358 235 358Q226 358 215.5 352.5Q205 347 187.5 328.5Q170 310 139 271ZM46 0Q43 0 43.0 6.0Q43 12 46 12Q87 12 99.0 25.0Q111 38 111 81V281Q111 315 103.0 330.5Q95 346 75 346Q65 346 51.0 342.0Q37 338 19 331Q15 330 12.5 335.0Q10 340 14 342L125 394Q127 395 130 395Q137 395 147.5 374.5Q158 354 158 315V81Q158 52 165.0 37.0Q172 22 193.5 17.0Q215 12 258 12Q261 12 261.0 6.0Q261 0 258 0Q234 0 202.0 1.0Q170 2 135 2Q110 2 86.5 1.0Q63 0 46 0Z"/></g><g transform="translate(100.87 100.00) scale(0.01800 -0.01800)"><path d="M118 104V602L140 600V104Q140 53 157.0 32.5Q174 12 216 12Q219 12 219.0 6.0Q219 0 216 0Q197 0 176.5 1.0Q156 2 131 2Q107 2 85.0 1.0Q63 0 43 0Q41 0 41.0 6.0Q41 12 43 12Q87 12 102.5 32.5Q118 53 118 104ZM621 -11Q621 -13 616.0 -13.5Q611 -14 609 -13L157 543Q123 584 96.5 598.5Q70 613 46 613Q43 613 43.0 619.0Q43 625 46 625Q63 625 81.0 624.0Q99 623 113 623Q127 623 139.5 624.0Q152 625 158 625Q171 625 176.0 613.5Q181 602 204 573L613 65ZM621 520V-11L599 20V520Q599 571 583.0 592.0Q567 613 525 613Q523 613 523.0 619.0Q523 625 525 625Q545 625 565.5 623.5Q586 622 611 622Q634 622 657.0 623.5Q680 625 699 625Q702 625 702.0 619.0Q702 613 699 613Q656 613 638.5 592.0Q621 571 621 520Z"/></g><g transform="translate(114.32 100.00) scale(0.01800 -0.01800)"><path d="M230 -13Q171 -13 127.5 16.0Q84 45 60.5 93.5Q37 142 37 198Q37 250 56.0 288.0Q75 326 106.5 350.5Q138 375 175.0 387.0Q212 399 248 399Q308 399 351.0 369.0Q394 339 417.0 292.0Q440 245 440 193Q440 129 411.0 83.0Q382 37 334.5 12.0Q287 -13 230 -13ZM258 5Q314 5 348.0 42.5Q382 80 382 167Q382 228 361.0 276.0Q340 324 302.5 352.0Q265 380 215 380Q158 380 126.0 340.5Q94 301 94 227Q94 168 114.5 117.0Q135 66 172.0 35.5Q209 5 258 5Z"/></g><g transform="translate(123.31 100.00) scale(0.01800 -0.01800)"><path d="M189 -12Q165 -12 143.5 -4.5Q122 3 109.0 20.5Q96 38 96 68V306Q96 331 93.0 342.5Q90 354 79.0 357.5Q68 361 44 361Q41 361 41.0 367.0Q41 373 44 373Q82 373 105.5 394.0Q129 415 129 447Q129 450 136.5 450.0Q144 450 144 447V102Q144 60 164.5 39.5Q185 19 225 19Q252 19 272.5 27.5Q293 36 306 46Q310 48 313.0 43.5Q316 39 312 36Q275 10 247.0 -1.0Q219 -12 189 -12ZM282 338Q243 348 207.5 350.5Q172 353 132 353V374Q171 374 207.5 377.0Q244 380 285 384Q288 384 290.0 377.5Q292 371 292 361Q292 354 289.0 345.5Q286 337 282 338Z"/></g><g transform="translate(129.81 100.00) scale(0.01800 -0.01800)"><path d="M215 -12Q156 -12 116.5 15.5Q77 43 57.0 87.0Q37 131 37 180Q37 241 65.0 289.5Q93 338 140.5 366.5Q188 395 244 395Q301 395 329.0 364.0Q357 333 357 281Q357 268 354.5 262.0Q352 256 345 256H298Q303 318 278.5 346.5Q254 375 212 375Q156 375 125.0 332.5Q94 290 94 216Q94 160 112.0 115.5Q130 71 165.0 45.5Q200 20 250 20Q285 20 307.5 30.5Q330 41 351 54Q353 56 356.5 51.5Q360 47 358 44Q323 14 287.5 1.0Q252 -12 215 -12ZM81 255 80 267 308 271V256Z"/></g><g transform="translate(137.50 100.00) scale(0.01800 -0.01800)"><path d="M249 -13Q211 -13 174.0 -1.0Q137 11 101 41L144 123Q144 80 167.5 54.0Q191 28 223.5 17.0Q256 6 282 6Q344 6 379.0 51.0Q414 96 414 182Q414 275 376.0 323.0Q338 371 281 371Q237 371 200.5 342.5Q164 314 132 278L124 285Q145 309 172.0 335.5Q199 362 233.5 380.5Q268 399 311 399Q353 399 389.0 378.5Q425 358 447.5 317.0Q470 276 470 214Q470 138 437.5 87.5Q405 37 354.0 12.0Q303 -13 249 -13ZM42 -4Q38 -5 36.0 -1.0Q34 3 37 6Q67 27 82.0 45.0Q97 63 97 103V599Q97 635 90.0 651.5Q83 668 64 668Q47 668 16 654Q12 652 10.0 658.0Q8 664 12 665L132 724Q135 725 137 725Q139 725 141.5 723.0Q144 721 144 718V44Z"/></g><g transform="translate(147.05 100.00) scale(0.01800 -0.01800)"><path d="M230 -13Q171 -13 127.5 16.0Q84 45 60.5 93.5Q37 142 37 198Q37 250 56.0 288.0Q75 326 106.5 350.5Q138 375 175.0 387.0Q212 399 248 399Q308 399 351.0 369.0Q394 339 417.0 292.0Q440 245 440 193Q440 129 411.0 83.0Q382 37 334.5 12.0Q287 -13 230 -13ZM258 5Q314 5 348.0 42.5Q382 80 382 167Q382 228 361.0 276.0Q340 324 302.5 352.0Q265 380 215 380Q158 380 126.0 340.5Q94 301 94 227Q94 168 114.5 117.0Q135 66 172.0 35.5Q209 5 258 5Z"/></g><g transform="translate(156.03 100.00) scale(0.01800 -0.01800)"><path d="M230 -13Q171 -13 127.5 16.0Q84 45 60.5 93.5Q37 142 37 198Q37 250 56.0 288.0Q75 326 106.5 350.5Q138 375 175.0 387.0Q212 399 248 399Q308 399 351.0 369.0Q394 339 417.0 292.0Q440 245 440 193Q440 129 411.0 83.0Q382 37 334.5 12.0Q287 -13 230 -13ZM258 5Q314 5 348.0 42.5Q382 80 382 167Q382 228 361.0 276.0Q340 324 302.5 352.0Q265 380 215 380Q158 380 126.0 340.5Q94 301 94 227Q94 168 114.5 117.0Q135 66 172.0 35.5Q209 5 258 5Z"/></g><g transform="translate(165.02 100.00) scale(0.01800 -0.01800)"><path d="M27 0Q24 0 24.0 6.0Q24 12 27 12Q68 12 80.0 25.0Q92 38 92 81V600Q92 636 85.0 652.5Q78 669 60 669Q44 669 12 654Q8 652 5.5 658.0Q3 664 7 665L127 724Q130 725 132 725Q134 725 136.5 723.0Q139 721 139 718V81Q139 38 151.0 25.0Q163 12 205 12Q207 12 207.0 6.0Q207 0 205 0Q187 0 164.5 1.0Q142 2 116 2Q91 2 67.5 1.0Q44 0 27 0ZM278 0Q276 0 276.0 6.0Q276 12 278 12Q316 12 327.0 21.0Q338 30 322 53L194 230L235 260L363 81Q390 42 420.0 27.0Q450 12 480 12Q482 12 482.0 6.0Q482 0 480 0Q462 0 439.5 1.0Q417 2 391 2Q354 2 327.5 1.0Q301 0 278 0ZM126 172 122 182 284 308Q325 340 316.5 357.0Q308 374 255 374Q252 374 252.0 380.0Q252 386 255 386Q279 386 303.0 385.0Q327 384 367 384Q404 384 426.0 385.0Q448 386 468 386Q470 386 470.0 380.0Q470 374 468 374Q445 374 418.5 367.0Q392 360 363.0 344.5Q334 329 302 305Z"/></g></g><g fill="#8b949e"><g transform="translate(304.35 100.00) scale(0.01600 -0.01600)"><path d="M60 -275Q56 -276 53.5 -270.5Q51 -265 55 -264Q123 -244 167.0 -215.0Q211 -186 236.5 -151.5Q262 -117 272.5 -83.0Q283 -49 283 -19Q283 12 272.5 41.5Q262 71 237.5 90.0Q213 109 170 109Q158 109 145.5 108.0Q133 107 119 103Q116 102 114.0 108.0Q112 114 116 115Q199 136 230.0 172.5Q261 209 261 268Q261 317 239.0 348.0Q217 379 167 379Q124 379 93.5 351.0Q63 323 46 258Q45 256 39.0 257.0Q33 258 34 261L71 407Q73 410 78.5 408.5Q84 407 83 405Q79 388 85.0 382.5Q91 377 98 377Q113 377 138.5 388.0Q164 399 200 399Q257 399 286.5 364.0Q316 329 316 285Q316 248 299.0 213.5Q282 179 250.5 153.5Q219 128 175 119L193 131Q245 131 278.5 111.0Q312 91 328.5 59.0Q345 27 345 -8Q345 -55 315.0 -107.0Q285 -159 222.0 -203.5Q159 -248 60 -275Z"/></g><g transform="translate(310.56 100.00) scale(0.01600 -0.01600)"><path d="M273 339Q306 365 322.5 392.0Q339 419 339 453Q339 501 310.0 530.0Q281 559 236 559Q201 559 176.0 539.5Q151 520 151 483Q151 451 170.0 427.0Q189 403 220.0 384.5Q251 366 285 347Q326 326 364.0 302.0Q402 278 426.5 244.5Q451 211 451 161Q451 111 422.5 71.5Q394 32 346.5 9.5Q299 -13 242 -13Q183 -13 139.5 10.0Q96 33 72.5 70.0Q49 107 49 149Q49 199 75.5 241.5Q102 284 142.5 315.0Q183 346 223 360L229 352Q170 327 137.5 280.5Q105 234 105 175Q105 131 126.0 92.0Q147 53 184.0 28.5Q221 4 270 4Q307 4 337.0 19.0Q367 34 384.5 62.5Q402 91 402 132Q402 184 377.5 218.5Q353 253 315.0 276.5Q277 300 237 320Q203 339 172.5 357.5Q142 376 123.0 399.5Q104 423 104 456Q104 496 129.0 522.0Q154 548 190.5 561.0Q227 574 260 574Q300 574 329.0 558.0Q358 542 373.5 518.0Q389 494 389 469Q389 434 360.0 399.0Q331 364 278 333Z"/></g><g transform="translate(318.38 100.00) scale(0.01600 -0.01600)"><path d="M98 -11Q80 -11 69.0 -0.5Q58 10 58 28Q58 45 69.0 55.0Q80 65 98 65Q117 65 127.0 55.0Q137 45 137 28Q137 10 127.0 -0.5Q117 -11 98 -11Z"/></g><g transform="translate(321.50 100.00) scale(0.01600 -0.01600)"><path d="M143 305Q143 334 137.0 349.0Q131 364 112.0 369.0Q93 374 54 374Q51 374 51.0 380.0Q51 386 54 386Q77 386 105.5 385.0Q134 384 166 384Q198 384 227.0 385.0Q256 386 278 386Q281 386 281.0 380.0Q281 374 278 374Q242 374 222.5 369.0Q203 364 196.0 349.0Q189 334 189 305V81Q189 52 195.0 37.0Q201 22 220.5 17.0Q240 12 278 12Q281 12 281.0 6.0Q281 0 278 0Q256 0 227.0 1.0Q198 2 166 2Q135 2 106.0 1.0Q77 0 54 0Q51 0 51.0 6.0Q51 12 54 12Q91 12 110.0 17.0Q129 22 136.0 37.0Q143 52 143 81Z"/></g><g transform="translate(326.82 100.00) scale(0.01600 -0.01600)"><path d="M150 303Q98 303 63.5 340.5Q29 378 29 433Q29 468 44.5 497.0Q60 526 87.5 543.0Q115 560 150 560Q203 560 235.5 522.0Q268 484 268 430Q268 377 235.0 340.0Q202 303 150 303ZM157 313Q195 313 205.0 344.5Q215 376 215 423Q215 550 144 550Q105 550 93.5 516.5Q82 483 82 436Q82 384 98.0 348.5Q114 313 157 313ZM427 -5Q392 -5 364.5 12.5Q337 30 321.5 59.5Q306 89 306 125Q306 160 321.5 189.0Q337 218 364.5 235.5Q392 253 427 253Q462 253 488.5 235.5Q515 218 530.0 188.5Q545 159 545 123Q545 69 512.0 32.0Q479 -5 427 -5ZM434 6Q472 6 482.0 37.5Q492 69 492 116Q492 242 421 242Q383 242 371.0 209.0Q359 176 359 129Q359 77 375.0 41.5Q391 6 434 6ZM105 -5Q104 -6 98.0 -4.0Q92 -2 87.0 1.0Q82 4 83 6L454 550Q456 552 461.5 549.5Q467 547 472.0 543.5Q477 540 476 538Z"/></g></g><circle cx="29" cy="122" r="5" fill="#3572A5"/><g fill="#c9d1d9"><g transform="translate(42.00 127.00) scale(0.01800 -0.01800)"><path d="M186 85Q186 55 194.5 39.5Q203 24 230.0 18.0Q257 12 311 12Q314 12 314.0 6.0Q314 0 311 0Q279 0 241.5 1.0Q204 2 160 2Q128 2 98.0 1.0Q68 0 44 0Q42 0 42.0 6.0Q42 12 44 12Q82 12 101.0 17.0Q120 22 126.5 37.0Q133 52 133 81V544Q133 573 126.5 587.5Q120 602 101.0 607.5Q82 613 44 613Q42 613 42.0 619.0Q42 625 44 625Q68 625 97.5 623.5Q127 622 159 622Q185 622 222.0 625.0Q259 628 299 628Q354 628 399.0 611.0Q444 594 470.5 558.0Q497 522 497 464Q497 411 477.0 373.0Q457 335 424.5 310.5Q392 286 353.0 274.0Q314 262 276 262Q263 262 250.5 263.0Q238 264 227 267Q223 268 224.5 274.5Q226 281 229 280Q238 278 247.5 277.0Q257 276 265 276Q309 276 348.0 294.0Q387 312 411.0 349.5Q435 387 435 444Q435 499 413.5 537.0Q392 575 356.0 595.0Q320 615 276 615Q240 615 220.5 611.5Q201 608 193.5 593.0Q186 578 186 542Z"/></g><g transform="translate(52.12 127.00) scale(0.01800 -0.01800)"><path d="M429 386Q432 386 432.0 380.0Q432 374 429 374Q406 374 389.0 360.0Q372 346 357 305L232 -28Q196 -124 163.0 -179.5Q130 -235 94.5 -258.0Q59 -281 14 -281Q-5 -281 -19.5 -272.0Q-34 -263 -34 -244Q-34 -232 -25.5 -225.5Q-17 -219 -7 -219Q13 -219 23.5 -224.5Q34 -230 43.5 -236.0Q53 -242 69 -242Q94 -242 117.0 -219.0Q140 -196 166.5 -141.0Q193 -86 229 9V-13L74 303Q52 347 39.5 360.5Q27 374 8 374Q6 374 6.0 380.0Q6 386 8 386Q23 386 39.0 385.0Q55 384 70 384Q102 384 126.5 385.0Q151 386 171 386Q173 386 173.0 380.0Q173 374 171 374Q140 374 121.5 366.0Q103 358 115 335L255 48L235 11L336 301Q351 345 335.0 359.5Q319 374 263 374Q261 374 261.0 380.0Q261 386 263 386Q287 386 308.5 385.0Q330 384 364 384Q385 384 398.0 385.0Q411 386 429 386Z"/></g><g transform="translate(60.39 127.00) scale(0.01800 -0.01800)"><path d="M189 -12Q165 -12 143.5 -4.5Q122 3 109.0 20.5Q96 38 96 68V306Q96 331 93.0 342.5Q90 354 79.0 357.5Q68 361 44 361Q41 361 41.0 367.0Q41 373 44 373Q82 373 105.5 394.0Q129 415 129 447Q129 450 136.5 450.0Q144 450 144 447V102Q144 60 164.5 39.5Q185 19 225 19Q252 19 272.5 27.5Q293 36 306 46Q310 48 313.0 43.5Q316 39 312 36Q275 10 247.0 -1.0Q219 -12 189 -12ZM282 338Q243 348 207.5 350.5Q172 353 132 353V374Q171 374 207.5 377.0Q244 380 285 384Q288 384 290.0 377.5Q292 371 292 361Q292 354 289.0 345.5Q286 337 282 338Z"/></g><g transform="translate(66.89 127.00) scale(0.01800 -0.01800)"><path d="M27 0Q24 0 24.0 6.0Q24 12 27 12Q68 12 80.0 25.0Q92 38 92 81V600Q92 636 85.0 652.5Q78 669 60 669Q44 669 12 654Q8 652 5.5 657.5Q3 663 7 665L130 725Q131 725 131.0 725.0Q131 725 132 725Q135 725 137.0 723.0Q139 721 139 718V81Q139 38 151.0 25.0Q163 12 205 12Q207 12 207.0 6.0Q207 0 205 0Q187 0 164.5 1.0Q142 2 116 2Q91 2 67.5 1.0Q44 0 27 0ZM296 0Q293 0 293.0 6.0Q293 12 296 12Q337 12 349.0 25.0Q361 38 361 81V244Q361 363 267 363Q228 363 188.5 337.5Q149 312 120 269L116 281Q163 343 206.0 369.5Q249 396 294 396Q348 396 378.0 366.5Q408 337 408 275V81Q408 38 420.0 25.0Q432 12 474 12Q476 12 476.0 6.0Q476 0 474 0Q456 0 433.5 1.0Q411 2 385 2Q360 2 336.5 1.0Q313 0 296 0Z"/></g><g transform="translate(76.22 127.00) scale(0.01800 -0.01800)"><path d="M230 -13Q171 -13 127.5 16.0Q84 45 60.5 93.5Q37 142 37 198Q37 250 56.0 288.0Q75 326 106.5 350.5Q138 375 175.0 387.0Q212 399 248 399Q308 399 351.0 369.0Q394 339 417.0 292.0Q440 245 440 193Q440 129 411.0 83.0Q382 37 334.5 12.0Q287 -13 230 -13ZM258 5Q314 5 348.0 42.5Q382 80 382 167Q382 228 361.0 276.0Q340 324 302.5 352.0Q265 380 215 380Q158 380 126.0 340.5Q94 301 94 227Q94 168 114.5 117.0Q135 66 172.0 35.5Q209 5 258 5Z"/></g><g transform="translate(85.20 127.00) scale(0.01800 -0.01800)"><path d="M315 0Q312 0 312.0 6.0Q312 12 315 12Q356 12 368.0 25.0Q380 38 380 81V248Q380 309 357.0 337.0Q334 365 285 365Q247 365 207.5 340.0Q168 315 139 271L135 283Q182 345 225.0 372.0Q268 399 312 399Q367 399 397.0 369.5Q427 340 427 278V81Q427 38 438.5 25.0Q450 12 492 12Q495 12 495.0 6.0Q495 0 492 0Q475 0 452.0 1.0Q429 2 404 2Q379 2 355.5 1.0Q332 0 315 0ZM46 0Q43 0 43.0 6.0Q43 12 46 12Q87 12 99.0 25.0Q111 38 111 81V281Q111 315 103.0 330.5Q95 346 75 346Q65 346 51.0 342.0Q37 338 19 331Q15 330 12.5 335.0Q10 340 14 342L125 394Q127 395 130 395Q137 395 147.5 374.5Q158 354 158 315V81Q158 38 169.5 25.0Q181 12 223 12Q226 12 226.0 6.0Q226 0 223 0Q206 0 183.0 1.0Q160 2 135 2Q110 2 86.5 1.0Q63 0 46 0Z"/></g></g><g fill="#8b949e"><g transform="translate(302.42 127.00) scale(0.01600 -0.01600)"><path d="M60 -275Q56 -276 53.5 -270.5Q51 -265 55 -264Q123 -244 167.0 -215.0Q211 -186 236.5 -151.5Q262 -117 272.5 -83.0Q283 -49 283 -19Q283 12 272.5 41.5Q262 71 237.5 90.0Q213 109 170 109Q158 109 145.5 108.0Q133 107 119 103Q116 102 114.0 108.0Q112 114 116 115Q199 136 230.0 172.5Q261 209 261 268Q261 317 239.0 348.0Q217 379 167 379Q124 379 93.5 351.0Q63 323 46 258Q45 256 39.0 257.0Q33 258 34 261L71 407Q73 410 78.5 408.5Q84 407 83 405Q79 388 85.0 382.5Q91 377 98 377Q113 377 138.5 388.0Q164 399 200 399Q257 399 286.5 364.0Q316 329 316 285Q316 248 299.0 213.5Q282 179 250.5 153.5Q219 128 175 119L193 131Q245 131 278.5 111.0Q312 91 328.5 59.0Q345 27 345 -8Q345 -55 315.0 -107.0Q285 -159 222.0 -203.5Q159 -248 60 -275Z"/></g><g transform="translate(308.62 127.00) scale(0.01600 -0.01600)"><path d="M240 -13Q181 -13 135.0 14.0Q89 41 63.0 88.0Q37 135 37 196Q37 256 63.0 301.5Q89 347 135.5 373.0Q182 399 241 399Q300 399 344.5 372.5Q389 346 414.5 299.5Q440 253 440 193Q440 133 414.5 86.5Q389 40 344.0 13.5Q299 -13 240 -13ZM251 -1Q317 -1 348.5 50.0Q380 101 380 181Q380 252 359.0 297.5Q338 343 304.0 365.0Q270 387 230 387Q166 387 131.0 335.0Q96 283 96 204Q96 146 115.0 99.5Q134 53 169.0 26.0Q204 -1 251 -1Z"/></g><g transform="translate(316.26 127.00) scale(0.01600 -0.01600)"><path d="M98 -11Q80 -11 69.0 -0.5Q58 10 58 28Q58 45 69.0 55.0Q80 65 98 65Q117 65 127.0 55.0Q137 45 137 28Q137 10 127.0 -0.5Q117 -11 98 -11Z"/></g><g transform="translate(319.38 127.00) scale(0.01600 -0.01600)"><path d="M296 282Q345 282 373.5 264.0Q402 246 415.0 218.0Q428 190 428 159Q428 112 401.0 72.5Q374 33 329.5 10.0Q285 -13 230 -13Q147 -13 98.0 44.5Q49 102 49 208Q49 301 90.5 390.5Q132 480 211.0 551.5Q290 623 400 661Q404 662 406.0 657.0Q408 652 405 650Q305 606 238.0 535.5Q171 465 137.5 384.0Q104 303 104 226Q104 165 122.0 115.0Q140 65 174.5 35.0Q209 5 258 5Q309 5 341.0 39.0Q373 73 373 133Q373 185 347.5 221.0Q322 257 267 257Q239 257 214.5 245.0Q190 233 160 206Q158 203 153.0 206.5Q148 210 150 213Q177 247 214.0 264.5Q251 282 296 282Z"/></g><g transform="translate(326.82 127.00) scale(0.01600 -0.01600)"><path d="M150 303Q98 303 63.5 340.5Q29 378 29 433Q29 468 44.5 497.0Q60 526 87.5 543.0Q115 560 150 560Q203 560 235.5 522.0Q268 484 268 430Q268 377 235.0 340.0Q202 303 150 303ZM157 313Q195 313 205.0 344.5Q215 376 215 423Q215 550 144 550Q105 550 93.5 516.5Q82 483 82 436Q82 384 98.0 348.5Q114 313 157 313ZM427 -5Q392 -5 364.5 12.5Q337 30 321.5 59.5Q306 89 306 125Q306 160 321.5 189.0Q337 218 364.5 235.5Q392 253 427 253Q462 253 488.5 235.5Q515 218 530.0 188.5Q545 159 545 123Q545 69 512.0 32.0Q479 -5 427 -5ZM434 6Q472 6 482.0 37.5Q492 69 492 116Q492 242 421 242Q383 242 371.0 209.0Q359 176 359 129Q359 77 375.0 41.5Q391 6 434 6ZM105 -5Q104 -6 98.0 -4.0Q92 -2 87.0 1.0Q82 4 83 6L454 550Q456 552 461.5 549.5Q467 547 472.0 543.5Q477 540 476 538Z"/></g></g><circle cx="29" cy="149" r="5" fill="#f1e05a"/><g fill="#c9d1d9"><g transform="translate(42.00 154.00) scale(0.01800 -0.01800)"><path d="M275 625Q277 625 277.0 619.0Q277 613 275 613Q242 613 225.5 607.0Q209 601 203.5 586.0Q198 571 198 542V-34Q198 -126 155.5 -185.0Q113 -244 27 -244Q-7 -244 -25.0 -233.0Q-43 -222 -43 -206Q-43 -192 -35.0 -184.5Q-27 -177 -14 -177Q3 -177 11.5 -184.0Q20 -191 26.0 -200.5Q32 -210 40.5 -217.5Q49 -225 65 -225Q103 -225 123.5 -182.5Q144 -140 144 -43V544Q144 573 136.5 587.5Q129 602 107.5 607.5Q86 613 42 613Q40 613 40.0 619.0Q40 625 42 625Q71 625 103.0 623.5Q135 622 170 622Q202 622 228.0 623.5Q254 625 275 625Z"/></g><g transform="translate(48.12 154.00) scale(0.01800 -0.01800)"><path d="M313 -6Q309 -8 305 -8Q293 -8 283.0 13.0Q273 34 273 74V267Q273 329 253.5 353.0Q234 377 205 377Q180 377 163.5 365.5Q147 354 138.5 337.0Q130 320 126 305Q124 295 119.0 281.5Q114 268 94 268Q79 268 71.5 277.0Q64 286 64 296Q64 313 82.0 330.5Q100 348 127.5 363.0Q155 378 185.0 387.0Q215 396 240 396Q281 396 300.0 369.5Q319 343 319 297V108Q319 72 327.5 55.5Q336 39 357 39Q376 39 412 54Q417 56 419.0 50.5Q421 45 416 43ZM136 -7Q99 -7 79.5 13.5Q60 34 60 61Q60 78 68.5 94.0Q77 110 98.5 125.0Q120 140 158 154L283 201L285 188L167 143Q146 135 135.0 125.5Q124 116 120.0 105.5Q116 95 116 84Q116 62 130.5 44.0Q145 26 173 26Q184 26 196.0 29.5Q208 33 225 43L292 82L294 70L219 23Q194 7 175.0 0.0Q156 -7 136 -7Z"/></g><g transform="translate(56.07 154.00) scale(0.01800 -0.01800)"><path d="M425 386Q427 386 427.0 380.0Q427 374 425 374Q401 374 385.0 360.0Q369 346 352 305L227 1Q226 -3 216.5 -3.0Q207 -3 205 1L68 303Q48 348 35.0 361.0Q22 374 4 374Q1 374 1.0 380.0Q1 386 4 386Q18 386 34.5 385.0Q51 384 65 384Q98 384 122.0 385.0Q146 386 166 386Q169 386 169.0 380.0Q169 374 166 374Q135 374 116.5 366.5Q98 359 109 335L239 51L216 22L335 311Q349 346 331.5 360.0Q314 374 258 374Q256 374 256.0 380.0Q256 386 258 386Q282 386 303.5 385.0Q325 384 359 384Q380 384 393.0 385.0Q406 386 425 386Z"/></g><g transform="translate(64.26 154.00) scale(0.01800 -0.01800)"><path d="M313 -6Q309 -8 305 -8Q293 -8 283.0 13.0Q273 34 273 74V267Q273 329 253.5 353.0Q234 377 205 377Q180 377 163.5 365.5Q147 354 138.5 337.0Q130 320 126 305Q124 295 119.0 281.5Q114 268 94 268Q79 268 71.5 277.0Q64 286 64 296Q64 313 82.0 330.5Q100 348 127.5 363.0Q155 378 185.0 387.0Q215 396 240 396Q281 396 300.0 369.5Q319 343 319 297V108Q319 72 327.5 55.5Q336 39 357 39Q376 39 412 54Q417 56 419.0 50.5Q421 45 416 43ZM136 -7Q99 -7 79.5 13.5Q60 34 60 61Q60 78 68.5 94.0Q77 110 98.5 125.0Q120 140 158 154L283 201L285 188L167 143Q146 135 135.0 125.5Q124 116 120.0 105.5Q116 95 116 84Q116 62 130.5 44.0Q145 26 173 26Q184 26 196.0 29.5Q208 33 225 43L292 82L294 70L219 23Q194 7 175.0 0.0Q156 -7 136 -7Z"/></g><g transform="translate(72.20 154.00) scale(0.01800 -0.01800)"><path d="M138 504Q138 462 158.5 432.5Q179 403 211.5 381.0Q244 359 280 338Q317 317 351.0 293.5Q385 270 407.5 237.5Q430 205 430 157Q430 111 407.5 72.5Q385 34 340.0 11.0Q295 -12 227 -12Q205 -12 183.5 -9.0Q162 -6 139.5 1.5Q117 9 91 22Q86 25 84.5 29.5Q83 34 82 41L67 171Q66 176 71.5 176.5Q77 177 78 173Q82 143 94.0 113.0Q106 83 126.5 58.0Q147 33 177.5 17.5Q208 2 249 2Q280 2 309.0 13.5Q338 25 356.5 51.0Q375 77 375 122Q375 171 353.5 203.5Q332 236 299.0 259.5Q266 283 229 304Q194 325 161.0 348.0Q128 371 107.5 402.5Q87 434 87 481Q87 533 113.0 567.5Q139 602 180.5 619.0Q222 636 267 636Q293 636 321.5 630.5Q350 625 381 612Q389 609 392.5 604.5Q396 600 396 595L405 489Q405 485 399.5 485.0Q394 485 393 489Q391 511 382.5 534.5Q374 558 357.5 578.0Q341 598 315.5 610.5Q290 623 254 623Q211 623 185.5 605.0Q160 587 149.0 560.0Q138 533 138 504Z"/></g><g transform="translate(81.33 154.00) scale(0.01800 -0.01800)"><path d="M230 -12Q162 -12 119.5 17.5Q77 47 57.0 92.5Q37 138 37 185Q37 235 56.0 274.0Q75 313 106.5 340.0Q138 367 176.0 381.0Q214 395 251 395Q279 395 305.0 387.5Q331 380 348.0 367.0Q365 354 365 338Q365 326 357.5 317.5Q350 309 336 309Q322 309 312.0 318.0Q302 327 296 337Q284 354 267.5 364.5Q251 375 219 375Q158 375 126.0 330.5Q94 286 94 214Q94 163 112.0 118.5Q130 74 167.5 46.5Q205 19 265 19Q291 19 318.5 26.5Q346 34 368 54Q371 56 374.5 52.0Q378 48 375 46Q341 15 306.0 1.5Q271 -12 230 -12Z"/></g><g transform="translate(89.06 154.00) scale(0.01800 -0.01800)"><path d="M139 271 135 281Q172 327 195.5 351.5Q219 376 236.0 385.5Q253 395 269 395Q290 395 310.0 384.0Q330 373 330 357Q330 347 322.5 339.0Q315 331 301 331Q289 331 280.5 338.0Q272 345 262.0 351.5Q252 358 235 358Q226 358 215.5 352.5Q205 347 187.5 328.5Q170 310 139 271ZM46 0Q43 0 43.0 6.0Q43 12 46 12Q87 12 99.0 25.0Q111 38 111 81V281Q111 315 103.0 330.5Q95 346 75 346Q65 346 51.0 342.0Q37 338 19 331Q15 330 12.5 335.0Q10 340 14 342L125 394Q127 395 130 395Q137 395 147.5 374.5Q158 354 158 315V81Q158 52 165.0 37.0Q172 22 193.5 17.0Q215 12 258 12Q261 12 261.0 6.0Q261 0 258 0Q234 0 202.0 1.0Q170 2 135 2Q110 2 86.5 1.0Q63 0 46 0Z"/></g><g transform="translate(95.94 154.00) scale(0.01800 -0.01800)"><path d="M57 0Q55 0 55.0 6.0Q55 12 57 12Q98 12 110.5 25.0Q123 38 123 81V270Q123 306 116.0 322.5Q109 339 90 339Q81 339 69.5 335.5Q58 332 42 324Q38 323 35.5 328.5Q33 334 37 336L161 394Q164 395 165 395Q167 395 169.5 393.0Q172 391 172 388Q172 381 171.0 349.5Q170 318 170 271V81Q170 38 181.5 25.0Q193 12 235 12Q238 12 238.0 6.0Q238 0 235 0Q218 0 195.0 1.0Q172 2 146 2Q121 2 98.0 1.0Q75 0 57 0ZM138 516Q119 516 108.5 526.0Q98 536 98 554Q98 572 108.5 582.0Q119 592 138 592Q156 592 166.0 582.0Q176 572 176 554Q176 516 138 516Z"/></g><g transform="translate(101.29 154.00) scale(0.01800 -0.01800)"><path d="M33 -275Q30 -275 30.0 -269.0Q30 -263 33 -263Q74 -263 86.0 -250.0Q98 -237 98 -194V278Q98 314 90.0 330.5Q82 347 61 347Q51 347 37.0 343.5Q23 340 6 332Q2 331 -0.5 336.0Q-3 341 1 343L104 392Q108 394 112 394Q126 394 135.5 371.5Q145 349 145 305V-194Q145 -222 152.5 -237.0Q160 -252 182.5 -257.5Q205 -263 248 -263Q250 -263 250.0 -269.0Q250 -275 248 -275Q222 -275 190.0 -274.0Q158 -273 123 -273Q98 -273 74.0 -274.0Q50 -275 33 -275ZM256 -13Q218 -13 188.5 -3.0Q159 7 124 35L133 88Q162 53 197.0 30.0Q232 7 289 7Q342 7 378.5 54.0Q415 101 415 184Q415 273 376.5 319.5Q338 366 282 366Q236 366 201.0 340.0Q166 314 133 278L125 285Q176 344 223.0 371.5Q270 399 318 399Q359 399 393.5 377.5Q428 356 449.0 315.0Q470 274 470 215Q470 155 449.0 112.0Q428 69 394.5 41.5Q361 14 324.5 0.5Q288 -13 256 -13Z"/></g><g transform="translate(110.87 154.00) scale(0.01800 -0.01800)"><path d="M189 -12Q165 -12 143.5 -4.5Q122 3 109.0 20.5Q96 38 96 68V306Q96 331 93.0 342.5Q90 354 79.0 357.5Q68 361 44 361Q41 361 41.0 367.0Q41 373 44 373Q82 373 105.5 394.0Q129 415 129 447Q129 450 136.5 450.0Q144 450 144 447V102Q144 60 164.5 39.5Q185 19 225 19Q252 19 272.5 27.5Q293 36 306 46Q310 48 313.0 43.5Q316 39 312 36Q275 10 247.0 -1.0Q219 -12 189 -12ZM282 338Q243 348 207.5 350.5Q172 353 132 353V374Q171 374 207.5 377.0Q244 380 285 384Q288 384 290.0 377.5Q292 371 292 361Q292 354 289.0 345.5Q286 337 282 338Z"/></g></g><g fill="#8b949e"><g transform="translate(305.74 154.00) scale(0.01600 -0.01600)"><path d="M143 305Q143 334 137.0 349.0Q131 364 112.0 369.0Q93 374 54 374Q51 374 51.0 380.0Q51 386 54 386Q77 386 105.5 385.0Q134 384 166 384Q198 384 227.0 385.0Q256 386 278 386Q281 386 281.0 380.0Q281 374 278 374Q242 374 222.5 369.0Q203 364 196.0 349.0Q189 334 189 305V81Q189 52 195.0 37.0Q201 22 220.5 17.0Q240 12 278 12Q281 12 281.0 6.0Q281 0 278 0Q256 0 227.0 1.0Q198 2 166 2Q135 2 106.0 1.0Q77 0 54 0Q51 0 51.0 6.0Q51 12 54 12Q91 12 110.0 17.0Q129 22 136.0 37.0Q143 52 143 81Z"/></g><g transform="translate(311.06 154.00) scale(0.01600 -0.01600)"><path d="M60 -275Q56 -276 53.5 -270.5Q51 -265 55 -264Q123 -244 167.0 -215.0Q211 -186 236.5 -151.5Q262 -117 272.5 -83.0Q283 -49 283 -19Q283 12 272.5 41.5Q262 71 237.5 90.0Q213 109 170 109Q158 109 145.5 108.0Q133 107 119 103Q116 102 114.0 108.0Q112 114 116 115Q199 136 230.0 172.5Q261 209 261 268Q261 317 239.0 348.0Q217 379 167 379Q124 379 93.5 351.0Q63 323 46 258Q45 256 39.0 257.0Q33 258 34 261L71 407Q73 410 78.5 408.5Q84 407 83 405Q79 388 85.0 382.5Q91 377 98 377Q113 377 138.5 388.0Q164 399 200 399Q257 399 286.5 364.0Q316 329 316 285Q316 248 299.0 213.5Q282 179 250.5 153.5Q219 128 175 119L193 131Q245 131 278.5 111.0Q312 91 328.5 59.0Q345 27 345 -8Q345 -55 315.0 -107.0Q285 -159 222.0 -203.5Q159 -248 60 -275Z"/></g><g transform="translate(317.26 154.00) scale(0.01600 -0.01600)"><path d="M98 -11Q80 -11 69.0 -0.5Q58 10 58 28Q58 45 69.0 55.0Q80 65 98 65Q117 65 127.0 55.0Q137 45 137 28Q137 10 127.0 -0.5Q117 -11 98 -11Z"/></g><g transform="translate(320.38 154.00) scale(0.01600 -0.01600)"><path d="M37 12Q102 62 146.5 101.5Q191 141 218.0 172.5Q245 204 257.5 232.0Q270 260 270 288Q270 331 243.5 355.0Q217 379 178 379Q138 379 108.5 349.0Q79 319 62 258Q61 256 55.0 257.0Q49 258 50 261L88 408Q89 411 95.0 409.5Q101 408 99 406Q95 390 100.5 385.0Q106 380 113 380Q128 380 153.5 389.5Q179 399 214 399Q265 399 294.0 371.0Q323 343 323 299Q323 274 311.5 248.5Q300 223 275.0 194.0Q250 165 209.0 129.5Q168 94 108 48Q104 45 106.0 43.0Q108 41 112 41Q190 41 237.0 42.5Q284 44 308.5 50.0Q333 56 343.5 70.5Q354 85 360 110Q361 112 366.5 111.5Q372 111 372 109L358 11Q358 7 355.5 3.5Q353 0 349 0Q278 0 198.5 0.0Q119 0 44 0Q40 0 37.0 4.0Q34 8 37 12Z"/></g><g transform="translate(326.82 154.00) scale(0.01600 -0.01600)"><path d="M150 303Q98 303 63.5 340.5Q29 378 29 433Q29 468 44.5 497.0Q60 526 87.5 543.0Q115 560 150 560Q203 560 235.5 522.0Q268 484 268 430Q268 377 235.0 340.0Q202 303 150 303ZM157 313Q195 313 205.0 344.5Q215 376 215 423Q215 550 144 550Q105 550 93.5 516.5Q82 483 82 436Q82 384 98.0 348.5Q114 313 157 313ZM427 -5Q392 -5 364.5 12.5Q337 30 321.5 59.5Q306 89 306 125Q306 160 321.5 189.0Q337 218 364.5 235.5Q392 253 427 253Q462 253 488.5 235.5Q515 218 530.0 188.5Q545 159 545 123Q545 69 512.0 32.0Q479 -5 427 -5ZM434 6Q472 6 482.0 37.5Q492 69 492 116Q492 242 421 242Q383 242 371.0 209.0Q359 176 359 129Q359 77 375.0 41.5Q391 6 434 6ZM105 -5Q104 -6 98.0 -4.0Q92 -2 87.0 1.0Q82 4 83 6L454 550Q456 552 461.5 549.5Q467 547 472.0 543.5Q477 540 476 538Z"/></g></g><circle cx="29" cy="176" r="5" fill="#3178c6"/><g fill="#c9d1d9"><g transform="translate(42.00 181.00) scale(0.01800 -0.01800)"><path d="M180 608Q117 608 88.5 578.0Q60 548 49 471Q49 469 43.0 469.0Q37 469 37 471Q39 483 41.5 506.0Q44 529 46.0 555.5Q48 582 49.5 606.5Q51 631 51 647Q51 652 57.0 652.0Q63 652 63 647Q63 637 72.5 632.5Q82 628 94.5 626.5Q107 625 116 625Q202 622 317 622Q388 622 429.5 623.5Q471 625 510 625Q543 625 561.5 629.5Q580 634 585 650Q586 654 591.0 654.0Q596 654 596 650Q595 635 593.0 610.0Q591 585 590.0 557.5Q589 530 588.0 506.5Q587 483 587 471Q587 469 581.0 469.0Q575 469 575 471Q575 548 549.0 578.0Q523 608 454 608Q407 608 383.5 604.5Q360 601 352.5 587.5Q345 574 345 542V81Q345 52 352.0 37.0Q359 22 380.5 17.0Q402 12 446 12Q448 12 448.0 6.0Q448 0 446 0Q420 0 387.5 1.0Q355 2 317 2Q281 2 248.5 1.0Q216 0 189 0Q187 0 187.0 6.0Q187 12 189 12Q232 12 254.0 17.0Q276 22 283.5 37.0Q291 52 291 81V544Q291 576 283.0 589.5Q275 603 251.0 605.5Q227 608 180 608Z"/></g><g transform="translate(53.78 181.00) scale(0.01800 -0.01800)"><path d="M429 386Q432 386 432.0 380.0Q432 374 429 374Q406 374 389.0 360.0Q372 346 357 305L232 -28Q196 -124 163.0 -179.5Q130 -235 94.5 -258.0Q59 -281 14 -281Q-5 -281 -19.5 -272.0Q-34 -263 -34 -244Q-34 -232 -25.5 -225.5Q-17 -219 -7 -219Q13 -219 23.5 -224.5Q34 -230 43.5 -236.0Q53 -242 69 -242Q94 -242 117.0 -219.0Q140 -196 166.5 -141.0Q193 -86 229 9V-13L74 303Q52 347 39.5 360.5Q27 374 8 374Q6 374 6.0 380.0Q6 386 8 386Q23 386 39.0 385.0Q55 384 70 384Q102 384 126.5 385.0Q151 386 171 386Q173 386 173.0 380.0Q173 374 171 374Q140 374 121.5 366.0Q103 358 115 335L255 48L235 11L336 301Q351 345 335.0 359.5Q319 374 263 374Q261 374 261.0 380.0Q261 386 263 386Q287 386 308.5 385.0Q330 384 364 384Q385 384 398.0 385.0Q411 386 429 386Z"/></g><g transform="translate(62.04 181.00) scale(0.01800 -0.01800)"><path d="M33 -275Q30 -275 30.0 -269.0Q30 -263 33 -263Q74 -263 86.0 -250.0Q98 -237 98 -194V278Q98 314 90.0 330.5Q82 347 61 347Q51 347 37.0 343.5Q23 340 6 332Q2 331 -0.5 336.0Q-3 341 1 343L104 392Q108 394 112 394Q126 394 135.5 371.5Q145 349 145 305V-194Q145 -222 152.5 -237.0Q160 -252 182.5 -257.5Q205 -263 248 -263Q250 -263 250.0 -269.0Q250 -275 248 -275Q222 -275 190.0 -274.0Q158 -273 123 -273Q98 -273 74.0 -274.0Q50 -275 33 -275ZM256 -13Q218 -13 188.5 -3.0Q159 7 124 35L133 88Q162 53 197.0 30.0Q232 7 289 7Q342 7 378.5 54.0Q415 101 415 184Q415 273 376.5 319.5Q338 366 282 366Q236 366 201.0 340.0Q166 314 133 278L125 285Q176 344 223.0 371.5Q270 399 318 399Q359 399 393.5 377.5Q428 356 449.0 315.0Q470 274 470 215Q470 155 449.0 112.0Q428 69 394.5 41.5Q361 14 324.5 0.5Q288 -13 256 -13Z"/></g><g transform="translate(71.62 181.00) scale(0.01800 -0.01800)"><path d="M215 -12Q156 -12 116.5 15.5Q77 43 57.0 87.0Q37 131 37 180Q37 241 65.0 289.5Q93 338 140.5 366.5Q188 395 244 395Q301 395 329.0 364.0Q357 333 357 281Q357 268 354.5 262.0Q352 256 345 256H298Q303 318 278.5 346.5Q254 375 212 375Q156 375 125.0 332.5Q94 290 94 216Q94 160 112.0 115.5Q130 71 165.0 45.5Q200 20 250 20Q285 20 307.5 30.5Q330 41 351 54Q353 56 356.5 51.5Q360 47 358 44Q323 14 287.5 1.0Q252 -12 215 -12ZM81 255 80 267 308 271V256Z"/></g><g transform="translate(79.31 181.00) scale(0.01800 -0.01800)"><path d="M138 504Q138 462 158.5 432.5Q179 403 211.5 381.0Q244 359 280 338Q317 317 351.0 293.5Q385 270 407.5 237.5Q430 205 430 157Q430 111 407.5 72.5Q385 34 340.0 11.0Q295 -12 227 -12Q205 -12 183.5 -9.0Q162 -6 139.5 1.5Q117 9 91 22Q86 25 84.5 29.5Q83 34 82 41L67 171Q66 176 71.5 176.5Q77 177 78 173Q82 143 94.0 113.0Q106 83 126.5 58.0Q147 33 177.5 17.5Q208 2 249 2Q280 2 309.0 13.5Q338 25 356.5 51.0Q375 77 375 122Q375 171 353.5 203.5Q332 236 299.0 259.5Q266 283 229 304Q194 325 161.0 348.0Q128 371 107.5 402.5Q87 434 87 481Q87 533 113.0 567.5Q139 602 180.5 619.0Q222 636 267 636Q293 636 321.5 630.5Q350 625 381 612Q389 609 392.5 604.5Q396 600 396 595L405 489Q405 485 399.5 485.0Q394 485 393 489Q391 511 382.5 534.5Q374 558 357.5 578.0Q341 598 315.5 610.5Q290 623 254 623Q211 623 185.5 605.0Q160 587 149.0 560.0Q138 533 138 504Z"/></g><g transform="translate(88.44 181.00) scale(0.01800 -0.01800)"><path d="M230 -12Q162 -12 119.5 17.5Q77 47 57.0 92.5Q37 138 37 185Q37 235 56.0 274.0Q75 313 106.5 340.0Q138 367 176.0 381.0Q214 395 251 395Q279 395 305.0 387.5Q331 380 348.0 367.0Q365 354 365 338Q365 326 357.5 317.5Q350 309 336 309Q322 309 312.0 318.0Q302 327 296 337Q284 354 267.5 364.5Q251 375 219 375Q158 375 126.0 330.5Q94 286 94 214Q94 163 112.0 118.5Q130 74 167.5 46.5Q205 19 265 19Q291 19 318.5 26.5Q346 34 368 54Q371 56 374.5 52.0Q378 48 375 46Q341 15 306.0 1.5Q271 -12 230 -12Z"/></g><g transform="translate(96.17 181.00) scale(0.01800 -0.01800)"><path d="M139 271 135 281Q172 327 195.5 351.5Q219 376 236.0 385.5Q253 395 269 395Q290 395 310.0 384.0Q330 373 330 357Q330 347 322.5 339.0Q315 331 301 331Q289 331 280.5 338.0Q272 345 262.0 351.5Q252 358 235 358Q226 358 215.5 352.5Q205 347 187.5 328.5Q170 310 139 271ZM46 0Q43 0 43.0 6.0Q43 12 46 12Q87 12 99.0 25.0Q111 38 111 81V281Q111 315 103.0 330.5Q95 346 75 346Q65 346 51.0 342.0Q37 338 19 331Q15 330 12.5 335.0Q10 340 14 342L125 394Q127 395 130 395Q137 395 147.5 374.5Q158 354 158 315V81Q158 52 165.0 37.0Q172 22 193.5 17.0Q215 12 258 12Q261 12 261.0 6.0Q261 0 258 0Q234 0 202.0 1.0Q170 2 135 2Q110 2 86.5 1.0Q63 0 46 0Z"/></g><g transform="translate(103.05 181.00) scale(0.01800 -0.01800)"><path d="M57 0Q55 0 55.0 6.0Q55 12 57 12Q98 12 110.5 25.0Q123 38 123 81V270Q123 306 116.0 322.5Q109 339 90 339Q81 339 69.5 335.5Q58 332 42 324Q38 323 35.5 328.5Q33 334 37 336L161 394Q164 395 165 395Q167 395 169.5 393.0Q172 391 172 388Q172 381 171.0 349.5Q170 318 170 271V81Q170 38 181.5 25.0Q193 12 235 12Q238 12 238.0 6.0Q238 0 235 0Q218 0 195.0 1.0Q172 2 146 2Q121 2 98.0 1.0Q75 0 57 0ZM138 516Q119 516 108.5 526.0Q98 536 98 554Q98 572 108.5 582.0Q119 592 138 592Q156 592 166.0 582.0Q176 572 176 554Q176 516 138 516Z"/></g><g transform="translate(108.40 181.00) scale(0.01800 -0.01800)"><path d="M33 -275Q30 -275 30.0 -269.0Q30 -263 33 -263Q74 -263 86.0 -250.0Q98 -237 98 -194V278Q98 314 90.0 330.5Q82 347 61 347Q51 347 37.0 343.5Q23 340 6 332Q2 331 -0.5 336.0Q-3 341 1 343L104 392Q108 394 112 394Q126 394 135.5 371.5Q145 349 145 305V-194Q145 -222 152.5 -237.0Q160 -252 182.5 -257.5Q205 -263 248 -263Q250 -263 250.0 -269.0Q250 -275 248 -275Q222 -275 190.0 -274.0Q158 -273 123 -273Q98 -273 74.0 -274.0Q50 -275 33 -275ZM256 -13Q218 -13 188.5 -3.0Q159 7 124 35L133 88Q162 53 197.0 30.0Q232 7 289 7Q342 7 378.5 54.0Q415 101 415 184Q415 273 376.5 319.5Q338 366 282 366Q236 366 201.0 340.0Q166 314 133 278L125 285Q176 344 223.0 371.5Q270 399 318 399Q359 399 393.5 377.5Q428 356 449.0 315.0Q470 274 470 215Q470 155 449.0 112.0Q428 69 394.5 41.5Q361 14 324.5 0.5Q288 -13 256 -13Z"/></g><g transform="translate(117.98 181.00) scale(0.01800 -0.01800)"><path d="M189 -12Q165 -12 143.5 -4.5Q122 3 109.0 20.5Q96 38 96 68V306Q96 331 93.0 342.5Q90 354 79.0 357.5Q68 361 44 361Q41 361 41.0 367.0Q41 373 44 373Q82 373 105.5 394.0Q129 415 129 447Q129 450 136.5 450.0Q144 450 144 447V102Q144 60 164.5 39.5Q185 19 225 19Q252 19 272.5 27.5Q293 36 306 46Q310 48 313.0 43.5Q316 39 312 36Q275 10 247.0 -1.0Q219 -12 189 -12ZM282 338Q243 348 207.5 350.5Q172 353 132 353V374Q171 374 207.5 377.0Q244 380 285 384Q288 384 290.0 377.5Q292 371 292 361Q292 354 289.0 345.5Q286 337 282 338Z"/></g></g><g fill="#8b949e"><g transform="translate(308.43 181.00) scale(0.01600 -0.01600)"><path d="M296 282Q345 282 373.5 264.0Q402 246 415.0 218.0Q428 190 428 159Q428 112 401.0 72.5Q374 33 329.5 10.0Q285 -13 230 -13Q147 -13 98.0 44.5Q49 102 49 208Q49 301 90.5 390.5Q132 480 211.0 551.5Q290 623 400 661Q404 662 406.0 657.0Q408 652 405 650Q305 606 238.0 535.5Q171 465 137.5 384.0Q104 303 104 226Q104 165 122.0 115.0Q140 65 174.5 35.0Q209 5 258 5Q309 5 341.0 39.0Q373 73 373 133Q373 185 347.5 221.0Q322 257 267 257Q239 257 214.5 245.0Q190 233 160 206Q158 203 153.0 206.5Q148 210 150 213Q177 247 214.0 264.5Q251 282 296 282Z"/></g><g transform="translate(315.87 181.00) scale(0.01600 -0.01600)"><path d="M98 -11Q80 -11 69.0 -0.5Q58 10 58 28Q58 45 69.0 55.0Q80 65 98 65Q117 65 127.0 55.0Q137 45 137 28Q137 10 127.0 -0.5Q117 -11 98 -11Z"/></g><g transform="translate(318.99 181.00) scale(0.01600 -0.01600)"><path d="M273 339Q306 365 322.5 392.0Q339 419 339 453Q339 501 310.0 530.0Q281 559 236 559Q201 559 176.0 539.5Q151 520 151 483Q151 451 170.0 427.0Q189 403 220.0 384.5Q251 366 285 347Q326 326 364.0 302.0Q402 278 426.5 244.5Q451 211 451 161Q451 111 422.5 71.5Q394 32 346.5 9.5Q299 -13 242 -13Q183 -13 139.5 10.0Q96 33 72.5 70.0Q49 107 49 149Q49 199 75.5 241.5Q102 284 142.5 315.0Q183 346 223 360L229 352Q170 327 137.5 280.5Q105 234 105 175Q105 131 126.0 92.0Q147 53 184.0 28.5Q221 4 270 4Q307 4 337.0 19.0Q367 34 384.5 62.5Q402 91 402 132Q402 184 377.5 218.5Q353 253 315.0 276.5Q277 300 237 320Q203 339 172.5 357.5Q142 376 123.0 399.5Q104 423 104 456Q104 496 129.0 522.0Q154 548 190.5 561.0Q227 574 260 574Q300 574 329.0 558.0Q358 542 373.5 518.0Q389 494 389 469Q389 434 360.0 399.0Q331 364 278 333Z"/></g><g transform="translate(326.82 181.00) scale(0.01600 -0.01600)"><path d="M150 303Q98 303 63.5 340.5Q29 378 29 433Q29 468 44.5 497.0Q60 526 87.5 543.0Q115 560 150 560Q203 560 235.5 522.0Q268 484 268 430Q268 377 235.0 340.0Q202 303 150 303ZM157 313Q195 313 205.0 344.5Q215 376 215 423Q215 550 144 550Q105 550 93.5 516.5Q82 483 82 436Q82 384 98.0 348.5Q114 313 157 313ZM427 -5Q392 -5 364.5 12.5Q337 30 321.5 59.5Q306 89 306 125Q306 160 321.5 189.0Q337 218 364.5 235.5Q392 253 427 253Q462 253 488.5 235.5Q515 218 530.0 188.5Q545 159 545 123Q545 69 512.0 32.0Q479 -5 427 -5ZM434 6Q472 6 482.0 37.5Q492 69 492 116Q492 242 421 242Q383 242 371.0 209.0Q359 176 359 129Q359 77 375.0 41.5Q391 6 434 6ZM105 -5Q104 -6 98.0 -4.0Q92 -2 87.0 1.0Q82 4 83 6L454 550Q456 552 461.5 549.5Q467 547 472.0 543.5Q477 540 476 538Z"/></g></g><circle cx="29" cy="203" r="5" fill="#b07219"/><g fill="#c9d1d9"><g transform="translate(42.00 208.00) scale(0.01800 -0.01800)"><path d="M275 625Q277 625 277.0 619.0Q277 613 275 613Q242 613 225.5 607.0Q209 601 203.5 586.0Q198 571 198 542V-34Q198 -126 155.5 -185.0Q113 -244 27 -244Q-7 -244 -25.0 -233.0Q-43 -222 -43 -206Q-43 -192 -35.0 -184.5Q-27 -177 -14 -177Q3 -177 11.5 -184.0Q20 -191 26.0 -200.5Q32 -210 40.5 -217.5Q49 -225 65 -225Q103 -225 123.5 -182.5Q144 -140 144 -43V544Q144 573 136.5 587.5Q129 602 107.5 607.5Q86 613 42 613Q40 613 40.0 619.0Q40 625 42 625Q71 625 103.0 623.5Q135 622 170 622Q202 622 228.0 623.5Q254 625 275 625Z"/></g><g transform="translate(48.12 208.00) scale(0.01800 -0.01800)"><path d="M313 -6Q309 -8 305 -8Q293 -8 283.0 13.0Q273 34 273 74V267Q273 329 253.5 353.0Q234 377 205 377Q180 377 163.5 365.5Q147 354 138.5 337.0Q130 320 126 305Q124 295 119.0 281.5Q114 268 94 268Q79 268 71.5 277.0Q64 286 64 296Q64 313 82.0 330.5Q100 348 127.5 363.0Q155 378 185.0 387.0Q215 396 240 396Q281 396 300.0 369.5Q319 343 319 297V108Q319 72 327.5 55.5Q336 39 357 39Q376 39 412 54Q417 56 419.0 50.5Q421 45 416 43ZM136 -7Q99 -7 79.5 13.5Q60 34 60 61Q60 78 68.5 94.0Q77 110 98.5 125.0Q120 140 158 154L283 201L285 188L167 143Q146 135 135.0 125.5Q124 116 120.0 105.5Q116 95 116 84Q116 62 130.5 44.0Q145 26 173 26Q184 26 196.0 29.5Q208 33 225 43L292 82L294 70L219 23Q194 7 175.0 0.0Q156 -7 136 -7Z"/></g><g transform="translate(56.07 208.00) scale(0.01800 -0.01800)"><path d="M425 386Q427 386 427.0 380.0Q427 374 425 374Q401 374 385.0 360.0Q369 346 352 305L227 1Q226 -3 216.5 -3.0Q207 -3 205 1L68 303Q48 348 35.0 361.0Q22 374 4 374Q1 374 1.0 380.0Q1 386 4 386Q18 386 34.5 385.0Q51 384 65 384Q98 384 122.0 385.0Q146 386 166 386Q169 386 169.0 380.0Q169 374 166 374Q135 374 116.5 366.5Q98 359 109 335L239 51L216 22L335 311Q349 346 331.5 360.0Q314 374 258 374Q256 374 256.0 380.0Q256 386 258 386Q282 386 303.5 385.0Q325 384 359 384Q380 384 393.0 385.0Q406 386 425 386Z"/></g><g transform="translate(64.26 208.00) scale(0.01800 -0.01800)"><path d="M313 -6Q309 -8 305 -8Q293 -8 283.0 13.0Q273 34 273 74V267Q273 329 253.5 353.0Q234 377 205 377Q180 377 163.5 365.5Q147 354 138.5 337.0Q130 320 126 305Q124 295 119.0 281.5Q114 268 94 268Q79 268 71.5 277.0Q64 286 64 296Q64 313 82.0 330.5Q100 348 127.5 363.0Q155 378 185.0 387.0Q215 396 240 396Q281 396 300.0 369.5Q319 343 319 297V108Q319 72 327.5 55.5Q336 39 357 39Q376 39 412 54Q417 56 419.0 50.5Q421 45 416 43ZM136 -7Q99 -7 79.5 13.5Q60 34 60 61Q60 78 68.5 94.0Q77 110 98.5 125.0Q120 140 158 154L283 201L285 188L167 143Q146 135 135.0 125.5Q124 116 120.0 105.5Q116 95 116 84Q116 62 130.5 44.0Q145 26 173 26Q184 26 196.0 29.5Q208 33 225 43L292 82L294 70L219 23Q194 7 175.0 0.0Q156 -7 136 -7Z"/></g></g><g fill="#8b949e"><g transform="translate(309.71 208.00) scale(0.01600 -0.01600)"><path d="M296 282Q345 282 373.5 264.0Q402 246 415.0 218.0Q428 190 428 159Q428 112 401.0 72.5Q374 33 329.5 10.0Q285 -13 230 -13Q147 -13 98.0 44.5Q49 102 49 208Q49 301 90.5 390.5Q132 480 211.0 551.5Q290 623 400 661Q404 662 406.0 657.0Q408 652 405 650Q305 606 238.0 535.5Q171 465 137.5 384.0Q104 303 104 226Q104 165 122.0 115.0Q140 65 174.5 35.0Q209 5 258 5Q309 5 341.0 39.0Q373 73 373 133Q373 185 347.5 221.0Q322 257 267 257Q239 257 214.5 245.0Q190 233 160 206Q158 203 153.0 206.5Q148 210 150 213Q177 247 214.0 264.5Q251 282 296 282Z"/></g><g transform="translate(317.15 208.00) scale(0.01600 -0.01600)"><path d="M98 -11Q80 -11 69.0 -0.5Q58 10 58 28Q58 45 69.0 55.0Q80 65 98 65Q117 65 127.0 55.0Q137 45 137 28Q137 10 127.0 -0.5Q117 -11 98 -11Z"/></g><g transform="translate(320.27 208.00) scale(0.01600 -0.01600)"><path d="M78 196Q176 196 235.5 172.0Q295 148 322.0 106.0Q349 64 349 9Q349 -48 320.0 -94.5Q291 -141 229.5 -184.5Q168 -228 68 -275Q64 -276 61.0 -271.0Q58 -266 62 -264Q152 -221 202.0 -178.5Q252 -136 272.0 -93.5Q292 -51 292 -8Q292 74 235.0 120.5Q178 167 68 167Q56 167 58 179L90 357Q91 364 93.0 365.5Q95 367 103 368Q189 378 237.0 384.5Q285 391 307.0 395.5Q329 400 335.5 406.5Q342 413 345 423Q346 426 351.5 425.5Q357 425 356 421L336 357Q332 344 326.0 341.5Q320 339 308 339L119 335Q106 335 104 320L78 172Z"/></g><g transform="translate(326.82 208.00) scale(0.01600 -0.01600)"><path d="M150 303Q98 303 63.5 340.5Q29 378 29 433Q29 468 44.5 497.0Q60 526 87.5 543.0Q115 560 150 560Q203 560 235.5 522.0Q268 484 268 430Q268 377 235.0 340.0Q202 303 150 303ZM157 313Q195 313 205.0 344.5Q215 376 215 423Q215 550 144 550Q105 550 93.5 516.5Q82 483 82 436Q82 384 98.0 348.5Q114 313 157 313ZM427 -5Q392 -5 364.5 12.5Q337 30 321.5 59.5Q306 89 306 125Q306 160 321.5 189.0Q337 218 364.5 235.5Q392 253 427 253Q462 253 488.5 235.5Q515 218 530.0 188.5Q545 159 545 123Q545 69 512.0 32.0Q479 -5 427 -5ZM434 6Q472 6 482.0 37.5Q492 69 492 116Q492 242 421 242Q383 242 371.0 209.0Q359 176 359 129Q359 77 375.0 41.5Q391 6 434 6ZM105 -5Q104 -6 98.0 -4.0Q92 -2 87.0 1.0Q82 4 83 6L454 550Q456 552 461.5 549.5Q467 547 472.0 543.5Q477 540 476 538Z"/></g></g><circle cx="29" cy="230" r="5" fill="#663399"/><g fill="#c9d1d9"><g transform="translate(42.00 235.00) scale(0.01800 -0.01800)"><path d="M407 636Q452 636 484.5 632.0Q517 628 545.0 618.5Q573 609 604 593Q610 589 611.5 586.5Q613 584 614 571L626 457Q626 455 620.5 453.5Q615 452 614 456Q592 539 541.5 580.5Q491 622 407 622Q318 622 252.0 585.0Q186 548 149.5 480.0Q113 412 113 320Q113 255 136.5 197.0Q160 139 201.5 95.0Q243 51 296.0 26.0Q349 1 409 1Q495 1 547.0 42.5Q599 84 621 164Q622 167 627.5 166.0Q633 165 633 163L625 57Q624 45 622.0 42.0Q620 39 614 35Q561 7 515.5 -3.0Q470 -13 408 -13Q303 -13 222.0 28.5Q141 70 95.0 145.0Q49 220 49 319Q49 391 75.5 449.0Q102 507 150.5 549.0Q199 591 264.0 613.5Q329 636 407 636Z"/></g><g transform="translate(54.77 235.00) scale(0.01800 -0.01800)"><path d="M138 504Q138 462 158.5 432.5Q179 403 211.5 381.0Q244 359 280 338Q317 317 351.0 293.5Q385 270 407.5 237.5Q430 205 430 157Q430 111 407.5 72.5Q385 34 340.0 11.0Q295 -12 227 -12Q205 -12 183.5 -9.0Q162 -6 139.5 1.5Q117 9 91 22Q86 25 84.5 29.5Q83 34 82 41L67 171Q66 176 71.5 176.5Q77 177 78 173Q82 143 94.0 113.0Q106 83 126.5 58.0Q147 33 177.5 17.5Q208 2 249 2Q280 2 309.0 13.5Q338 25 356.5 51.0Q375 77 375 122Q375 171 353.5 203.5Q332 236 299.0 259.5Q266 283 229 304Q194 325 161.0 348.0Q128 371 107.5 402.5Q87 434 87 481Q87 533 113.0 567.5Q139 602 180.5 619.0Q222 636 267 636Q293 636 321.5 630.5Q350 625 381 612Q389 609 392.5 604.5Q396 600 396 595L405 489Q405 485 399.5 485.0Q394 485 393 489Q391 511 382.5 534.5Q374 558 357.5 578.0Q341 598 315.5 610.5Q290 623 254 623Q211 623 185.5 605.0Q160 587 149.0 560.0Q138 533 138 504Z"/></g><g transform="translate(63.90 235.00) scale(0.01800 -0.01800)"><path d="M138 504Q138 462 158.5 432.5Q179 403 211.5 381.0Q244 359 280 338Q317 317 351.0 293.5Q385 270 407.5 237.5Q430 205 430 157Q430 111 407.5 72.5Q385 34 340.0 11.0Q295 -12 227 -12Q205 -12 183.5 -9.0Q162 -6 139.5 1.5Q117 9 91 22Q86 25 84.5 29.5Q83 34 82 41L67 171Q66 176 71.5 176.5Q77 177 78 173Q82 143 94.0 113.0Q106 83 126.5 58.0Q147 33 177.5 17.5Q208 2 249 2Q280 2 309.0 13.5Q338 25 356.5 51.0Q375 77 375 122Q375 171 353.5 203.5Q332 236 299.0 259.5Q266 283 229 304Q194 325 161.0 348.0Q128 371 107.5 402.5Q87 434 87 481Q87 533 113.0 567.5Q139 602 180.5 619.0Q222 636 267 636Q293 636 321.5 630.5Q350 625 381 612Q389 609 392.5 604.5Q396 600 396 595L405 489Q405 485 399.5 485.0Q394 485 393 489Q391 511 382.5 534.5Q374 558 357.5 578.0Q341 598 315.5 610.5Q290 623 254 623Q211 623 185.5 605.0Q160 587 149.0 560.0Q138 533 138 504Z"/></g></g><g fill="#8b949e"><g transform="translate(308.67 235.00) scale(0.01600 -0.01600)"><path d="M28 8Q24 8 20.5 12.0Q17 16 21 20L308 396Q310 399 316.5 398.0Q323 397 323 392V-158Q323 -169 315 -172L283 -188Q274 -193 274 -182V325L294 338L69 44Q66 41 68.0 39.0Q70 37 74 37Q132 37 176.5 37.5Q221 38 258.0 39.0Q295 40 332.0 41.0Q369 42 412 43Q415 43 416.0 32.5Q417 22 416.0 11.5Q415 1 412 1Q372 3 333.5 4.5Q295 6 252.0 6.5Q209 7 154.5 7.5Q100 8 28 8Z"/></g><g transform="translate(315.87 235.00) scale(0.01600 -0.01600)"><path d="M98 -11Q80 -11 69.0 -0.5Q58 10 58 28Q58 45 69.0 55.0Q80 65 98 65Q117 65 127.0 55.0Q137 45 137 28Q137 10 127.0 -0.5Q117 -11 98 -11Z"/></g><g transform="translate(318.99 235.00) scale(0.01600 -0.01600)"><path d="M273 339Q306 365 322.5 392.0Q339 419 339 453Q339 501 310.0 530.0Q281 559 236 559Q201 559 176.0 539.5Q151 520 151 483Q151 451 170.0 427.0Q189 403 220.0 384.5Q251 366 285 347Q326 326 364.0 302.0Q402 278 426.5 244.5Q451 211 451 161Q451 111 422.5 71.5Q394 32 346.5 9.5Q299 -13 242 -13Q183 -13 139.5 10.0Q96 33 72.5 70.0Q49 107 49 149Q49 199 75.5 241.5Q102 284 142.5 315.0Q183 346 223 360L229 352Q170 327 137.5 280.5Q105 234 105 175Q105 131 126.0 92.0Q147 53 184.0 28.5Q221 4 270 4Q307 4 337.0 19.0Q367 34 384.5 62.5Q402 91 402 132Q402 184 377.5 218.5Q353 253 315.0 276.5Q277 300 237 320Q203 339 172.5 357.5Q142 376 123.0 399.5Q104 423 104 456Q104 496 129.0 522.0Q154 548 190.5 561.0Q227 574 260 574Q300 574 329.0 558.0Q358 542 373.5 518.0Q389 494 389 469Q389 434 360.0 399.0Q331 364 278 333Z"/></g><g transform="translate(326.82 235.00) scale(0.01600 -0.01600)"><path d="M150 303Q98 303 63.5 340.5Q29 378 29 433Q29 468 44.5 497.0Q60 526 87.5 543.0Q115 560 150 560Q203 560 235.5 522.0Q268 484 268 430Q268 377 235.0 340.0Q202 303 150 303ZM157 313Q195 313 205.0 344.5Q215 376 215 423Q215 550 144 550Q105 550 93.5 516.5Q82 483 82 436Q82 384 98.0 348.5Q114 313 157 313ZM427 -5Q392 -5 364.5 12.5Q337 30 321.5 59.5Q306 89 306 125Q306 160 321.5 189.0Q337 218 364.5 235.5Q392 253 427 253Q462 253 488.5 235.5Q515 218 530.0 188.5Q545 159 545 123Q545 69 512.0 32.0Q479 -5 427 -5ZM434 6Q472 6 482.0 37.5Q492 69 492 116Q492 242 421 242Q383 242 371.0 209.0Q359 176 359 129Q359 77 375.0 41.5Q391 6 434 6ZM105 -5Q104 -6 98.0 -4.0Q92 -2 87.0 1.0Q82 4 83 6L454 550Q456 552 461.5 549.5Q467 547 472.0 543.5Q477 540 476 538Z"/></g></g></svg>